<?xml version="1.0" encoding="UTF-8" standalone="no"?>
<!DOCTYPE svg PUBLIC "-//W3C//DTD SVG 20010904//EN"
              "http://www.w3.org/TR/2001/REC-SVG-20010904/DTD/svg10.dtd">

<svg xmlns="http://www.w3.org/2000/svg"
     width="135.486mm" height="135.486mm"
     viewBox="0 0 512 512">
  <path id="Selection"
        d="M 408.00,209.00
           C 413.50,207.69 418.44,204.53 423.00,201.25
             425.47,199.48 428.89,196.19 432.00,196.14
             434.92,196.10 450.13,203.94 454.00,205.57
             458.09,207.30 461.73,209.01 465.48,205.57
             467.04,204.14 469.72,199.93 471.00,198.00
             472.92,195.11 476.43,190.59 476.09,187.00
             475.64,182.18 462.93,172.02 459.01,168.00
             456.27,165.20 453.71,163.22 454.16,159.00
             454.16,159.00 457.58,143.00 457.58,143.00
             458.02,140.27 458.02,137.74 460.31,135.84
             464.02,132.76 485.17,127.45 488.40,123.59
             489.99,121.69 490.02,119.34 489.83,117.00
             489.51,113.15 487.47,100.91 484.69,98.60
             482.57,96.84 479.59,97.02 477.00,97.00
             477.00,97.00 450.00,98.00 450.00,98.00
             448.83,91.83 445.82,88.05 442.28,83.00
             440.56,80.55 437.46,77.03 437.35,74.00
             437.24,71.19 445.02,55.75 446.63,52.00
             448.48,47.97 449.95,44.20 446.63,40.52
             445.14,38.96 440.93,36.28 439.00,35.00
             436.47,33.32 433.02,30.74 430.00,30.32
             423.89,29.46 415.16,40.80 411.00,45.00
             408.29,47.74 405.19,52.48 400.96,52.11
             400.96,52.11 384.00,48.58 384.00,48.58
             381.35,48.14 378.66,47.90 376.84,45.69
             376.84,45.69 368.68,25.00 368.68,25.00
             367.63,22.20 366.52,18.63 363.79,17.02
             362.07,16.01 359.93,16.02 358.00,16.17
             354.01,16.50 342.20,18.49 339.74,21.43
             337.98,23.53 338.04,26.41 338.00,29.00
             338.00,29.00 338.98,50.00 338.98,50.00
             338.68,57.14 334.53,57.15 329.00,60.45
             325.14,62.76 318.15,69.35 314.00,68.76
             314.00,68.76 293.00,59.31 293.00,59.31
             288.39,57.26 284.59,55.95 280.78,60.23
             277.68,63.71 270.07,74.31 271.62,79.00
             272.83,82.67 283.69,92.81 287.00,95.91
             289.91,98.64 293.44,100.58 293.19,105.00
             293.19,105.00 291.23,113.00 291.23,113.00
             290.21,117.41 290.02,126.43 286.69,129.16
             282.51,132.59 261.95,137.26 258.40,141.39
             256.04,144.54 257.51,149.40 258.40,153.00
             258.85,156.43 259.48,163.04 261.72,165.57
             263.90,168.03 266.99,167.96 270.00,168.00
             270.00,168.00 291.00,167.02 291.00,167.02
             298.19,167.32 298.09,171.46 301.46,177.00
             303.87,180.95 310.57,187.49 309.81,192.00
             309.81,192.00 300.58,213.00 300.58,213.00
             298.57,217.77 296.91,220.46 301.15,224.68
             301.15,224.68 309.00,230.58 309.00,230.58
             311.31,232.20 314.15,234.28 317.00,234.68
             323.48,235.59 331.55,224.44 336.00,220.00
             339.64,216.37 342.39,212.25 348.00,213.21
             348.00,213.21 366.95,217.15 366.95,217.15
             368.40,217.69 369.17,218.11 370.19,219.31
             373.68,223.44 378.44,244.08 382.41,247.40
             384.31,248.99 386.66,249.02 389.00,248.83
             392.92,248.51 404.98,246.41 407.40,243.57
             409.31,241.34 408.99,237.77 408.96,235.00
             408.96,235.00 408.96,222.00 408.96,222.00
             408.96,222.00 408.00,209.00 408.00,209.00 Z
           M 405.00,87.47
           C 406.65,87.31 407.18,86.96 409.00,87.47
             413.78,88.32 419.73,94.85 418.67,100.00
             417.84,103.99 411.92,109.08 409.00,112.00
             409.00,112.00 384.00,137.00 384.00,137.00
             381.93,139.07 374.82,145.62 374.20,148.00
             372.94,152.78 384.08,159.19 385.83,163.96
             387.73,169.10 379.13,169.33 376.00,169.72
             376.00,169.72 346.00,173.51 346.00,173.51
             343.25,173.64 335.68,175.11 333.44,173.51
             330.57,171.97 331.91,165.87 332.28,163.00
             332.28,163.00 336.42,130.00 336.42,130.00
             336.85,126.91 336.77,118.23 342.04,120.17
             346.46,121.80 352.91,131.96 357.00,131.96
             360.14,131.96 368.50,122.50 371.00,120.00
             371.00,120.00 392.00,99.00 392.00,99.00
             396.06,94.94 399.88,90.27 405.00,87.47 Z
           M 182.00,193.00
           C 182.00,193.00 155.00,198.00 155.00,198.00
             152.45,191.44 143.44,180.35 139.02,174.00
             136.97,171.04 134.70,167.05 130.99,166.07
             127.02,165.03 120.58,168.96 117.00,170.75
             114.13,172.19 109.04,174.15 107.75,177.21
             106.49,180.20 108.14,185.00 109.00,188.00
             109.00,188.00 114.34,206.00 114.34,206.00
             115.07,208.34 116.65,212.61 116.10,214.96
             115.48,217.62 112.98,219.36 111.00,221.00
             111.00,221.00 99.17,231.52 99.17,231.52
             95.20,234.22 86.96,228.63 83.00,226.86
             78.58,224.89 65.00,217.79 61.00,218.42
             56.13,219.18 49.10,230.65 46.92,235.00
             45.93,236.97 45.21,238.77 45.84,241.00
             46.97,245.00 62.03,258.02 66.00,262.00
             68.22,264.22 72.96,267.84 72.43,271.28
             72.43,271.28 69.81,278.00 69.81,278.00
             68.41,281.62 66.31,291.09 63.58,292.99
             61.40,294.52 55.71,294.84 53.00,295.02
             53.00,295.02 35.00,296.83 35.00,296.83
             31.92,297.14 28.80,296.80 26.15,298.74
             22.13,301.67 23.23,306.69 22.72,311.00
             22.23,315.08 20.88,322.16 23.74,325.57
             25.78,328.02 30.95,328.87 34.00,329.63
             34.00,329.63 62.00,336.00 62.00,336.00
             62.00,336.00 67.00,363.00 67.00,363.00
             61.40,365.37 48.63,374.98 43.00,379.00
             40.20,381.00 36.08,383.43 35.36,387.04
             34.59,390.82 38.04,396.49 39.58,400.00
             41.15,403.61 42.97,408.97 47.04,410.36
             50.16,411.43 55.89,409.31 59.00,408.34
             59.00,408.34 86.00,400.00 86.00,400.00
             88.79,405.42 92.32,409.42 96.28,414.00
             98.17,416.18 101.38,418.98 101.44,422.00
             101.48,423.91 99.26,428.07 98.42,430.00
             98.42,430.00 90.22,448.00 90.22,448.00
             88.13,452.47 85.58,456.24 89.43,460.68
             92.29,463.98 105.70,473.14 110.00,472.08
             114.80,470.88 123.31,459.89 127.04,456.00
             130.11,452.78 136.36,444.48 141.17,445.71
             141.17,445.71 160.72,452.93 160.72,452.93
             161.94,453.82 162.54,454.68 163.11,456.06
             163.11,456.06 165.97,482.00 165.97,482.00
             166.22,486.55 166.04,492.18 171.06,494.26
             173.27,495.18 176.60,494.93 179.00,495.04
             184.27,495.28 192.41,498.00 196.07,492.77
             196.07,492.77 203.13,466.00 203.13,466.00
             203.88,462.99 204.58,457.94 207.30,456.17
             209.07,455.03 214.56,454.66 217.00,454.20
             219.99,453.63 228.37,451.34 230.83,452.32
             233.21,453.28 235.52,456.93 237.00,459.00
             237.00,459.00 248.34,475.00 248.34,475.00
             250.03,477.44 252.33,481.12 255.17,482.25
             259.15,483.82 273.58,477.13 276.85,474.36
             280.48,471.31 280.10,468.20 279.10,464.00
             279.10,464.00 272.66,442.00 272.66,442.00
             271.69,438.90 270.02,435.19 271.77,432.09
             272.91,430.07 277.09,426.85 279.00,425.25
             281.39,423.24 287.50,417.21 290.00,416.65
             292.55,416.08 297.62,418.66 300.00,419.78
             304.24,421.78 321.62,430.47 325.00,430.45
             330.40,430.41 336.79,419.39 339.44,415.00
             340.71,412.90 341.98,410.53 341.30,408.00
             340.62,405.47 337.80,402.84 336.00,401.00
             336.00,401.00 322.00,387.58 322.00,387.58
             319.50,385.41 314.00,381.39 314.57,377.72
             314.57,377.72 317.19,371.00 317.19,371.00
             318.84,366.75 320.60,357.36 324.22,355.17
             326.42,353.85 329.51,354.08 332.00,353.83
             332.00,353.83 350.00,352.03 350.00,352.03
             353.47,351.84 358.95,351.81 361.69,349.42
             364.36,347.08 364.90,336.71 364.99,333.00
             365.06,329.99 365.35,325.73 363.40,323.28
             361.03,320.29 355.56,319.56 352.00,318.79
             352.00,318.79 325.00,313.00 325.00,313.00
             325.00,313.00 320.00,286.00 320.00,286.00
             320.00,286.00 343.00,270.42 343.00,270.42
             345.99,268.28 350.57,265.65 351.55,261.91
             352.71,257.52 349.17,251.85 347.25,248.00
             345.82,245.14 343.80,239.89 340.79,238.60
             337.69,237.27 333.05,238.72 330.00,239.66
             330.00,239.66 312.00,245.02 312.00,245.02
             309.68,245.74 305.36,247.39 303.04,246.94
             300.34,246.41 298.65,243.98 297.00,241.99
             297.00,241.99 286.52,230.00 286.52,230.00
             284.20,226.11 287.04,222.61 288.69,219.00
             288.69,219.00 297.08,200.00 297.08,200.00
             299.54,194.99 301.42,191.83 297.08,187.32
             293.61,184.12 281.46,175.27 277.00,176.64
             272.05,178.16 260.18,192.62 255.96,197.00
             252.65,200.44 250.14,203.85 245.00,202.50
             241.67,201.63 226.56,196.69 224.93,194.57
             222.88,191.90 223.15,187.20 222.91,184.00
             222.91,184.00 221.09,166.00 221.09,166.00
             220.85,162.76 221.20,159.12 218.99,156.43
             216.45,153.32 205.99,153.02 202.00,153.00
             198.99,152.99 194.73,152.61 192.30,154.60
             189.48,156.89 188.93,162.55 188.12,166.00
             188.12,166.00 182.00,193.00 182.00,193.00 Z
           M 246.00,261.28
           C 250.10,260.91 255.11,260.08 256.57,265.06
             257.51,268.25 255.66,279.15 255.13,283.00
             255.13,283.00 250.15,323.00 250.15,323.00
             249.72,326.61 248.60,339.32 246.99,341.66
             244.34,345.66 240.04,343.91 237.00,341.66
             237.00,341.66 224.00,329.01 224.00,329.01
             222.19,327.27 219.81,324.45 217.00,325.20
             214.38,325.89 203.62,337.38 201.00,340.00
             201.00,340.00 164.00,377.00 164.00,377.00
             158.90,382.10 150.50,392.91 143.00,392.91
             135.48,392.91 119.29,379.19 127.43,368.00
             127.43,368.00 144.00,351.00 144.00,351.00
             144.00,351.00 175.00,320.00 175.00,320.00
             177.73,317.27 191.31,304.13 192.37,302.00
             194.09,298.57 191.20,296.29 188.99,294.00
             188.99,294.00 175.57,280.00 175.57,280.00
             173.88,277.59 172.74,274.95 174.76,272.31
             177.35,268.90 189.55,268.38 194.00,267.85
             194.00,267.85 246.00,261.28 246.00,261.28 Z" />
</svg>
