<?xml version="1.0" encoding="UTF-8" standalone="no"?>
<!DOCTYPE svg PUBLIC "-//W3C//DTD SVG 20010904//EN"
              "http://www.w3.org/TR/2001/REC-SVG-20010904/DTD/svg10.dtd">

<svg xmlns="http://www.w3.org/2000/svg"
     width="5.68889in" height="5.68889in"
     viewBox="0 0 512 512">
  <path id="Selection"
        d="M 431.00,20.00
           C 431.00,20.00 367.00,84.00 367.00,84.00
             367.00,84.00 334.00,118.00 334.00,118.00
             334.00,118.00 305.00,89.00 305.00,89.00
             301.07,85.07 295.82,78.84 290.00,78.25
             284.58,77.71 280.59,81.53 277.00,85.02
             277.00,85.02 255.00,107.00 255.00,107.00
             255.00,107.00 162.00,200.00 162.00,200.00
             162.00,200.00 112.00,250.00 112.00,250.00
             106.09,255.91 95.89,263.34 100.01,272.96
             101.03,275.35 102.64,276.98 105.04,277.99
             113.99,281.79 121.47,271.53 127.00,266.00
             127.00,266.00 193.00,200.00 193.00,200.00
             193.00,200.00 264.00,129.00 264.00,129.00
             264.00,129.00 281.00,112.00 281.00,112.00
             282.77,110.24 286.40,106.04 289.00,106.04
             291.93,106.04 297.85,112.85 300.00,115.00
             300.00,115.00 320.00,135.00 320.00,135.00
             323.61,138.59 326.64,142.37 332.00,142.89
             339.23,143.59 342.28,139.69 347.00,135.00
             347.00,135.00 364.00,118.00 364.00,118.00
             364.00,118.00 446.00,36.00 446.00,36.00
             446.00,36.00 446.00,64.00 446.00,64.00
             446.02,67.34 445.91,70.99 447.85,73.89
             451.28,79.01 460.39,79.50 464.35,74.77
             467.21,71.36 466.99,67.16 467.00,63.00
             467.00,63.00 467.00,15.00 467.00,15.00
             466.99,5.40 466.07,0.16 455.00,0.00
             455.00,0.00 398.00,0.00 398.00,0.00
             394.22,0.01 390.50,-0.32 387.57,2.57
             382.72,7.34 382.54,19.77 396.00,20.00
             396.00,20.00 431.00,20.00 431.00,20.00 Z
           M 363.00,492.00
           C 363.00,492.00 308.00,492.00 308.00,492.00
             308.00,492.00 308.00,318.00 308.00,318.00
             307.98,307.47 304.71,299.28 295.00,293.90
             286.48,289.19 272.63,290.00 263.00,290.00
             263.00,290.00 238.00,290.00 238.00,290.00
             223.53,290.07 211.18,293.88 206.10,309.00
             204.88,312.66 205.01,315.24 205.00,319.00
             205.00,319.00 205.00,492.00 205.00,492.00
             205.00,492.00 150.00,492.00 150.00,492.00
             150.00,492.00 150.00,404.00 150.00,404.00
             149.98,393.56 147.13,384.97 138.00,378.85
             129.30,373.02 115.12,374.00 105.00,374.00
             105.00,374.00 80.00,374.00 80.00,374.00
             65.38,374.02 52.65,377.59 47.60,393.00
             46.42,396.58 46.05,400.25 46.00,404.00
             46.00,404.00 46.00,492.00 46.00,492.00
             46.00,492.00 27.00,492.00 27.00,492.00
             23.74,492.01 19.98,491.71 17.21,493.74
             11.63,497.83 11.96,507.42 18.10,510.83
             20.60,512.21 24.20,512.00 27.00,512.00
             27.00,512.00 485.00,512.00 485.00,512.00
             488.26,511.99 492.02,512.29 494.79,510.26
             500.08,506.38 500.08,497.62 494.79,493.74
             492.21,491.85 489.03,492.02 486.00,492.00
             486.00,492.00 467.00,492.00 467.00,492.00
             467.00,492.00 467.00,176.00 467.00,176.00
             466.99,171.84 467.05,169.07 465.78,165.00
             464.38,160.53 462.27,157.35 458.96,154.04
             449.38,144.47 438.34,146.00 426.00,146.00
             426.00,146.00 394.00,146.00 394.00,146.00
             381.40,146.02 370.08,150.32 365.12,163.00
             362.22,170.40 363.00,179.13 363.00,187.00
             363.00,187.00 363.00,226.00 363.00,226.00
             363.00,226.00 363.00,492.00 363.00,492.00 Z
           M 446.00,492.00
           C 446.00,492.00 384.00,492.00 384.00,492.00
             384.00,492.00 384.00,180.00 384.00,180.00
             384.01,175.97 383.61,171.47 387.23,168.74
             390.35,166.38 397.11,167.00 401.00,167.00
             401.00,167.00 433.00,167.00 433.00,167.00
             443.32,167.02 445.98,168.25 446.00,179.00
             446.00,179.00 446.00,243.00 446.00,243.00
             446.00,243.00 446.00,492.00 446.00,492.00 Z
           M 72.02,293.65
           C 60.74,298.64 64.69,312.18 74.00,313.62
             85.58,315.41 90.26,299.20 80.95,294.17
             78.04,292.61 75.07,293.02 72.02,293.65 Z
           M 287.00,492.00
           C 287.00,492.00 226.00,492.00 226.00,492.00
             226.00,492.00 226.00,323.00 226.00,323.00
             226.01,319.65 225.63,316.02 228.31,313.51
             231.11,310.90 235.44,311.02 239.00,311.00
             239.00,311.00 274.00,311.00 274.00,311.00
             277.61,311.01 282.61,310.70 285.26,313.65
             287.22,315.82 286.99,319.27 287.00,322.00
             287.00,322.00 287.00,353.00 287.00,353.00
             287.00,353.00 287.00,492.00 287.00,492.00 Z
           M 129.00,492.00
           C 129.00,492.00 67.00,492.00 67.00,492.00
             67.00,492.00 67.00,408.00 67.00,408.00
             67.01,404.43 66.62,400.21 69.43,397.51
             72.17,394.87 76.47,395.02 80.00,395.00
             80.00,395.00 115.00,395.00 115.00,395.00
             126.38,395.02 128.98,396.24 129.00,408.00
             129.00,408.00 129.00,492.00 129.00,492.00 Z" />
</svg>
