<?xml version="1.0" encoding="UTF-8" standalone="no"?>
<!DOCTYPE svg PUBLIC "-//W3C//DTD SVG 20010904//EN"
              "http://www.w3.org/TR/2001/REC-SVG-20010904/DTD/svg10.dtd">

<svg xmlns="http://www.w3.org/2000/svg"
     width="135.486mm" height="135.486mm"
     viewBox="0 0 512 512">
  <path id="Selection"
        d="M 163.00,60.00
           C 163.00,60.00 104.00,60.00 104.00,60.00
             89.75,60.02 75.84,67.39 71.64,82.00
             70.19,87.01 70.00,101.31 70.00,107.00
             70.00,107.00 70.00,145.00 70.00,145.00
             70.00,145.00 70.00,429.00 70.00,429.00
             70.01,433.28 70.64,442.08 71.91,446.00
             75.14,455.95 84.58,464.85 95.00,466.92
             95.00,466.92 115.00,466.92 115.00,466.92
             115.00,466.92 150.00,466.92 150.00,466.92
             150.00,466.92 410.00,466.92 410.00,466.92
             424.02,466.98 436.59,459.09 440.39,445.00
             441.39,441.28 441.99,433.00 442.00,429.00
             442.00,429.00 442.00,319.00 442.00,319.00
             442.00,302.21 443.00,271.17 441.00,256.00
             435.20,256.83 431.97,261.55 428.00,265.58
             424.12,269.50 410.44,282.06 408.88,286.09
             407.87,288.70 408.00,292.21 408.00,295.00
             408.00,295.00 408.00,434.00 408.00,434.00
             408.00,434.00 104.00,434.00 104.00,434.00
             104.00,434.00 104.00,93.00 104.00,93.00
             104.00,93.00 153.00,93.00 153.00,93.00
             155.19,93.00 158.84,92.79 160.69,94.02
             164.15,96.33 161.54,99.81 167.10,107.99
             171.91,115.05 179.57,118.89 188.00,119.00
             188.00,119.00 322.00,119.00 322.00,119.00
             331.09,118.99 338.53,116.30 344.25,108.82
             350.44,100.71 347.76,96.38 351.31,94.02
             353.16,92.79 356.81,93.00 359.00,93.00
             359.00,93.00 408.00,93.00 408.00,93.00
             408.00,93.00 408.00,124.00 408.00,124.00
             408.00,131.21 407.18,137.21 410.00,144.00
             415.60,141.35 419.67,136.33 424.00,132.00
             424.00,132.00 434.00,122.00 434.00,122.00
             441.41,114.54 441.98,113.34 442.00,103.00
             442.01,97.93 441.69,86.59 440.36,82.00
             436.32,68.00 422.90,60.07 409.00,60.00
             409.00,60.00 349.00,60.00 349.00,60.00
             348.85,44.73 337.96,35.02 323.00,35.00
             323.00,35.00 187.00,35.00 187.00,35.00
             172.86,35.19 163.14,46.19 163.00,60.00 Z
           M 316.00,68.00
           C 316.00,68.00 316.00,86.00 316.00,86.00
             316.00,86.00 196.00,86.00 196.00,86.00
             196.00,86.00 196.00,68.00 196.00,68.00
             196.00,68.00 316.00,68.00 316.00,68.00 Z
           M 454.00,137.64
           C 444.05,141.42 437.31,153.52 431.41,162.00
             417.26,182.36 408.87,193.23 392.58,212.00
             388.97,216.15 384.12,221.08 380.00,224.72
             377.46,226.96 372.35,230.94 371.08,234.00
             368.98,239.07 380.32,248.77 384.00,251.85
             385.68,253.26 387.56,254.80 389.91,254.26
             392.55,253.65 395.71,249.07 397.43,247.00
             402.37,241.08 407.46,235.43 412.99,230.04
             425.62,217.72 444.28,204.23 459.00,194.19
             466.62,189.00 480.33,180.77 484.85,173.00
             493.45,158.22 476.47,133.13 454.00,137.64 Z
           M 186.00,307.00
           C 188.26,313.98 197.89,315.86 204.00,318.63
             208.20,320.53 217.97,325.74 222.00,325.84
             226.17,325.95 236.67,320.34 241.00,318.37
             241.00,318.37 283.00,299.00 283.00,299.00
             283.00,299.00 250.00,322.29 250.00,322.29
             247.35,324.18 239.23,329.38 238.17,332.05
             236.98,335.05 239.90,336.80 242.02,338.19
             242.02,338.19 257.00,347.18 257.00,347.18
             259.35,348.66 262.05,350.70 265.00,350.28
             268.56,349.77 274.94,343.30 278.00,340.80
             278.00,340.80 308.00,316.00 308.00,316.00
             308.00,316.00 284.00,342.00 284.00,342.00
             281.69,344.31 274.12,351.31 273.63,354.28
             273.08,357.63 276.70,360.00 279.00,361.71
             284.90,366.06 295.71,375.00 302.00,377.00
             302.00,377.00 323.00,343.00 323.00,343.00
             322.14,350.43 315.04,363.57 311.85,371.00
             310.57,373.98 307.75,379.83 308.69,382.96
             309.52,385.74 315.65,390.74 318.00,392.84
             320.31,394.90 325.56,399.92 328.78,399.56
             332.06,399.20 333.63,392.66 334.62,390.00
             334.62,390.00 345.30,361.00 345.30,361.00
             345.30,361.00 368.59,298.00 368.59,298.00
             368.59,298.00 375.16,280.00 375.16,280.00
             375.98,277.62 377.58,273.44 377.27,271.00
             376.86,267.74 374.16,265.24 371.98,263.00
             369.36,260.29 358.36,249.05 356.00,247.61
             351.71,245.01 347.19,247.51 343.00,249.09
             343.00,249.09 313.00,260.12 313.00,260.12
             313.00,260.12 186.00,307.00 186.00,307.00 Z
           M 284.00,298.00
           C 284.00,298.00 284.00,299.00 284.00,299.00
             284.00,299.00 283.00,298.00 283.00,298.00
             283.00,298.00 284.00,298.00 284.00,298.00 Z
           M 309.00,315.00
           C 309.00,315.00 309.00,316.00 309.00,316.00
             309.00,316.00 308.00,315.00 308.00,315.00
             308.00,315.00 309.00,315.00 309.00,315.00 Z" />
</svg>
