<?xml version="1.0" encoding="UTF-8" standalone="no"?>
<!DOCTYPE svg PUBLIC "-//W3C//DTD SVG 20010904//EN"
              "http://www.w3.org/TR/2001/REC-SVG-20010904/DTD/svg10.dtd">

<svg xmlns="http://www.w3.org/2000/svg"
     width="135.486mm" height="135.486mm"
     viewBox="0 0 512 512">
  <path id="Selection"
        d="M 171.00,265.00
           C 195.86,293.64 224.72,314.93 260.00,329.00
             271.68,333.66 290.54,339.43 303.00,340.00
             304.45,347.76 309.00,354.94 313.93,361.00
             331.15,382.14 359.51,389.40 385.00,380.30
             421.70,367.20 438.47,321.60 418.55,288.00
             399.31,255.56 357.03,245.55 326.00,267.44
             318.83,272.50 312.96,278.45 308.45,286.00
             306.63,289.06 304.83,294.85 300.90,295.25
             298.61,295.48 291.52,293.31 289.00,292.58
             279.65,289.83 267.72,284.67 259.00,280.24
             229.09,265.04 198.47,236.70 184.31,206.00
             180.41,197.54 177.04,188.06 174.88,179.00
             174.88,179.00 172.00,166.00 172.00,166.00
             179.10,163.97 185.37,159.77 191.00,155.08
             215.79,134.40 220.23,99.10 203.53,72.00
             191.88,53.07 172.54,43.94 151.00,42.32
             148.00,42.10 145.94,42.65 143.00,42.93
             110.25,45.95 84.26,73.84 85.01,107.00
             85.39,123.59 92.12,140.31 104.01,151.96
             107.66,155.53 113.54,160.01 118.00,162.49
             120.89,164.09 125.26,165.30 126.98,168.21
             128.20,170.28 128.00,173.63 128.00,176.00
             128.00,176.00 128.00,336.00 128.00,336.00
             128.00,338.37 128.20,341.72 126.98,343.79
             125.26,346.70 120.89,347.91 118.00,349.51
             113.54,351.99 107.66,356.47 104.01,360.04
             92.12,371.69 85.39,388.41 85.01,405.00
             84.81,413.90 87.00,423.95 90.78,432.00
             102.16,456.20 122.03,467.73 148.00,469.68
             150.99,469.90 153.06,469.35 156.00,469.07
             182.98,466.58 205.09,447.27 211.63,421.00
             212.65,416.89 213.90,408.10 213.54,404.00
             211.97,386.29 207.81,373.15 194.83,360.17
             190.80,356.13 185.97,352.64 181.00,349.86
             178.26,348.33 173.61,346.48 172.02,343.79
             170.80,341.71 171.00,338.38 171.00,336.00
             171.00,336.00 171.00,265.00 171.00,265.00 Z
           M 144.00,86.39
           C 151.73,85.35 159.14,86.08 164.79,92.10
             175.67,103.71 169.50,123.62 154.00,126.98
             127.13,132.81 117.71,94.30 144.00,86.39 Z
           M 359.00,299.33
           C 363.81,298.81 368.62,299.13 373.00,301.44
             390.85,310.84 385.47,342.61 361.00,340.90
             345.40,339.81 336.78,322.33 344.53,309.01
             347.75,303.48 352.98,300.77 359.00,299.33 Z
           M 148.00,384.38
           C 156.60,384.47 163.21,387.23 167.64,395.00
             174.80,407.59 166.62,424.72 152.00,425.91
             127.92,427.87 122.17,400.96 135.18,389.53
             139.10,386.09 143.00,385.05 148.00,384.38 Z" />
</svg>
