<?xml version="1.0" encoding="UTF-8" standalone="no"?>
<!DOCTYPE svg PUBLIC "-//W3C//DTD SVG 20010904//EN"
              "http://www.w3.org/TR/2001/REC-SVG-20010904/DTD/svg10.dtd">

<svg xmlns="http://www.w3.org/2000/svg"
     width="5.68889in" height="5.68889in"
     viewBox="0 0 512 512">
  <path id="Selection"
        d="M 160.00,96.00
           C 160.00,96.00 64.00,96.00 64.00,96.00
             64.00,96.00 64.00,128.00 64.00,128.00
             64.00,128.00 96.00,128.00 96.00,128.00
             96.00,128.00 96.00,403.00 96.00,403.00
             96.03,422.72 109.27,440.12 128.00,446.25
             133.52,448.06 143.12,448.99 149.00,449.00
             149.00,449.00 331.00,449.00 331.00,449.00
             337.29,448.99 347.13,448.01 353.00,445.91
             375.31,437.91 384.96,418.59 385.00,396.00
             385.00,396.00 385.00,128.00 385.00,128.00
             385.00,128.00 417.00,128.00 417.00,128.00
             417.00,128.00 417.00,96.00 417.00,96.00
             417.00,96.00 321.00,96.00 321.00,96.00
             321.00,87.09 321.33,75.58 319.08,67.00
             317.96,62.75 315.32,56.65 312.90,53.00
             306.08,42.74 294.28,34.37 282.00,31.94
             282.00,31.94 274.00,31.94 274.00,31.94
             274.00,31.94 267.00,31.94 267.00,31.94
             267.00,31.94 233.00,31.94 233.00,31.94
             210.64,32.00 190.84,27.99 173.43,45.43
             157.54,61.34 160.00,75.72 160.00,96.00 Z
           M 288.00,96.00
           C 288.00,96.00 193.00,96.00 193.00,96.00
             193.00,96.00 193.00,82.00 193.00,82.00
             193.11,59.58 217.22,64.00 233.00,64.21
             233.00,64.21 271.00,64.21 271.00,64.21
             276.89,65.28 281.79,66.55 285.15,72.02
             288.45,77.40 288.00,89.64 288.00,96.00 Z
           M 192.00,160.00
           C 192.00,160.00 192.00,384.00 192.00,384.00
             192.00,384.00 161.00,384.00 161.00,384.00
             161.00,384.00 161.00,160.00 161.00,160.00
             161.00,160.00 192.00,160.00 192.00,160.00 Z
           M 256.00,160.00
           C 256.00,160.00 256.00,384.00 256.00,384.00
             256.00,384.00 225.00,384.00 225.00,384.00
             225.00,384.00 225.00,160.00 225.00,160.00
             225.00,160.00 256.00,160.00 256.00,160.00 Z
           M 320.00,160.00
           C 320.00,160.00 320.00,384.00 320.00,384.00
             320.00,384.00 289.00,384.00 289.00,384.00
             289.00,384.00 289.00,160.00 289.00,160.00
             289.00,160.00 320.00,160.00 320.00,160.00 Z" />
</svg>
