<?xml version="1.0" encoding="UTF-8" standalone="no"?>
<!DOCTYPE svg PUBLIC "-//W3C//DTD SVG 20010904//EN"
              "http://www.w3.org/TR/2001/REC-SVG-20010904/DTD/svg10.dtd">

<svg xmlns="http://www.w3.org/2000/svg"
     width="135.486mm" height="135.486mm"
     viewBox="0 0 512 512">
  <path id="Selection"
        d="M 92.00,41.74
           C 87.28,44.20 84.71,47.29 81.00,51.00
             74.74,57.26 63.00,66.85 62.25,76.00
             62.07,77.33 62.11,78.68 62.25,80.00
             64.18,92.39 77.46,83.66 82.40,88.60
             84.19,90.39 83.98,93.65 84.00,96.00
             84.00,96.00 84.00,116.00 84.00,116.00
             83.99,118.54 84.32,122.48 82.40,124.40
             78.06,128.74 65.06,122.00 62.22,131.04
             62.02,132.45 62.02,134.52 62.22,136.00
             61.96,139.31 61.37,146.90 63.74,149.26
             66.24,151.77 75.40,151.00 79.00,151.00
             79.00,151.00 119.00,151.00 119.00,151.00
             127.18,150.99 129.87,151.13 130.00,142.00
             130.14,131.38 131.65,126.07 119.00,126.00
             116.63,125.99 112.28,126.29 110.31,124.98
             106.77,122.62 108.00,109.27 108.00,105.00
             108.00,105.00 108.00,49.00 108.00,49.00
             107.96,47.22 108.00,44.86 106.98,43.31
             104.64,39.81 95.56,40.88 92.00,41.74 Z
           M 187.00,62.11
           C 164.49,67.16 168.97,88.65 169.00,106.00
             169.00,109.03 168.88,112.09 169.85,115.00
             174.89,130.11 187.91,130.00 201.00,130.00
             201.00,130.00 228.00,130.00 228.00,130.00
             228.00,130.00 424.00,130.00 424.00,130.00
             427.53,129.99 430.55,130.06 434.00,129.06
             453.18,123.54 450.02,103.34 450.00,88.00
             449.99,84.11 450.05,80.76 448.75,77.00
             446.65,70.89 441.11,65.35 435.00,63.25
             430.07,61.55 423.27,62.00 418.00,62.11
             418.00,62.11 391.00,62.11 391.00,62.11
             391.00,62.11 256.00,62.11 256.00,62.11
             256.00,62.11 187.00,62.11 187.00,62.11 Z
           M 100.00,217.00
           C 100.00,217.00 72.83,245.04 72.83,245.04
             65.32,253.01 61.14,254.33 61.00,266.00
             61.00,266.00 61.00,289.00 61.00,289.00
             61.01,297.36 60.49,300.87 70.00,301.00
             70.00,301.00 120.00,301.00 120.00,301.00
             122.69,300.99 126.36,301.32 128.49,299.40
             131.70,296.50 132.21,279.61 129.26,276.60
             127.65,274.95 125.13,275.04 123.00,275.00
             123.00,275.00 92.00,274.00 92.00,274.00
             92.00,274.00 118.25,246.43 118.25,246.43
             121.16,243.45 128.61,236.40 129.97,232.91
             131.42,229.20 131.05,218.44 131.00,214.00
             130.96,211.32 130.90,208.55 129.97,206.00
             128.38,201.63 119.32,191.54 115.00,189.89
             112.54,188.95 109.60,189.01 107.00,189.00
             107.00,189.00 71.00,189.00 71.00,189.00
             59.17,189.17 60.95,195.53 61.00,205.00
             61.02,208.17 60.80,212.12 63.43,214.40
             65.92,216.57 71.76,216.00 75.00,216.00
             82.38,216.00 93.12,215.33 100.00,217.00 Z
           M 183.00,212.70
           C 169.75,218.57 169.00,226.24 169.00,239.00
             169.00,239.00 169.00,255.00 169.00,255.00
             169.00,258.02 168.90,261.08 169.80,264.00
             170.69,266.87 172.49,269.66 174.47,271.91
             181.92,280.38 189.91,279.00 200.00,279.00
             200.00,279.00 229.00,279.00 229.00,279.00
             229.00,279.00 426.00,279.00 426.00,279.00
             429.02,279.00 432.08,279.10 435.00,278.20
             452.65,272.75 450.02,252.29 450.00,238.00
             449.99,233.98 449.94,229.87 448.66,226.00
             446.88,220.59 441.38,214.80 436.00,212.88
             432.49,211.62 424.99,212.00 421.00,212.00
             421.00,212.00 391.00,212.00 391.00,212.00
             391.00,212.00 251.00,212.00 251.00,212.00
             251.00,212.00 207.00,212.00 207.00,212.00
             200.66,212.00 188.64,211.43 183.00,212.70 Z
           M 114.00,395.00
           C 123.86,386.19 129.83,389.38 130.00,376.00
             130.04,372.31 130.28,365.34 129.20,362.04
             127.95,358.20 124.73,355.56 122.00,352.75
             115.72,346.29 111.56,340.13 102.00,340.00
             102.00,340.00 72.00,340.00 72.00,340.00
             69.47,340.01 65.64,339.66 63.74,341.60
             61.96,343.42 62.04,346.63 62.00,349.00
             61.89,357.00 59.99,363.81 70.00,364.00
             70.00,364.00 93.00,364.00 93.00,364.00
             99.75,364.01 104.64,363.69 104.92,372.00
             104.92,372.00 104.92,376.98 104.92,376.98
             103.34,386.38 90.52,378.92 85.60,383.74
             83.25,386.04 83.98,394.66 84.16,398.00
             84.01,399.32 83.98,401.72 84.16,402.94
             86.45,410.75 99.04,404.24 103.40,408.60
             106.22,411.42 105.89,422.64 101.85,424.40
             99.96,425.23 94.31,425.00 92.00,425.00
             92.00,425.00 73.00,425.00 73.00,425.00
             70.24,425.00 65.82,424.65 63.74,426.74
             61.35,429.13 61.42,442.82 62.74,445.89
             63.30,447.20 64.01,448.08 65.23,448.83
             67.50,450.22 71.37,450.00 74.00,450.00
             74.00,450.00 99.00,450.00 99.00,450.00
             101.85,450.00 105.33,450.13 108.00,449.11
             111.73,447.69 115.19,443.81 118.00,441.00
             125.17,433.81 129.87,430.68 130.00,420.00
             130.05,415.36 130.72,407.06 127.99,403.34
             125.72,400.24 117.69,396.18 114.00,395.00 Z
           M 185.00,361.53
           C 170.23,366.13 169.00,375.71 169.00,389.00
             169.00,389.00 169.00,405.00 169.00,405.00
             169.00,407.48 168.91,410.63 169.57,413.00
             171.09,418.54 177.56,425.46 183.00,427.30
             185.24,428.06 187.66,427.99 190.00,428.00
             190.00,428.00 229.00,428.00 229.00,428.00
             229.00,428.00 427.00,428.00 427.00,428.00
             429.96,428.00 433.18,428.13 436.00,427.12
             452.84,421.10 450.02,401.04 450.00,387.00
             449.99,382.93 450.05,379.96 448.78,376.00
             443.66,360.01 431.50,361.00 418.00,361.00
             418.00,361.00 391.00,361.00 391.00,361.00
             391.00,361.00 254.00,361.00 254.00,361.00
             254.00,361.00 210.00,361.00 210.00,361.00
             210.00,361.00 185.00,361.53 185.00,361.53 Z" />
</svg>
