<?xml version="1.0" encoding="UTF-8" standalone="no"?>
<!DOCTYPE svg PUBLIC "-//W3C//DTD SVG 20010904//EN"
              "http://www.w3.org/TR/2001/REC-SVG-20010904/DTD/svg10.dtd">

<svg xmlns="http://www.w3.org/2000/svg"
     width="135.486mm" height="135.486mm"
     viewBox="0 0 512 512">
  <path id="Selection"
        d="M 219.00,202.44
           C 201.08,205.91 195.03,219.28 195.00,236.00
             195.00,236.00 193.00,261.00 193.00,261.00
             192.92,267.97 190.26,280.51 194.65,285.78
             197.12,288.73 201.38,289.59 205.00,290.33
             210.56,291.48 227.34,291.01 234.00,291.00
             240.36,290.99 251.38,290.33 254.69,283.96
             256.12,281.19 256.06,277.08 255.99,274.00
             255.99,274.00 255.00,261.00 255.00,261.00
             255.00,261.00 253.00,230.00 253.00,230.00
             252.75,211.27 236.72,200.16 219.00,202.44 Z
           M 295.00,202.44
           C 284.04,204.71 275.46,211.92 272.61,223.00
             272.61,223.00 270.91,243.00 270.91,243.00
             270.91,243.00 269.00,275.00 269.00,275.00
             269.01,278.41 268.74,281.97 270.74,284.94
             273.26,288.69 276.88,289.40 281.00,290.20
             287.95,291.54 302.28,291.01 310.00,291.00
             316.82,290.99 328.57,290.55 331.40,283.00
             332.11,281.10 332.00,278.06 332.00,276.00
             332.00,276.00 332.00,265.00 332.00,265.00
             332.00,265.00 330.00,236.00 330.00,236.00
             329.97,214.47 317.60,199.51 295.00,202.44 Z
           M 146.00,208.61
           C 142.87,209.62 139.71,210.73 137.00,212.65
             126.94,219.77 126.05,228.84 126.00,240.00
             126.00,240.00 124.72,257.00 124.72,257.00
             123.95,263.44 122.12,277.73 126.57,282.66
             131.70,288.35 149.55,287.01 157.00,287.00
             163.21,286.99 174.48,287.02 177.83,280.91
             179.21,278.38 179.00,274.83 179.00,272.00
             179.00,272.00 177.28,237.00 177.28,237.00
             176.76,232.73 176.75,228.08 175.20,224.00
             170.56,211.83 158.40,206.26 146.00,208.61 Z
           M 367.00,208.61
           C 348.53,214.63 348.25,225.38 346.92,242.00
             346.92,242.00 346.00,254.00 346.00,254.00
             346.00,254.00 345.10,275.00 345.10,275.00
             345.41,279.22 347.13,282.80 351.02,284.83
             355.82,287.33 372.04,287.01 378.00,287.00
             390.15,286.98 400.93,287.14 401.00,272.00
             401.00,272.00 399.00,244.00 399.00,244.00
             398.99,235.94 399.34,229.61 395.81,222.00
             390.67,210.90 378.50,206.43 367.00,208.61 Z
           M 86.00,369.00
           C 86.61,355.63 92.78,327.45 97.82,315.00
             103.67,300.56 110.92,300.63 111.00,282.00
             111.00,282.00 110.00,264.00 110.00,264.00
             110.00,264.00 109.09,251.00 109.09,251.00
             108.45,241.72 108.44,234.23 100.91,227.30
             90.06,217.32 71.31,218.95 62.64,231.00
             58.50,236.74 58.01,243.19 58.00,250.00
             57.95,280.86 63.51,311.51 72.56,341.00
             72.56,341.00 79.99,361.00 79.99,361.00
             81.66,365.04 81.69,367.46 86.00,369.00 Z
           M 439.00,370.00
           C 445.55,364.23 449.67,348.52 452.28,340.00
             460.18,314.27 464.26,291.77 466.09,265.00
             466.09,265.00 467.00,254.00 467.00,254.00
             467.04,245.74 466.34,236.89 461.21,230.04
             451.99,217.73 432.19,217.83 422.19,229.02
             414.52,237.59 415.02,249.25 415.00,260.00
             415.00,260.00 413.09,281.00 413.09,281.00
             412.21,296.56 422.18,303.19 427.19,316.00
             433.59,332.38 436.70,352.58 439.00,370.00 Z" />
</svg>
