<?xml version="1.0" encoding="UTF-8" standalone="no"?>
<!DOCTYPE svg PUBLIC "-//W3C//DTD SVG 20010904//EN"
              "http://www.w3.org/TR/2001/REC-SVG-20010904/DTD/svg10.dtd">

<svg xmlns="http://www.w3.org/2000/svg"
     width="135.486mm" height="135.486mm"
     viewBox="0 0 512 512">
  <path id="Selection"
        d="M 226.00,115.00
           C 226.00,115.00 257.00,147.00 257.00,147.00
             257.00,147.00 317.00,207.00 317.00,207.00
             317.00,207.00 344.00,235.00 344.00,235.00
             344.00,235.00 85.00,235.00 85.00,235.00
             85.00,235.00 85.00,277.00 85.00,277.00
             85.00,277.00 344.00,277.00 344.00,277.00
             344.00,277.00 304.00,318.00 304.00,318.00
             304.00,318.00 226.00,396.00 226.00,396.00
             230.36,402.09 242.15,413.19 248.00,419.00
             250.11,421.09 253.68,425.49 257.00,424.66
             259.54,424.03 265.87,417.13 268.00,415.00
             268.00,415.00 294.00,389.00 294.00,389.00
             294.00,389.00 388.00,295.00 388.00,295.00
             388.00,295.00 416.00,267.00 416.00,267.00
             418.21,264.79 424.80,259.07 424.80,256.00
             424.80,252.93 418.21,247.21 416.00,245.00
             416.00,245.00 388.00,217.00 388.00,217.00
             388.00,217.00 294.00,123.00 294.00,123.00
             294.00,123.00 268.00,97.00 268.00,97.00
             265.87,94.87 259.54,87.97 257.00,87.34
             253.68,86.51 250.11,90.91 248.00,93.00
             248.00,93.00 226.00,115.00 226.00,115.00 Z" />
</svg>
