<?xml version="1.0" encoding="UTF-8" standalone="no"?>
<!DOCTYPE svg PUBLIC "-//W3C//DTD SVG 20010904//EN"
              "http://www.w3.org/TR/2001/REC-SVG-20010904/DTD/svg10.dtd">

<svg xmlns="http://www.w3.org/2000/svg"
     width="135.486mm" height="135.486mm"
     viewBox="0 0 512 512">
  <path id="Selection"
        d="M 264.00,255.90
           C 264.00,255.90 248.21,255.90 248.21,255.90
             248.21,255.90 243.12,250.00 243.12,250.00
             243.12,250.00 233.00,233.00 233.00,233.00
             233.00,233.00 251.00,223.46 251.00,223.46
             251.00,223.46 276.00,207.92 276.00,207.92
             276.00,207.92 291.00,198.00 291.00,198.00
             291.00,198.00 304.39,219.36 304.39,219.36
             304.39,219.36 309.00,220.00 309.00,220.00
             309.00,220.00 295.00,194.00 295.00,194.00
             302.22,191.24 311.53,183.64 318.00,178.88
             324.28,174.26 336.50,165.75 341.00,160.00
             346.91,167.26 353.57,181.25 357.78,190.00
             360.95,196.60 363.94,200.43 363.00,208.00
             367.72,207.94 369.19,208.08 373.00,204.85
             375.54,202.71 380.44,196.72 383.58,196.32
             389.48,195.56 391.55,203.42 399.00,200.00
             399.03,203.00 399.38,209.19 400.27,211.93
             401.32,215.14 403.51,215.39 404.39,213.51
             405.47,211.24 402.56,197.44 402.33,194.00
             402.01,189.27 403.92,187.34 404.67,183.00
             406.13,174.62 403.08,177.36 408.00,168.00
             410.60,177.04 411.83,187.60 410.72,197.00
             410.32,200.29 407.82,214.66 408.61,216.67
             410.04,220.33 415.59,221.46 419.00,222.00
             419.00,222.00 422.00,194.00 422.00,194.00
             422.50,151.19 410.85,112.05 384.42,78.00
             379.87,72.14 375.32,66.23 370.00,61.04
             345.84,37.49 314.99,20.66 282.00,13.52
             282.00,13.52 275.00,12.54 275.00,12.54
             267.59,11.20 262.73,10.01 255.00,10.00
             255.00,10.00 232.00,10.00 232.00,10.00
             223.08,10.01 220.12,11.45 212.00,12.71
             174.42,18.51 136.48,39.66 111.17,68.00
             84.78,97.56 66.06,141.03 66.00,181.00
             66.00,181.00 66.00,197.00 66.00,197.00
             66.11,206.10 68.46,219.05 70.50,228.00
             83.60,285.57 125.90,334.76 182.00,354.34
             197.52,359.76 213.55,363.76 230.00,364.94
             233.05,365.13 243.62,366.43 245.59,364.94
             248.39,362.91 245.67,356.95 245.09,354.00
             243.16,344.06 241.88,334.15 242.00,324.00
             242.17,309.51 245.55,293.21 251.54,280.00
             251.54,280.00 264.00,255.90 264.00,255.90 Z
           M 234.00,28.00
           C 234.00,28.00 235.00,33.00 235.00,33.00
             235.00,33.00 220.00,31.00 220.00,31.00
             224.46,25.93 227.83,28.95 234.00,28.00 Z
           M 203.00,29.00
           C 200.25,33.88 195.10,33.78 190.00,33.00
             193.60,30.23 198.56,29.63 203.00,29.00 Z
           M 290.00,34.00
           C 290.00,34.00 284.08,36.84 284.08,36.84
             282.08,38.10 280.02,40.52 277.95,41.21
             272.81,42.93 272.24,37.55 273.00,34.00
             273.00,34.00 290.00,34.00 290.00,34.00 Z
           M 194.00,37.00
           C 190.55,43.02 183.88,41.43 178.00,40.00
             178.00,40.00 194.00,37.00 194.00,37.00 Z
           M 231.00,38.00
           C 231.00,38.00 224.00,44.00 224.00,44.00
             225.99,39.94 226.66,39.29 231.00,38.00 Z
           M 198.00,41.00
           C 198.00,41.00 198.00,42.00 198.00,42.00
             198.00,42.00 197.00,41.00 197.00,41.00
             197.00,41.00 198.00,41.00 198.00,41.00 Z
           M 327.00,42.00
           C 327.00,42.00 327.00,43.00 327.00,43.00
             327.00,43.00 326.00,42.00 326.00,42.00
             326.00,42.00 327.00,42.00 327.00,42.00 Z
           M 222.00,46.00
           C 222.00,46.00 217.00,48.00 217.00,48.00
             214.97,45.06 214.42,45.42 211.00,46.00
             213.93,42.73 218.59,44.02 222.00,46.00 Z
           M 297.00,44.00
           C 297.00,44.00 304.00,53.00 304.00,53.00
             297.99,55.65 296.35,54.30 291.00,51.00
             291.00,51.00 297.00,44.00 297.00,44.00 Z
           M 184.00,45.00
           C 184.00,45.00 175.00,53.00 175.00,53.00
             175.00,53.00 165.00,47.00 165.00,47.00
             169.56,43.64 178.39,45.00 184.00,45.00 Z
           M 332.00,45.00
           C 332.00,45.00 332.00,46.00 332.00,46.00
             332.00,46.00 331.00,45.00 331.00,45.00
             331.00,45.00 332.00,45.00 332.00,45.00 Z
           M 224.00,395.00
           C 224.00,395.00 224.00,449.00 224.00,449.00
             224.00,449.00 168.00,449.00 168.00,449.00
             157.65,449.12 149.19,451.62 143.48,461.00
             139.07,468.23 140.00,475.88 140.00,484.00
             140.00,484.00 335.00,484.00 335.00,484.00
             336.99,484.00 340.81,484.23 342.40,482.98
             344.44,481.37 344.05,476.41 343.99,474.00
             343.77,465.37 339.43,457.18 331.91,452.74
             326.23,449.37 319.46,449.01 313.00,449.00
             313.00,449.00 268.00,449.00 268.00,449.00
             260.78,448.99 258.15,449.15 258.00,441.00
             258.00,441.00 258.00,395.00 258.00,395.00
             258.00,395.00 263.00,394.00 263.00,394.00
             263.00,394.00 251.00,371.00 251.00,371.00
             251.00,371.00 236.00,371.00 236.00,371.00
             227.51,370.99 227.48,370.22 220.00,369.29
             220.00,369.29 213.00,368.70 213.00,368.70
             199.73,366.78 180.31,360.58 168.00,355.14
             113.13,330.90 70.51,279.21 59.39,220.00
             57.72,211.12 56.11,202.06 56.00,193.00
             55.62,160.40 58.81,133.85 73.26,104.00
             79.26,91.60 83.17,85.28 90.98,74.00
             94.00,69.63 99.83,63.08 100.44,58.00
             102.09,44.31 85.65,39.98 76.67,51.02
             59.98,71.51 47.59,96.94 39.59,122.00
             35.52,134.74 31.02,161.71 31.04,175.00
             31.04,175.00 31.04,196.00 31.04,196.00
             31.04,196.00 32.83,210.00 32.83,210.00
             32.83,210.00 33.46,218.00 33.46,218.00
             41.12,261.25 61.18,301.60 92.26,332.74
             92.26,332.74 100.00,340.83 100.00,340.83
             132.85,370.70 179.65,391.40 224.00,395.00 Z
           M 195.00,50.00
           C 195.00,50.00 215.00,52.00 215.00,52.00
             215.00,52.00 211.00,57.00 211.00,57.00
             203.91,57.39 206.16,63.69 197.01,67.48
             195.65,67.88 194.72,68.12 193.28,67.48
             190.33,66.59 181.04,57.71 179.00,55.00
             181.63,52.98 190.19,45.34 193.41,47.15
             194.58,47.81 194.62,48.94 195.00,50.00 Z
           M 281.00,52.00
           C 279.13,55.51 278.74,55.68 275.00,57.00
             275.00,57.00 275.00,52.00 275.00,52.00
             275.00,52.00 271.00,53.00 271.00,53.00
             271.00,53.00 271.00,49.00 271.00,49.00
             271.00,49.00 281.00,52.00 281.00,52.00 Z
           M 170.00,55.00
           C 166.17,59.14 162.48,61.59 157.00,63.00
             155.88,56.73 154.76,46.54 165.00,51.76
             165.00,51.76 170.00,55.00 170.00,55.00 Z
           M 260.00,55.00
           C 255.03,58.98 248.11,59.00 242.00,59.00
             245.27,56.88 255.88,55.20 260.00,55.00 Z
           M 261.00,56.00
           C 261.00,56.00 261.00,57.00 261.00,57.00
             261.00,57.00 260.00,56.00 260.00,56.00
             260.00,56.00 261.00,56.00 261.00,56.00 Z
           M 294.00,59.00
           C 285.44,65.20 277.70,60.15 282.00,72.00
             279.69,72.92 270.72,77.33 269.34,73.69
             268.38,71.18 273.36,67.55 275.00,66.13
             285.67,56.88 285.69,54.51 294.00,59.00 Z
           M 274.00,59.00
           C 269.00,65.98 267.82,65.85 261.00,70.00
             261.00,70.00 252.00,65.00 252.00,65.00
             256.13,63.04 257.24,63.80 261.00,66.00
             261.00,66.00 260.00,59.00 260.00,59.00
             266.03,55.90 266.52,58.33 274.00,59.00 Z
           M 344.00,71.00
           C 344.00,71.00 312.00,59.00 312.00,59.00
             318.52,56.84 328.93,63.08 335.00,65.46
             338.86,66.98 342.39,66.99 344.00,71.00 Z
           M 190.00,73.00
           C 190.00,73.00 163.00,89.00 163.00,89.00
             163.00,89.00 158.00,71.00 158.00,71.00
             164.00,71.53 165.99,70.46 171.00,67.10
             173.23,65.61 176.24,62.67 179.00,62.82
             181.65,62.97 185.16,66.16 186.86,68.04
             188.59,69.94 188.94,70.77 190.00,73.00 Z
           M 257.00,75.00
           C 257.00,75.00 254.00,76.00 254.00,76.00
             250.18,74.32 247.94,76.98 245.00,79.44
             238.40,84.96 234.10,92.14 227.00,97.00
             226.91,89.50 225.52,88.98 225.19,86.00
             225.14,80.73 228.19,82.25 225.19,76.00
             232.64,71.80 231.61,68.43 235.24,66.54
             241.64,63.21 252.90,70.35 257.00,75.00 Z
           M 161.00,67.00
           C 161.00,67.00 161.00,68.00 161.00,68.00
             161.00,68.00 160.00,67.00 160.00,67.00
             160.00,67.00 161.00,67.00 161.00,67.00 Z
           M 203.00,69.00
           C 203.00,69.00 203.00,78.00 203.00,78.00
             203.00,78.00 197.00,73.00 197.00,73.00
             197.00,73.00 203.00,69.00 203.00,69.00 Z
           M 355.00,70.00
           C 357.73,72.85 357.64,73.13 357.00,77.00
             357.00,77.00 351.00,75.00 351.00,75.00
             351.00,75.00 355.00,70.00 355.00,70.00 Z
           M 154.00,71.00
           C 154.00,71.00 157.69,90.79 157.69,90.79
             157.69,90.79 151.00,95.86 151.00,95.86
             151.00,95.86 135.00,104.00 135.00,104.00
             135.02,98.98 137.15,82.99 139.85,79.26
             141.97,76.34 150.48,72.29 154.00,71.00 Z
           M 349.00,73.00
           C 349.00,73.00 349.00,74.00 349.00,74.00
             349.00,74.00 348.00,73.00 348.00,73.00
             348.00,73.00 349.00,73.00 349.00,73.00 Z
           M 194.00,75.00
           C 196.90,78.23 197.78,78.59 198.00,83.00
             203.86,83.47 204.18,84.78 208.00,89.00
             206.18,91.21 200.91,95.83 200.34,97.92
             199.44,101.17 206.46,107.32 209.00,109.00
             209.00,109.00 192.00,120.20 192.00,120.20
             192.00,120.20 177.00,128.00 177.00,128.00
             177.00,128.00 168.22,105.00 168.22,105.00
             168.22,105.00 165.78,94.13 165.78,94.13
             165.78,94.13 173.00,87.90 173.00,87.90
             173.00,87.90 194.00,75.00 194.00,75.00 Z
           M 264.00,78.00
           C 264.00,78.00 260.00,79.00 260.00,79.00
             260.00,79.00 264.00,78.00 264.00,78.00 Z
           M 260.00,79.00
           C 260.00,79.00 260.00,80.00 260.00,80.00
             260.00,80.00 259.00,79.00 259.00,79.00
             259.00,79.00 260.00,79.00 260.00,79.00 Z
           M 213.00,87.00
           C 208.84,85.01 207.99,84.16 206.00,80.00
             211.94,80.08 214.74,80.11 213.00,87.00 Z
           M 374.00,88.00
           C 376.68,92.01 385.64,102.64 385.36,107.00
             385.24,108.89 383.85,111.30 383.00,113.00
             381.05,112.37 380.30,112.34 378.80,110.69
             376.23,107.86 376.46,105.29 375.60,102.00
             374.15,96.43 371.55,94.18 374.00,88.00 Z
           M 133.00,90.00
           C 133.00,90.00 131.29,99.00 131.29,99.00
             130.18,107.09 130.02,108.58 121.00,110.00
             123.43,100.84 122.71,94.07 133.00,90.00 Z
           M 161.00,96.00
           C 161.00,96.00 168.61,118.00 168.61,118.00
             169.65,120.64 172.56,126.40 172.36,128.96
             172.06,132.79 167.03,135.03 164.00,136.53
             154.89,141.00 144.84,147.92 135.00,150.00
             135.00,150.00 134.00,131.00 134.00,131.00
             134.00,131.00 134.00,117.00 134.00,117.00
             134.00,117.00 134.99,109.63 134.99,109.63
             134.99,109.63 143.00,104.64 143.00,104.64
             143.00,104.64 161.00,96.00 161.00,96.00 Z
           M 221.00,108.00
           C 222.66,117.09 226.40,127.84 224.77,137.00
             224.08,140.91 222.07,142.42 221.50,145.00
             220.48,149.54 226.75,158.75 229.00,163.00
             229.00,163.00 201.00,179.00 201.00,179.00
             196.15,169.59 181.38,140.81 180.00,132.00
             180.00,132.00 203.00,118.17 203.00,118.17
             203.00,118.17 221.00,108.00 221.00,108.00 Z
           M 129.08,112.00
           C 129.08,112.00 129.08,132.00 129.08,132.00
             129.08,132.00 130.84,149.95 130.84,149.95
             130.33,153.55 128.01,154.37 125.00,155.71
             125.00,155.71 106.00,163.00 106.00,163.00
             107.02,156.77 109.42,156.00 115.00,154.00
             115.00,154.00 115.00,152.00 115.00,152.00
             110.66,150.32 110.60,150.20 106.00,151.00
             106.00,151.00 109.51,129.00 109.51,129.00
             109.51,129.00 112.00,118.00 112.00,118.00
             112.00,118.00 129.08,112.00 129.08,112.00 Z
           M 391.00,112.00
           C 394.05,121.64 401.34,128.78 405.66,149.00
             406.85,154.57 408.57,161.25 403.00,165.00
             402.59,161.94 401.92,156.74 400.78,154.00
             399.40,150.70 397.09,148.51 396.30,145.00
             395.44,141.15 396.93,136.97 394.52,131.00
             390.24,120.41 383.98,122.24 389.00,112.00
             389.00,112.00 391.00,112.00 391.00,112.00 Z
           M 94.00,116.00
           C 94.00,116.00 94.00,117.00 94.00,117.00
             94.00,117.00 93.00,116.00 93.00,116.00
             93.00,116.00 94.00,116.00 94.00,116.00 Z
           M 107.00,120.00
           C 107.00,120.00 103.89,135.00 103.89,135.00
             103.44,136.97 102.96,141.23 101.98,142.70
             99.09,147.07 92.89,145.79 89.00,144.00
             89.00,144.00 96.00,122.00 96.00,122.00
             96.00,122.00 107.00,120.00 107.00,120.00 Z
           M 91.00,123.00
           C 91.00,123.00 91.00,124.00 91.00,124.00
             91.00,124.00 90.00,123.00 90.00,123.00
             90.00,123.00 91.00,123.00 91.00,123.00 Z
           M 90.00,125.00
           C 90.00,125.00 90.00,126.00 90.00,126.00
             90.00,126.00 89.00,125.00 89.00,125.00
             89.00,125.00 90.00,125.00 90.00,125.00 Z
           M 176.00,135.00
           C 176.00,135.00 189.26,165.00 189.26,165.00
             189.26,165.00 197.00,182.00 197.00,182.00
             187.59,187.58 158.35,203.80 149.00,206.00
             142.29,190.06 139.19,171.93 136.00,155.00
             136.00,155.00 176.00,135.00 176.00,135.00 Z
           M 86.00,136.00
           C 86.00,136.00 86.00,137.00 86.00,137.00
             86.00,137.00 85.00,136.00 85.00,136.00
             85.00,136.00 86.00,136.00 86.00,136.00 Z
           M 337.00,158.00
           C 337.00,158.00 307.09,181.14 307.09,181.14
             307.09,181.14 291.00,191.00 291.00,191.00
             291.00,191.00 282.00,177.00 282.00,177.00
             282.00,177.00 291.04,166.00 291.04,166.00
             294.02,161.45 298.61,151.58 303.43,149.04
             305.71,147.84 307.33,148.99 310.00,147.99
             312.90,146.90 315.56,143.38 318.96,144.01
             322.86,144.74 324.35,150.10 326.63,152.79
             329.50,156.15 333.06,156.66 337.00,158.00 Z
           M 101.00,156.00
           C 100.39,163.18 99.52,165.19 92.00,166.00
             92.00,166.00 101.00,156.00 101.00,156.00 Z
           M 132.00,158.00
           C 132.00,158.00 145.00,209.00 145.00,209.00
             145.00,209.00 112.00,221.00 112.00,221.00
             106.36,192.95 106.00,196.22 106.00,167.00
             106.00,167.00 132.00,158.00 132.00,158.00 Z
           M 233.00,167.00
           C 239.91,178.70 251.08,181.86 264.00,180.91
             269.78,180.49 274.13,178.03 276.83,178.78
             280.45,179.79 288.21,191.08 286.19,194.70
             284.86,197.10 277.60,201.30 275.00,203.00
             275.00,203.00 245.00,221.80 245.00,221.80
             242.26,223.44 233.92,229.02 231.10,228.77
             228.55,228.54 227.32,225.92 226.14,223.99
             226.14,223.99 216.72,208.00 216.72,208.00
             216.72,208.00 207.97,192.00 207.97,192.00
             206.90,190.01 204.44,186.44 204.87,184.18
             205.40,181.46 209.80,179.43 212.00,178.10
             218.63,174.11 225.40,168.81 233.00,167.00 Z
           M 353.00,167.00
           C 353.00,167.00 353.00,168.00 353.00,168.00
             353.00,168.00 352.00,167.00 352.00,167.00
             352.00,167.00 353.00,167.00 353.00,167.00 Z
           M 354.00,168.00
           C 360.80,176.78 367.87,185.47 377.00,192.00
             374.76,196.73 372.73,198.76 368.00,201.00
             368.00,201.00 359.22,181.00 359.22,181.00
             359.22,181.00 354.00,168.00 354.00,168.00 Z
           M 101.00,169.00
           C 101.00,188.26 103.80,204.35 108.00,223.00
             108.00,223.00 91.00,227.00 91.00,227.00
             87.30,219.01 90.19,219.08 89.79,212.00
             89.79,212.00 88.72,204.00 88.72,204.00
             88.72,204.00 91.76,182.72 91.76,182.72
             92.29,181.02 93.16,179.55 94.00,178.00
             99.91,176.56 98.96,173.72 101.00,169.00 Z
           M 200.00,186.00
           C 200.00,186.00 214.86,213.00 214.86,213.00
             214.86,213.00 226.00,233.00 226.00,233.00
             226.00,233.00 185.00,254.26 185.00,254.26
             185.00,254.26 172.00,257.00 172.00,257.00
             165.97,245.71 153.77,222.79 151.00,211.00
             151.00,211.00 179.00,196.69 179.00,196.69
             179.00,196.69 200.00,186.00 200.00,186.00 Z
           M 147.00,213.00
           C 147.00,213.00 168.00,259.00 168.00,259.00
             168.00,259.00 163.00,259.00 163.00,259.00
             163.00,259.00 164.00,264.00 164.00,264.00
             164.00,264.00 162.00,261.00 162.00,261.00
             162.00,261.00 159.00,261.00 159.00,261.00
             156.95,268.80 153.05,268.90 146.00,271.00
             142.60,266.00 141.53,262.94 135.00,264.00
             135.00,264.00 129.00,253.00 129.00,253.00
             129.00,253.00 128.00,263.00 128.00,263.00
             124.26,257.32 118.65,246.75 120.00,240.00
             115.26,236.67 114.27,230.49 114.00,225.00
             114.00,225.00 147.00,213.00 147.00,213.00 Z
           M 350.00,218.43
           C 335.58,220.79 327.60,222.16 314.00,228.31
             287.53,240.29 267.44,263.81 257.86,291.00
             254.55,300.42 252.01,316.01 252.00,326.00
             251.93,373.97 282.57,416.85 329.00,430.42
             336.49,432.61 347.23,434.91 355.00,434.95
             355.00,434.95 369.00,434.95 369.00,434.95
             371.51,434.76 374.24,433.89 376.37,435.64
             377.65,436.69 383.99,448.67 385.22,451.00
             385.22,451.00 404.78,489.00 404.78,489.00
             410.21,499.40 414.69,508.66 428.00,508.99
             436.30,509.19 437.73,508.21 445.00,504.59
             449.68,502.25 453.17,500.84 456.90,496.96
             469.44,483.88 460.82,470.73 454.26,458.00
             454.26,458.00 440.88,432.00 440.88,432.00
             440.88,432.00 433.58,418.00 433.58,418.00
             432.59,415.93 431.00,413.36 431.58,411.00
             432.26,408.21 436.51,404.66 438.58,402.58
             443.25,397.87 445.95,394.45 449.66,389.00
             460.86,372.54 468.97,351.12 469.00,331.00
             469.00,331.00 469.00,319.00 469.00,319.00
             468.85,306.24 462.66,287.37 456.84,276.00
             441.62,246.26 414.28,227.19 382.00,220.34
             371.55,218.12 360.66,217.11 350.00,218.43 Z
           M 109.00,227.00
           C 109.00,227.00 112.96,242.83 112.96,242.83
             112.96,242.83 116.29,248.09 116.29,248.09
             116.29,248.09 122.95,263.00 122.95,263.00
             122.95,263.00 130.00,276.00 130.00,276.00
             125.73,278.07 112.80,281.47 108.39,279.43
             105.76,278.21 102.79,271.66 101.42,269.00
             97.13,260.64 89.50,243.12 89.00,234.00
             89.00,234.00 95.00,237.00 95.00,237.00
             95.00,237.00 93.00,230.00 93.00,230.00
             93.00,230.00 109.00,227.00 109.00,227.00 Z
           M 89.00,233.00
           C 89.00,233.00 89.00,234.00 89.00,234.00
             89.00,234.00 88.00,233.00 88.00,233.00
             88.00,233.00 89.00,233.00 89.00,233.00 Z
           M 243.00,259.00
           C 239.44,259.30 233.14,260.33 230.10,262.14
             227.47,263.70 226.24,266.17 224.63,266.84
             219.49,268.98 219.37,259.92 212.96,256.04
             206.46,252.20 199.78,255.04 193.00,256.04
             196.42,252.73 213.47,244.54 219.00,241.42
             221.41,240.06 226.00,237.10 228.79,238.23
             230.77,239.04 232.56,242.25 233.73,244.00
             236.89,248.75 240.51,253.91 243.00,259.00 Z
           M 356.00,245.29
           C 363.90,244.55 376.32,246.77 384.00,249.00
             394.07,251.92 402.66,256.40 411.00,262.75
             418.61,268.53 424.06,274.99 429.12,283.00
             453.26,321.24 442.27,370.97 404.00,395.31
             394.64,401.26 384.01,405.23 373.00,406.71
             360.03,408.46 346.47,407.90 334.00,403.46
             308.70,394.46 289.98,374.81 282.58,349.00
             280.91,343.17 280.08,341.23 280.00,335.00
             280.00,335.00 280.00,318.00 280.00,318.00
             280.20,301.29 291.58,280.71 303.04,269.01
             318.73,253.00 334.78,248.53 356.00,245.29 Z
           M 322.00,319.00
           C 329.78,321.83 329.86,320.14 335.78,309.00
             335.78,309.00 354.42,276.00 354.42,276.00
             356.14,273.03 362.05,264.16 361.77,261.11
             361.50,258.25 358.20,256.77 355.80,258.33
             353.78,259.64 350.35,266.64 349.07,269.00
             349.07,269.00 344.14,278.00 344.14,278.00
             344.14,278.00 334.42,295.00 334.42,295.00
             330.84,301.26 323.90,312.51 322.00,319.00 Z
           M 140.00,274.00
           C 140.00,274.00 134.00,275.00 134.00,275.00
             134.00,275.00 132.00,271.00 132.00,271.00
             132.00,271.00 133.00,270.00 133.00,270.00
             136.41,271.04 137.91,270.97 140.00,274.00 Z
           M 155.00,274.00
           C 155.00,274.00 155.00,275.00 155.00,275.00
             155.00,275.00 154.00,274.00 154.00,274.00
             154.00,274.00 155.00,274.00 155.00,274.00 Z
           M 156.00,275.00
           C 166.47,284.59 161.01,287.58 166.80,296.00
             171.39,302.67 181.32,309.41 184.00,314.00
             180.12,314.91 172.55,318.18 169.00,317.23
             165.39,316.27 159.91,309.90 157.43,307.00
             150.25,298.62 141.86,288.93 137.00,279.00
             144.62,275.98 146.11,275.04 154.00,278.00
             154.00,278.00 156.00,275.00 156.00,275.00 Z
           M 164.00,320.00
           C 159.84,321.20 150.03,323.21 146.00,321.90
             142.49,320.76 136.84,315.73 134.09,313.16
             125.62,305.24 116.32,295.34 111.00,285.00
             111.00,285.00 131.79,281.69 131.79,281.69
             131.79,281.69 141.75,294.00 141.75,294.00
             141.75,294.00 154.09,309.00 154.09,309.00
             154.09,309.00 164.00,320.00 164.00,320.00 Z
           M 225.00,343.00
           C 225.00,343.00 215.00,345.49 215.00,345.49
             210.40,346.08 206.94,343.45 203.00,341.42
             195.38,337.51 178.08,328.09 174.00,321.00
             178.54,319.96 186.38,316.55 190.00,316.62
             192.50,316.67 195.55,317.87 198.00,318.57
             200.89,319.40 204.37,320.06 207.00,321.44
             213.11,324.64 222.48,336.57 225.00,343.00 Z
           M 364.00,319.00
           C 364.00,319.00 336.66,366.00 336.66,366.00
             334.59,369.45 326.73,379.81 332.17,382.77
             337.12,385.47 341.90,373.31 343.81,370.00
             343.81,370.00 362.26,337.00 362.26,337.00
             365.18,331.50 368.11,328.10 370.00,322.00
             370.00,322.00 364.00,319.00 364.00,319.00 Z
           M 416.00,320.00
           C 416.00,320.00 389.77,367.00 389.77,367.00
             387.92,370.44 381.12,379.11 383.70,382.57
             388.72,389.31 394.38,375.14 396.15,372.00
             396.15,372.00 412.60,343.00 412.60,343.00
             416.42,336.56 421.20,329.57 422.00,322.00
             422.00,322.00 416.00,320.00 416.00,320.00 Z
           M 205.00,348.00
           C 199.28,349.35 194.39,346.88 189.00,344.95
             177.73,340.91 162.12,334.65 153.00,327.00
             156.24,325.86 165.87,323.69 169.00,324.62
             169.00,324.62 189.28,338.57 189.28,338.57
             189.28,338.57 205.00,348.00 205.00,348.00 Z
           M 234.00,351.00
           C 229.80,352.39 225.85,350.82 222.00,349.00
             227.73,344.95 229.26,347.07 234.00,351.00 Z
           M 206.00,348.00
           C 206.00,348.00 206.00,349.00 206.00,349.00
             206.00,349.00 205.00,348.00 205.00,348.00
             205.00,348.00 206.00,348.00 206.00,348.00 Z
           M 235.00,352.00
           C 235.00,352.00 235.00,353.00 235.00,353.00
             235.00,353.00 234.00,352.00 234.00,352.00
             234.00,352.00 235.00,352.00 235.00,352.00 Z" />
</svg>
