<?xml version="1.0" encoding="UTF-8" standalone="no"?>
<!DOCTYPE svg PUBLIC "-//W3C//DTD SVG 20010904//EN"
              "http://www.w3.org/TR/2001/REC-SVG-20010904/DTD/svg10.dtd">

<svg xmlns="http://www.w3.org/2000/svg"
     width="5.68889in" height="5.68889in"
     viewBox="0 0 512 512">
  <path id="Selection"
        d="M 352.00,509.84
           C 354.87,513.20 359.78,512.21 362.91,509.84
             367.70,505.83 375.43,493.70 378.52,488.00
             383.49,478.86 386.08,470.04 388.41,460.00
             389.55,455.06 388.32,451.21 390.02,448.17
             391.46,445.60 399.26,440.10 402.00,437.71
             407.14,433.24 417.92,422.29 422.20,417.00
             425.27,413.20 432.51,401.89 436.04,400.22
             438.96,398.84 444.60,399.27 448.00,398.63
             448.00,398.63 458.00,396.22 458.00,396.22
             464.78,394.26 482.75,385.95 486.19,379.91
             487.16,377.69 486.95,375.36 486.19,373.00
             483.62,361.00 479.42,350.27 472.48,340.00
             469.33,335.34 460.70,327.17 459.80,324.00
             458.71,321.39 459.91,316.15 459.80,313.00
             459.80,313.00 458.68,292.00 458.68,292.00
             454.54,266.44 444.41,242.32 427.71,222.42
             409.07,200.23 382.26,185.08 354.00,179.22
             345.98,177.55 331.38,176.91 323.00,177.00
             293.42,177.35 264.36,192.09 245.87,215.09
             217.11,250.87 214.31,309.64 252.00,340.54
             259.07,346.34 264.58,349.34 273.00,352.64
             280.37,355.53 289.06,357.90 297.00,358.00
             309.46,358.14 318.72,356.97 330.00,351.06
             334.10,348.90 339.35,345.94 340.34,341.00
             341.41,335.66 337.33,331.65 332.00,332.23
             325.23,332.96 321.67,337.94 310.00,338.00
             294.31,338.07 279.50,330.94 269.30,319.00
             241.13,286.01 265.34,236.02 304.00,225.63
             309.73,224.09 310.84,223.09 317.00,223.00
             356.44,222.48 391.57,249.92 399.09,289.00
             400.20,294.73 400.92,294.62 401.00,301.00
             401.14,312.55 400.71,308.92 398.92,319.00
             391.39,361.59 360.75,395.98 318.00,405.42
             311.94,406.76 308.38,407.92 302.00,408.00
             302.00,408.00 288.00,408.00 288.00,408.00
             277.98,407.88 257.56,402.83 248.00,399.19
             228.22,391.67 212.36,381.56 197.01,366.91
             176.89,347.70 164.52,321.76 158.50,295.00
             156.82,287.52 156.01,284.89 156.00,277.00
             156.00,277.00 156.00,258.00 156.00,258.00
             156.02,248.09 159.29,233.68 161.92,224.00
             169.23,197.04 182.33,171.12 202.04,151.01
             232.63,119.81 275.84,109.93 318.00,110.00
             327.48,110.01 336.77,111.55 346.00,113.58
             391.33,123.53 431.60,151.33 456.19,191.00
             463.23,202.37 469.39,214.40 473.91,227.00
             473.91,227.00 481.00,247.69 481.00,247.69
             483.26,250.48 488.85,250.87 490.98,247.69
             492.21,245.84 492.00,242.19 492.00,240.00
             492.00,240.00 492.00,232.00 492.00,232.00
             491.68,204.94 481.12,172.19 467.40,149.00
             461.96,139.82 455.55,130.62 448.71,122.42
             446.42,119.69 438.00,110.43 437.08,108.00
             437.08,108.00 437.98,93.00 437.98,93.00
             437.81,86.53 434.15,71.22 431.65,65.00
             430.52,62.17 428.20,56.82 425.61,55.17
             423.14,53.60 417.02,53.97 414.00,54.00
             405.58,54.10 392.88,57.34 385.00,60.46
             381.88,61.70 375.50,65.53 373.00,65.78
             369.96,66.08 359.60,61.68 356.00,60.52
             356.00,60.52 327.05,53.28 327.05,53.28
             322.56,51.30 319.01,40.71 316.20,36.00
             309.33,24.49 301.67,15.76 290.99,7.63
             287.61,5.06 282.20,0.82 278.00,0.24
             271.85,-0.62 266.34,4.56 262.00,8.28
             250.95,17.78 240.98,28.77 234.63,42.00
             232.85,45.68 229.00,57.17 226.58,59.16
             224.59,60.80 216.98,62.93 214.00,64.14
             214.00,64.14 188.00,76.18 188.00,76.18
             184.40,78.13 175.42,84.28 172.00,84.40
             172.00,84.40 159.00,81.01 159.00,81.01
             151.34,79.35 134.53,76.75 127.00,77.04
             113.03,77.58 99.42,79.96 86.00,83.86
             82.55,84.86 72.90,87.74 70.99,90.56
             68.58,94.13 69.94,107.44 70.00,112.00
             70.00,112.00 70.00,120.00 70.00,120.00
             70.14,131.77 76.21,154.08 80.87,165.00
             80.87,165.00 94.07,190.00 94.07,190.00
             95.18,193.75 92.19,200.11 91.15,204.00
             91.15,204.00 85.09,230.00 85.09,230.00
             85.09,230.00 83.26,241.90 83.26,241.90
             81.75,245.47 67.98,253.01 64.00,256.04
             48.62,267.74 35.22,284.74 26.59,302.00
             24.36,306.46 19.07,316.12 20.64,321.00
             21.90,324.93 30.72,333.06 34.09,336.13
             49.51,350.22 65.46,359.31 85.00,366.41
             91.08,368.62 106.79,371.03 110.39,375.14
             110.39,375.14 129.25,402.00 129.25,402.00
             131.48,404.70 137.40,410.78 137.81,414.00
             137.81,414.00 134.29,432.00 134.29,432.00
             131.73,448.64 133.21,455.92 135.86,472.00
             136.61,476.58 138.81,487.24 141.85,490.57
             144.89,493.90 151.91,493.20 156.00,492.56
             168.26,490.65 177.85,490.13 190.00,486.25
             197.34,483.91 206.25,480.14 213.00,476.46
             216.04,474.80 223.41,469.83 226.00,469.30
             229.83,468.52 241.12,472.50 246.00,473.39
             246.00,473.39 267.00,476.83 267.00,476.83
             267.00,476.83 284.00,477.72 284.00,477.72
             287.23,478.10 294.63,477.70 296.83,478.60
             299.87,479.84 304.89,486.75 308.04,489.57
             317.75,498.27 323.20,500.74 334.58,506.07
             340.09,508.66 345.87,511.19 352.00,509.84 Z" />
</svg>
