<?xml version="1.0" encoding="UTF-8" standalone="no"?>
<!DOCTYPE svg PUBLIC "-//W3C//DTD SVG 20010904//EN"
              "http://www.w3.org/TR/2001/REC-SVG-20010904/DTD/svg10.dtd">

<svg xmlns="http://www.w3.org/2000/svg"
     width="135.486mm" height="135.486mm"
     viewBox="0 0 512 512">
  <path id="Selection"
        d="M 43.00,268.00
           C 43.00,268.00 43.00,266.00 43.00,266.00
             43.00,266.00 45.00,267.00 45.00,267.00
             45.00,267.00 59.73,255.42 59.73,255.42
             59.73,255.42 92.00,227.73 92.00,227.73
             92.00,227.73 200.00,135.00 200.00,135.00
             200.00,135.00 238.27,102.42 238.27,102.42
             238.27,102.42 257.00,85.00 257.00,85.00
             257.00,85.00 259.00,85.00 259.00,85.00
             262.07,90.65 269.22,95.57 274.00,100.02
             274.00,100.02 309.99,132.28 309.99,132.28
             309.99,132.28 342.00,161.84 342.00,161.84
             342.00,161.84 385.92,201.29 385.92,201.29
             385.92,201.29 419.00,231.58 419.00,231.58
             419.00,231.58 447.92,257.88 447.92,257.88
             455.59,263.54 468.68,269.71 478.28,269.83
             485.42,269.92 491.34,268.08 496.96,263.47
             499.47,261.41 502.24,258.51 500.87,255.00
             499.61,251.77 490.09,243.99 487.00,241.01
             487.00,241.01 448.00,205.02 448.00,205.02
             448.00,205.02 341.72,107.32 341.72,107.32
             341.72,107.32 335.09,101.86 335.09,101.86
             335.09,101.86 319.83,87.42 319.83,87.42
             319.83,87.42 296.00,65.83 296.00,65.83
             296.00,65.83 279.72,50.45 279.72,50.45
             273.31,44.75 265.07,38.92 260.00,32.00
             252.90,33.77 247.50,40.94 241.92,45.53
             241.92,45.53 198.00,84.58 198.00,84.58
             198.00,84.58 70.00,198.72 70.00,198.72
             70.00,198.72 25.00,239.00 25.00,239.00
             22.06,241.68 8.68,252.84 7.45,255.10
             5.48,258.72 7.38,261.28 10.06,263.79
             14.72,268.17 22.56,271.29 29.00,270.82
             29.00,270.82 43.00,268.00 43.00,268.00 Z
           M 394.00,83.00
           C 394.00,83.00 394.00,136.00 394.00,136.00
             394.02,147.44 398.66,148.38 407.00,155.42
             407.00,155.42 429.00,174.13 429.00,174.13
             433.79,178.26 437.90,183.04 444.00,185.00
             444.00,185.00 445.00,151.00 445.00,151.00
             445.00,151.00 445.00,83.00 445.00,83.00
             445.00,83.00 394.00,83.00 394.00,83.00 Z
           M 255.17,116.88
           C 251.37,118.86 243.75,125.95 240.00,129.08
             240.00,129.08 209.73,154.58 209.73,154.58
             209.73,154.58 115.00,235.13 115.00,235.13
             115.00,235.13 86.00,259.42 86.00,259.42
             77.83,266.12 73.02,267.25 73.00,278.00
             73.00,278.00 73.00,464.00 73.00,464.00
             73.00,466.80 72.79,470.40 74.17,472.90
             78.26,480.26 95.51,478.00 103.00,478.00
             103.00,478.00 201.00,478.00 201.00,478.00
             202.99,478.00 206.81,478.23 208.40,476.98
             210.10,475.63 209.96,472.95 210.00,471.00
             210.00,471.00 210.00,454.00 210.00,454.00
             210.00,454.00 210.00,376.00 210.00,376.00
             210.01,369.72 210.06,363.80 216.04,360.01
             220.49,357.19 228.73,358.00 234.00,358.00
             234.00,358.00 273.00,358.00 273.00,358.00
             288.57,358.02 292.98,363.83 293.00,379.00
             293.00,379.00 293.00,471.00 293.00,471.00
             293.04,472.95 292.90,475.63 294.60,476.98
             296.08,478.15 299.18,477.99 301.00,478.00
             301.00,478.00 320.00,478.00 320.00,478.00
             320.00,478.00 409.00,478.00 409.00,478.00
             424.96,477.98 429.97,474.46 430.00,458.00
             430.00,458.00 430.00,359.00 430.00,359.00
             430.00,359.00 430.00,279.00 430.00,279.00
             429.99,276.37 430.19,273.40 428.98,271.00
             427.42,267.93 423.58,265.14 421.00,262.84
             421.00,262.84 402.00,245.93 402.00,245.93
             402.00,245.93 316.07,168.54 316.07,168.54
             316.07,168.54 273.00,129.84 273.00,129.84
             268.57,125.88 261.09,116.93 255.17,116.88 Z" />
</svg>
