<?xml version="1.0" encoding="UTF-8" standalone="no"?>
<!DOCTYPE svg PUBLIC "-//W3C//DTD SVG 20010904//EN"
              "http://www.w3.org/TR/2001/REC-SVG-20010904/DTD/svg10.dtd">

<svg xmlns="http://www.w3.org/2000/svg"
     width="135.486mm" height="135.486mm"
     viewBox="0 0 512 512">
  <path id="Selection"
        d="M 63.00,156.00
           C 33.64,158.38 16.04,179.03 16.00,208.00
             16.00,208.00 16.00,329.00 16.00,329.00
             16.00,332.59 16.01,337.61 16.74,341.09
             20.13,357.34 32.33,371.86 48.00,377.46
             52.79,379.17 57.92,380.52 63.00,380.00
             63.00,380.00 63.00,450.00 63.00,450.00
             63.01,459.44 65.79,472.85 70.95,480.83
             72.99,483.99 75.76,486.57 78.32,489.28
             82.87,494.10 87.72,497.81 94.00,500.19
             105.85,504.70 106.66,503.02 118.00,503.00
             118.00,503.00 394.00,503.00 394.00,503.00
             403.09,503.01 404.63,504.64 414.04,501.62
             417.97,500.36 423.92,497.64 427.28,495.26
             431.27,492.44 432.05,491.17 435.07,487.57
             449.30,470.64 449.00,457.71 449.00,437.00
             449.00,437.00 449.00,410.00 449.00,410.00
             449.00,410.00 449.00,380.00 449.00,380.00
             452.98,380.36 454.20,379.83 458.00,379.09
             479.74,374.85 495.96,353.91 496.00,332.00
             496.00,332.00 496.00,208.00 496.00,208.00
             495.99,202.65 495.92,197.21 494.51,192.00
             488.80,170.85 470.22,157.72 449.00,156.00
             449.00,156.00 449.00,61.00 449.00,61.00
             448.95,31.83 429.11,8.05 399.00,8.00
             399.00,8.00 265.00,8.00 265.00,8.00
             265.00,8.00 113.00,8.00 113.00,8.00
             82.97,8.05 63.05,31.96 63.00,61.00
             63.00,61.00 63.00,156.00 63.00,156.00 Z
           M 398.00,59.00
           C 398.00,59.00 398.00,156.00 398.00,156.00
             398.00,156.00 114.00,156.00 114.00,156.00
             114.00,156.00 114.00,59.00 114.00,59.00
             114.00,59.00 398.00,59.00 398.00,59.00 Z
           M 128.00,207.00
           C 128.00,207.00 128.00,303.00 128.00,303.00
             127.98,314.66 124.11,319.01 114.00,324.54
             111.63,325.83 108.65,327.54 106.00,328.02
             103.75,328.48 99.55,328.03 97.00,328.02
             90.06,327.93 82.07,328.43 76.01,324.30
             64.60,316.53 66.00,301.03 66.00,289.00
             66.00,289.00 85.00,289.00 85.00,289.00
             85.00,294.73 84.14,305.32 87.64,309.87
             91.52,314.90 100.36,314.98 103.76,309.37
             105.96,305.71 106.99,296.37 107.00,292.00
             107.00,292.00 107.00,207.00 107.00,207.00
             107.00,207.00 128.00,207.00 128.00,207.00 Z
           M 228.00,245.00
           C 228.00,245.00 207.00,245.00 207.00,245.00
             207.00,238.27 206.56,227.78 199.85,224.03
             197.05,222.47 194.97,222.93 191.97,223.10
             190.15,222.98 187.21,222.69 185.58,223.10
             180.25,225.00 177.74,230.79 179.26,236.00
             183.13,249.22 207.20,257.84 217.99,265.36
             229.60,273.45 233.13,294.98 229.36,308.00
             225.41,321.67 207.88,327.98 195.00,328.00
             185.50,328.01 177.12,328.59 169.01,322.51
             157.60,313.94 156.04,300.32 156.00,287.00
             156.00,287.00 179.00,287.00 179.00,287.00
             179.00,293.39 177.02,303.34 181.42,308.19
             190.33,318.05 207.80,314.98 208.95,298.00
             209.69,286.92 199.53,280.20 191.00,275.00
             175.55,265.60 157.44,260.34 156.47,239.00
             156.36,236.64 157.13,232.32 157.76,230.00
             164.36,205.38 201.22,201.00 218.68,216.29
             228.99,225.32 228.00,232.68 228.00,245.00 Z
           M 289.00,207.29
           C 300.39,206.22 319.23,207.36 327.28,216.52
             331.96,221.84 335.90,235.83 336.00,243.00
             336.24,260.87 337.83,294.43 329.96,309.96
             328.55,312.73 321.40,320.97 318.91,322.90
             310.71,329.23 296.00,328.11 286.00,328.00
             275.13,327.87 265.22,322.06 260.55,312.00
             258.07,306.65 257.05,297.91 256.08,292.00
             253.27,274.86 253.28,253.67 257.60,236.80
             259.99,227.47 265.46,216.95 274.00,211.85
             278.72,209.03 283.68,208.10 289.00,207.29 Z
           M 387.00,207.00
           C 389.13,214.90 393.85,224.36 397.13,232.00
             397.13,232.00 411.67,267.00 411.67,267.00
             414.84,274.39 418.27,287.86 424.00,293.00
             424.00,293.00 424.00,207.00 424.00,207.00
             424.00,207.00 446.00,207.00 446.00,207.00
             446.00,207.00 446.00,328.00 446.00,328.00
             446.00,328.00 430.00,328.00 430.00,328.00
             427.70,328.00 424.26,328.21 422.27,326.98
             419.33,325.15 413.28,309.18 411.85,305.17
             411.85,305.17 405.01,289.00 405.01,289.00
             405.01,289.00 393.54,261.00 393.54,261.00
             390.82,254.88 389.09,247.54 384.00,243.00
             384.00,243.00 384.00,328.00 384.00,328.00
             384.00,328.00 362.00,329.00 362.00,329.00
             362.00,329.00 362.00,216.00 362.00,216.00
             362.00,216.00 363.02,208.60 363.02,208.60
             363.02,208.60 369.00,207.00 369.00,207.00
             369.00,207.00 387.00,207.00 387.00,207.00 Z
           M 278.00,281.00
           C 278.00,281.00 277.00,292.00 277.00,292.00
             277.00,292.00 279.00,292.00 279.00,292.00
             275.56,313.31 299.04,319.02 309.32,309.14
             315.21,303.48 316.44,288.08 316.91,280.00
             316.91,280.00 316.04,267.00 316.04,267.00
             316.04,267.00 316.92,258.00 316.92,258.00
             316.92,258.00 315.91,249.00 315.91,249.00
             314.86,237.47 314.00,225.78 300.00,223.33
             279.52,219.73 278.16,236.86 277.06,252.04
             277.06,252.04 276.00,262.00 276.00,262.00
             275.94,266.66 274.59,277.94 278.00,281.00 Z
           M 398.00,381.00
           C 398.00,381.00 398.00,452.00 398.00,452.00
             398.00,452.00 114.00,452.00 114.00,452.00
             114.00,452.00 114.00,381.00 114.00,381.00
             114.00,381.00 398.00,381.00 398.00,381.00 Z" />
</svg>
