<?xml version="1.0" encoding="UTF-8" standalone="no"?>
<!DOCTYPE svg PUBLIC "-//W3C//DTD SVG 20010904//EN"
              "http://www.w3.org/TR/2001/REC-SVG-20010904/DTD/svg10.dtd">

<svg xmlns="http://www.w3.org/2000/svg"
     width="135.486mm" height="135.486mm"
     viewBox="0 0 512 512">
  <path id="Selection"
        d="M 151.00,160.00
           C 162.36,123.56 199.92,100.57 237.00,101.00
             253.66,101.20 273.93,109.40 287.00,119.50
             307.71,135.50 321.96,161.54 322.00,188.00
             322.00,188.00 321.09,203.00 321.09,203.00
             320.14,219.75 335.24,223.74 345.26,233.74
             351.68,240.16 355.19,247.34 364.00,250.56
             375.09,254.61 382.09,246.79 393.00,244.36
             393.00,244.36 407.00,242.09 407.00,242.09
             418.16,241.44 435.95,247.43 445.00,253.92
             476.22,276.33 483.84,318.90 458.68,349.00
             452.99,355.81 447.66,360.21 440.00,364.57
             431.16,369.61 420.18,372.98 410.00,373.00
             410.00,373.00 367.00,373.00 367.00,373.00
             360.25,373.01 355.45,373.60 350.21,378.48
             342.06,386.06 343.34,400.80 352.02,407.44
             356.78,411.09 360.35,410.99 366.00,411.00
             366.00,411.00 398.00,411.00 398.00,411.00
             398.00,411.00 414.00,411.00 414.00,411.00
             432.08,410.97 453.38,403.00 468.00,392.57
             480.95,383.33 491.06,372.99 498.83,359.00
             522.91,315.68 513.73,261.40 476.00,229.00
             467.31,221.54 457.70,215.50 447.00,211.34
             438.80,208.16 422.67,204.11 414.00,204.00
             399.47,203.83 401.75,204.02 388.00,206.13
             385.08,206.58 379.14,208.61 377.01,208.29
             374.04,207.84 371.06,204.80 368.91,202.83
             361.31,195.86 360.02,196.62 360.00,187.00
             359.87,131.33 320.76,81.46 267.00,67.42
             260.51,65.73 249.51,63.08 243.00,63.00
             243.00,63.00 227.00,63.00 227.00,63.00
             218.71,63.01 216.83,63.91 209.00,65.39
             177.64,71.32 149.83,89.20 131.01,115.00
             125.17,123.02 119.35,133.71 115.81,143.00
             114.42,146.66 112.20,156.16 109.57,158.40
             107.85,159.88 99.97,160.89 97.00,161.71
             85.82,164.79 78.48,166.77 68.00,172.32
             35.99,189.26 12.00,218.60 3.67,254.00
             1.66,262.52 0.01,271.20 0.00,280.00
             -0.03,299.90 1.92,316.51 10.00,335.00
             26.27,372.18 59.91,400.66 100.00,408.31
             106.20,409.49 111.57,410.92 118.00,411.00
             127.84,411.11 137.48,412.30 143.75,402.96
             145.80,399.91 146.75,397.67 146.96,394.00
             147.49,384.41 141.66,375.49 132.00,373.19
             129.42,372.83 124.81,373.03 122.00,373.19
             109.45,372.85 92.90,366.79 82.00,360.69
             60.67,348.75 42.81,323.34 39.22,299.00
             38.28,291.94 38.43,285.05 39.22,278.00
             39.22,278.00 39.22,269.00 39.22,269.00
             43.08,248.93 54.65,230.44 70.00,217.30
             79.46,209.20 95.72,200.83 108.00,198.38
             108.00,198.38 116.00,197.58 116.00,197.58
             116.00,197.58 127.00,196.18 127.00,196.18
             127.00,196.18 144.00,198.20 144.00,198.20
             158.49,200.45 179.17,217.75 191.15,200.96
             197.12,192.59 196.02,181.17 187.91,174.61
             179.01,167.41 161.92,163.64 151.00,160.00 Z
           M 226.00,380.00
           C 226.00,380.00 193.00,347.00 193.00,347.00
             186.56,340.56 181.67,334.18 172.00,333.33
             160.78,332.34 151.65,341.11 150.36,352.00
             149.11,362.62 161.29,372.29 168.00,379.00
             168.00,379.00 221.00,432.00 221.00,432.00
             229.00,440.00 235.58,449.60 248.00,448.96
             258.23,448.43 267.56,436.83 274.58,429.86
             274.58,429.86 317.71,386.71 317.71,386.71
             322.34,382.08 337.43,367.54 339.93,363.00
             341.59,359.98 341.91,357.37 341.98,354.00
             342.25,341.61 333.81,332.20 321.00,333.33
             311.33,334.18 306.44,340.56 300.00,347.00
             292.92,354.08 273.65,374.24 267.00,379.00
             267.00,379.00 267.00,256.00 267.00,256.00
             266.85,244.25 260.57,234.25 248.00,233.19
             236.00,232.17 227.16,241.31 227.00,253.00
             227.00,253.00 227.00,338.00 227.00,338.00
             227.00,347.48 227.88,372.27 226.00,380.00 Z" />
</svg>
