<?xml version="1.0" encoding="UTF-8" standalone="no"?>
<!DOCTYPE svg PUBLIC "-//W3C//DTD SVG 20010904//EN"
              "http://www.w3.org/TR/2001/REC-SVG-20010904/DTD/svg10.dtd">

<svg xmlns="http://www.w3.org/2000/svg"
     width="5.68889in" height="5.68889in"
     viewBox="0 0 512 512">
  <path id="Selection"
        d="M 231.00,15.00
           C 231.00,15.00 231.00,18.00 231.00,18.00
             216.71,18.40 214.59,26.89 204.00,31.00
             202.71,39.79 196.73,37.85 196.00,49.00
             196.00,49.00 193.00,49.00 193.00,49.00
             193.00,49.00 190.99,58.17 190.99,58.17
             190.99,58.17 190.99,63.91 190.99,63.91
             190.99,63.91 189.05,71.04 189.05,71.04
             189.05,71.04 193.00,96.00 193.00,96.00
             193.00,96.00 196.00,96.00 196.00,96.00
             197.46,107.41 202.79,105.71 204.00,114.00
             208.87,115.89 213.41,118.29 216.00,123.00
             219.00,123.72 228.04,126.74 229.43,129.48
             230.52,131.64 228.09,143.53 227.43,146.28
             227.43,146.28 226.87,156.96 226.87,156.96
             226.87,156.96 225.12,163.17 225.12,163.17
             225.12,163.17 225.12,176.00 225.12,176.00
             225.12,176.00 221.87,176.00 221.87,176.00
             221.87,176.00 221.87,188.91 221.87,188.91
             221.87,188.91 219.93,195.09 219.93,195.09
             219.93,195.09 219.93,201.91 219.93,201.91
             219.93,201.91 218.00,210.00 218.00,210.00
             209.54,210.00 202.50,210.24 194.29,212.43
             188.76,213.91 190.34,215.74 182.00,216.00
             179.70,220.90 178.77,219.69 174.74,222.21
             168.18,226.32 158.58,232.66 158.00,241.00
             158.00,241.00 146.00,239.00 146.00,239.00
             146.00,239.00 146.00,236.00 146.00,236.00
             146.00,236.00 128.00,230.00 128.00,230.00
             128.00,230.00 128.00,227.00 128.00,227.00
             128.00,227.00 106.00,219.00 106.00,219.00
             106.00,219.00 106.00,216.00 106.00,216.00
             106.00,216.00 99.00,214.00 99.00,214.00
             99.00,214.00 99.00,207.00 99.00,207.00
             99.00,207.00 102.00,207.00 102.00,207.00
             102.00,207.00 102.00,194.00 102.00,194.00
             102.00,194.00 99.00,194.00 99.00,194.00
             98.99,179.52 94.76,178.57 93.00,172.00
             89.82,170.26 80.49,161.21 79.00,158.00
             79.00,158.00 61.83,152.12 61.83,152.12
             61.83,152.12 47.00,152.12 47.00,152.12
             34.32,152.02 30.79,156.93 23.00,158.00
             19.23,166.33 9.37,168.41 8.00,178.00
             8.00,178.00 5.00,178.00 5.00,178.00
             5.00,178.00 1.02,199.01 1.02,199.01
             1.02,199.01 5.00,223.00 5.00,223.00
             5.00,223.00 8.00,223.00 8.00,223.00
             8.89,229.85 11.92,230.97 16.53,235.19
             22.01,240.19 21.82,243.70 32.00,245.00
             32.00,245.00 32.00,248.00 32.00,248.00
             32.00,248.00 47.00,249.94 47.00,249.94
             47.00,249.94 60.91,249.94 60.91,249.94
             60.91,249.94 70.00,248.00 70.00,248.00
             70.00,248.00 70.00,245.00 70.00,245.00
             75.64,244.63 78.64,242.78 82.72,238.95
             84.89,236.90 87.24,233.31 90.17,232.56
             94.51,231.45 96.19,235.49 104.00,236.00
             104.00,236.00 104.00,239.00 104.00,239.00
             104.00,239.00 122.00,245.00 122.00,245.00
             122.00,245.00 122.00,248.00 122.00,248.00
             122.00,248.00 144.00,256.00 144.00,256.00
             144.00,256.00 145.07,261.00 145.07,261.00
             145.07,261.00 143.74,273.91 143.74,273.91
             143.74,273.91 142.00,283.00 142.00,283.00
             142.00,283.00 143.99,295.09 143.99,295.09
             143.99,295.09 143.99,300.83 143.99,300.83
             143.99,300.83 146.00,310.00 146.00,310.00
             146.00,310.00 149.00,310.00 149.00,310.00
             149.52,317.93 154.18,320.27 152.13,324.66
             150.83,327.45 148.01,327.66 145.76,329.23
             145.76,329.23 139.53,335.81 139.53,335.81
             139.53,335.81 133.50,339.69 133.50,339.69
             133.50,339.69 124.25,348.21 124.25,348.21
             124.25,348.21 118.81,351.25 118.81,351.25
             118.81,351.25 113.24,357.20 113.24,357.20
             113.24,357.20 107.81,360.25 107.81,360.25
             104.11,363.10 103.44,367.87 95.00,370.00
             93.56,373.09 86.70,380.41 83.08,380.26
             81.18,380.18 75.50,376.96 73.39,376.00
             66.96,373.10 66.00,373.01 59.00,373.00
             59.00,373.00 59.00,370.00 59.00,370.00
             59.00,370.00 43.00,370.00 43.00,370.00
             43.00,370.00 43.00,373.12 43.00,373.12
             43.00,373.12 37.17,373.12 37.17,373.12
             34.88,373.64 22.52,378.94 20.81,380.25
             20.81,380.25 16.53,384.81 16.53,384.81
             11.14,389.74 9.02,391.04 8.00,399.00
             8.00,399.00 5.00,399.00 5.00,399.00
             5.00,399.00 1.05,419.04 1.05,419.04
             1.05,419.04 5.00,442.00 5.00,442.00
             5.00,442.00 8.00,442.00 8.00,442.00
             8.00,442.00 13.25,453.19 13.25,453.19
             13.25,453.19 19.00,460.00 19.00,460.00
             27.40,462.12 25.91,465.88 37.00,466.00
             37.00,466.00 37.00,469.00 37.00,469.00
             37.00,469.00 50.04,470.95 50.04,470.95
             50.04,470.95 66.00,469.00 66.00,469.00
             66.00,469.00 66.00,466.00 66.00,466.00
             78.31,465.87 75.27,461.28 84.00,460.00
             87.04,453.29 89.47,455.67 90.00,448.00
             98.36,445.62 99.00,433.16 99.00,426.00
             99.00,426.00 102.00,426.00 102.00,426.00
             102.00,426.00 102.00,413.00 102.00,413.00
             102.00,413.00 98.88,413.00 98.88,413.00
             98.88,413.00 98.88,406.17 98.88,406.17
             97.68,400.06 91.50,394.55 102.00,393.00
             102.00,393.00 111.00,381.00 111.00,381.00
             115.90,380.30 122.64,374.79 124.00,370.00
             129.44,369.29 133.49,366.41 135.00,361.00
             143.07,360.44 142.63,356.36 147.98,352.13
             147.98,352.13 157.56,345.46 157.56,345.46
             160.31,343.05 162.40,338.37 166.83,339.56
             169.30,340.23 170.02,341.92 171.00,344.00
             178.55,345.91 182.37,351.70 193.00,352.00
             193.00,352.00 193.00,355.00 193.00,355.00
             193.00,355.00 208.00,356.94 208.00,356.94
             208.00,356.94 230.91,356.94 230.91,356.94
             230.91,356.94 240.00,355.00 240.00,355.00
             240.00,355.00 240.00,352.00 240.00,352.00
             251.88,351.87 255.37,345.12 263.00,344.00
             263.00,344.00 265.00,339.00 265.00,339.00
             265.00,339.00 267.00,339.00 267.00,339.00
             267.00,339.00 269.00,344.00 269.00,344.00
             276.11,345.04 280.39,352.01 285.37,356.62
             288.11,359.15 289.35,358.75 291.46,360.28
             291.46,360.28 301.75,370.54 301.75,370.54
             301.75,370.54 303.00,373.00 303.00,373.00
             311.38,375.11 312.41,379.85 317.77,384.86
             317.77,384.86 325.18,389.82 325.18,389.82
             325.18,389.82 336.66,401.34 336.66,401.34
             339.60,404.12 346.61,407.02 348.65,410.54
             349.99,412.85 348.35,416.26 348.00,419.00
             348.00,419.00 345.00,419.00 345.00,419.00
             345.00,419.00 342.54,434.83 342.54,434.83
             342.54,434.83 341.12,440.08 341.12,440.08
             341.12,440.08 345.00,464.00 345.00,464.00
             345.00,464.00 348.00,464.00 348.00,464.00
             348.47,471.16 350.20,470.86 353.21,476.28
             354.23,478.13 354.23,479.12 355.82,480.85
             358.89,484.18 360.37,483.19 363.00,489.00
             363.00,489.00 381.00,495.00 381.00,495.00
             381.00,495.00 381.00,498.00 381.00,498.00
             381.00,498.00 399.00,500.00 399.00,500.00
             399.00,500.00 415.00,498.00 415.00,498.00
             415.00,498.00 415.00,495.00 415.00,495.00
             420.78,494.84 430.92,491.95 433.00,486.00
             433.00,486.00 444.00,480.00 444.00,480.00
             444.00,480.00 450.00,464.00 450.00,464.00
             450.00,464.00 453.00,464.00 453.00,464.00
             453.00,464.00 454.88,450.00 454.88,450.00
             454.88,450.00 454.88,428.17 454.88,428.17
             454.88,428.17 453.00,422.00 453.00,422.00
             453.00,422.00 450.00,422.00 450.00,422.00
             449.92,414.71 449.81,417.19 446.79,411.72
             445.77,409.87 445.76,408.87 444.18,407.15
             444.18,407.15 439.38,402.96 439.38,402.96
             439.38,402.96 433.95,396.78 433.95,396.78
             430.05,393.59 428.65,395.63 426.00,390.00
             426.00,390.00 409.83,386.12 409.83,386.12
             409.83,386.12 394.00,386.12 394.00,386.12
             394.00,386.12 372.00,390.00 372.00,390.00
             368.93,396.52 361.28,397.87 355.84,393.15
             355.84,393.15 343.86,380.80 343.86,380.80
             343.86,380.80 335.04,374.62 335.04,374.62
             330.41,370.19 328.26,365.03 321.00,364.00
             320.20,361.71 312.28,352.86 310.19,351.25
             307.20,348.96 307.11,350.92 299.30,343.32
             294.62,338.78 294.17,335.50 287.00,335.00
             284.74,326.90 273.47,325.51 283.00,321.00
             285.36,311.07 288.99,304.58 289.00,294.00
             289.00,294.00 292.00,294.00 292.00,294.00
             292.00,294.00 292.00,274.00 292.00,274.00
             292.00,274.00 289.00,274.00 289.00,274.00
             289.00,274.00 289.00,261.00 289.00,261.00
             289.00,261.00 298.00,259.00 298.00,259.00
             298.00,259.00 298.00,256.00 298.00,256.00
             298.00,256.00 323.00,248.00 323.00,248.00
             323.00,248.00 323.00,245.00 323.00,245.00
             323.00,245.00 343.00,239.00 343.00,239.00
             343.00,239.00 343.00,236.00 343.00,236.00
             343.00,236.00 363.00,230.00 363.00,230.00
             363.00,230.00 363.00,227.00 363.00,227.00
             363.00,227.00 388.00,219.00 388.00,219.00
             388.00,219.00 388.00,216.00 388.00,216.00
             388.00,216.00 408.00,210.00 408.00,210.00
             408.00,210.00 408.00,207.00 408.00,207.00
             410.20,206.72 413.97,205.35 415.70,205.98
             415.70,205.98 429.81,219.75 429.81,219.75
             434.60,223.41 449.96,226.99 456.00,227.00
             467.30,227.02 476.56,226.35 486.79,220.82
             493.00,217.47 490.22,215.80 500.00,212.00
             500.65,207.57 505.05,200.19 509.00,198.00
             509.00,198.00 510.76,189.83 510.76,189.83
             510.76,189.83 512.00,173.00 512.00,173.00
             512.00,173.00 509.00,152.00 509.00,152.00
             509.00,152.00 506.00,152.00 506.00,152.00
             506.00,152.00 500.00,138.00 500.00,138.00
             495.13,136.11 490.59,133.71 488.00,129.00
             488.00,129.00 468.83,123.12 468.83,123.12
             468.83,123.12 456.00,123.12 456.00,123.12
             443.39,123.02 436.35,128.13 430.00,129.00
             426.23,137.33 416.37,139.41 415.00,149.00
             415.00,149.00 412.00,149.00 412.00,149.00
             412.00,149.00 408.43,159.29 408.43,159.29
             408.43,159.29 407.74,168.91 407.74,168.91
             407.74,168.91 406.28,174.13 406.28,174.13
             406.28,174.13 407.94,182.04 407.94,182.04
             407.94,182.04 407.94,190.00 407.94,190.00
             396.26,190.12 391.86,197.66 381.00,198.00
             381.00,198.00 381.00,201.00 381.00,201.00
             381.00,201.00 361.00,207.00 361.00,207.00
             361.00,207.00 361.00,210.00 361.00,210.00
             361.00,210.00 341.00,216.00 341.00,216.00
             341.00,216.00 341.00,219.00 341.00,219.00
             341.00,219.00 316.00,227.00 316.00,227.00
             316.00,227.00 316.00,230.00 316.00,230.00
             316.00,230.00 296.00,236.00 296.00,236.00
             296.00,236.00 296.00,239.00 296.00,239.00
             289.77,239.80 283.58,244.17 281.15,243.69
             277.36,242.94 276.31,237.60 274.22,235.05
             274.22,235.05 264.48,225.77 264.48,225.77
             259.94,222.88 253.71,220.88 251.00,216.00
             251.00,216.00 236.00,212.00 236.00,212.00
             236.00,212.00 238.26,199.09 238.26,199.09
             238.26,199.09 239.95,193.83 239.95,193.83
             239.95,193.83 239.95,185.04 239.95,185.04
             239.95,185.04 241.94,177.91 241.94,177.91
             241.94,177.91 241.94,165.00 241.94,165.00
             241.94,165.00 245.00,165.00 245.00,165.00
             245.00,165.00 247.07,148.91 247.07,148.91
             247.07,148.91 247.07,139.09 247.07,139.09
             247.07,139.09 249.00,132.00 249.00,132.00
             249.00,132.00 254.00,132.00 254.00,132.00
             254.00,132.00 254.00,129.00 254.00,129.00
             270.95,129.00 269.88,125.45 280.00,123.00
             281.97,119.46 288.27,115.68 292.00,114.00
             292.00,114.00 298.00,100.00 298.00,100.00
             298.00,100.00 301.00,100.00 301.00,100.00
             301.00,100.00 307.00,74.00 307.00,74.00
             307.00,74.00 301.00,44.00 301.00,44.00
             301.00,44.00 298.00,44.00 298.00,44.00
             298.00,44.00 292.00,31.00 292.00,31.00
             280.99,26.72 279.43,18.15 265.00,18.00
             265.00,18.00 265.00,15.00 265.00,15.00
             265.00,15.00 248.00,13.01 248.00,13.01
             248.00,13.01 231.00,15.00 231.00,15.00 Z
           M 260.00,33.00
           C 260.00,33.00 260.00,36.00 260.00,36.00
             267.29,36.08 264.80,36.19 270.28,39.21
             275.95,42.33 279.08,43.94 280.00,51.00
             288.61,53.46 284.76,65.24 289.00,71.00
             289.00,71.00 289.00,73.00 289.00,73.00
             285.00,78.43 288.64,90.98 280.00,94.00
             278.99,101.10 274.89,103.00 269.50,106.25
             259.05,112.55 237.74,113.43 227.26,106.75
             221.71,103.22 217.09,101.65 216.00,94.00
             211.46,92.41 211.69,90.44 210.13,86.27
             208.37,80.56 208.16,65.32 210.13,59.58
             211.52,54.68 210.64,52.53 216.00,51.00
             216.92,43.94 220.05,42.33 225.72,39.21
             231.20,36.19 228.71,36.08 236.00,36.00
             236.00,36.00 236.00,33.00 236.00,33.00
             236.00,33.00 260.00,33.00 260.00,33.00 Z
           M 468.00,140.00
           C 468.00,140.00 468.00,143.24 468.00,143.24
             469.75,143.02 472.02,142.93 473.68,143.24
             475.25,144.00 476.15,144.94 477.50,145.75
             482.89,149.00 486.99,150.90 488.00,158.00
             488.00,158.00 491.00,158.00 491.00,158.00
             491.00,158.00 494.53,174.00 494.53,174.00
             494.53,174.00 491.00,192.00 491.00,192.00
             491.00,192.00 488.00,192.00 488.00,192.00
             486.99,199.10 482.89,201.00 477.50,204.25
             476.15,205.06 475.25,206.00 473.68,206.76
             472.02,207.07 469.75,206.98 468.00,206.76
             468.00,206.76 468.00,210.00 468.00,210.00
             468.00,210.00 453.00,210.00 453.00,210.00
             453.00,210.00 453.00,207.00 453.00,207.00
             444.54,206.91 434.24,203.53 433.00,194.00
             428.67,192.77 427.99,190.79 426.68,186.57
             425.92,184.11 426.01,182.52 426.00,180.00
             425.96,172.72 424.05,158.55 433.00,156.00
             434.09,147.61 442.33,143.98 450.00,143.00
             450.00,143.00 450.00,140.00 450.00,140.00
             450.00,140.00 468.00,140.00 468.00,140.00 Z
           M 59.00,169.00
           C 59.00,169.00 59.00,172.00 59.00,172.00
             66.29,172.08 63.81,172.19 69.28,175.21
             69.28,175.21 73.19,177.25 73.19,177.25
             76.08,179.49 80.13,188.58 80.88,192.17
             80.88,192.17 80.88,206.00 80.88,206.00
             80.92,211.14 78.96,215.19 76.65,219.71
             73.06,226.75 69.37,222.83 66.00,230.00
             66.00,230.00 52.00,232.00 52.00,232.00
             52.00,232.00 37.00,230.00 37.00,230.00
             37.00,230.00 37.00,227.00 37.00,227.00
             30.43,226.55 26.45,222.57 26.00,216.00
             26.00,216.00 23.00,216.00 23.00,216.00
             23.00,216.00 19.47,201.75 19.47,201.75
             19.47,201.75 23.00,185.00 23.00,185.00
             23.00,185.00 26.00,185.00 26.00,185.00
             26.84,178.51 28.56,178.06 33.72,175.21
             38.61,172.51 36.58,172.19 43.00,172.00
             43.00,172.00 43.00,169.00 43.00,169.00
             43.00,169.00 59.00,169.00 59.00,169.00 Z
           M 227.00,227.00
           C 227.00,227.00 227.00,230.00 227.00,230.00
             240.18,230.01 237.82,233.33 249.00,236.00
             251.20,240.73 260.11,247.37 263.78,251.80
             267.29,256.04 268.94,262.65 269.00,268.00
             269.00,268.00 272.00,268.00 272.00,268.00
             272.00,268.00 273.95,283.04 273.95,283.04
             273.95,283.04 272.00,301.00 272.00,301.00
             272.00,301.00 269.00,301.00 269.00,301.00
             268.75,304.78 266.05,312.18 263.75,315.19
             260.88,318.93 259.64,316.99 258.00,323.00
             258.00,323.00 254.00,323.00 254.00,323.00
             251.49,330.19 245.47,328.75 242.00,335.00
             242.00,335.00 221.00,338.88 221.00,338.88
             221.00,338.88 206.17,338.88 206.17,338.88
             206.17,338.88 193.00,335.00 193.00,335.00
             193.00,335.00 193.00,332.00 193.00,332.00
             182.82,330.70 183.01,327.19 177.53,322.19
             172.78,317.84 169.49,317.09 169.00,310.00
             169.00,310.00 166.00,310.00 166.00,310.00
             166.00,310.00 162.12,296.83 162.12,296.83
             162.12,296.83 162.12,275.00 162.12,275.00
             162.12,275.00 166.00,256.00 166.00,256.00
             166.00,256.00 173.88,247.62 173.88,247.62
             173.88,247.62 184.00,236.00 184.00,236.00
             193.80,234.65 192.50,230.01 207.00,230.00
             207.00,230.00 207.00,227.00 207.00,227.00
             207.00,227.00 227.00,227.00 227.00,227.00 Z
           M 64.00,390.00
           C 64.00,390.00 64.00,393.00 64.00,393.00
             69.29,393.75 72.96,397.50 76.15,401.58
             80.18,406.72 80.96,408.45 80.78,415.00
             81.02,418.41 81.26,429.04 80.78,431.71
             79.14,437.23 72.07,445.72 66.68,447.76
             65.03,448.07 62.74,447.98 61.00,447.76
             61.00,447.76 61.00,451.00 61.00,451.00
             61.00,451.00 41.00,451.00 41.00,451.00
             41.00,451.00 41.00,448.00 41.00,448.00
             29.54,447.68 30.75,441.25 23.00,437.00
             23.00,437.00 20.99,430.83 20.99,430.83
             20.99,430.83 20.99,425.09 20.99,425.09
             20.99,425.09 19.47,420.75 19.47,420.75
             19.47,420.75 23.00,404.00 23.00,404.00
             30.02,400.74 29.67,394.21 39.00,393.00
             39.00,393.00 39.00,390.00 39.00,390.00
             39.00,390.00 52.85,388.25 52.85,388.25
             52.85,388.25 64.00,390.00 64.00,390.00 Z
           M 421.00,413.00
           C 430.42,413.65 425.76,417.98 433.00,422.00
             433.00,422.00 436.57,432.29 436.57,432.29
             437.57,436.35 437.29,449.42 436.02,453.42
             434.48,458.32 435.36,460.47 430.00,462.00
             428.90,470.50 420.17,476.47 412.00,477.00
             412.00,477.00 412.00,480.00 412.00,480.00
             412.00,480.00 386.00,480.00 386.00,480.00
             386.00,480.00 386.00,477.00 386.00,477.00
             373.20,476.16 372.20,467.35 365.00,464.00
             365.00,464.00 361.55,453.71 361.55,453.71
             360.59,450.31 360.70,434.78 361.55,431.42
             363.04,426.75 362.80,423.48 368.00,422.00
             368.53,414.33 370.96,416.71 374.00,410.00
             380.08,409.16 383.70,405.81 389.29,404.43
             395.26,402.96 404.32,403.88 410.15,405.55
             415.31,407.03 419.33,407.12 421.00,413.00 Z" />
</svg>
