<?xml version="1.0" encoding="UTF-8" standalone="no"?>
<!DOCTYPE svg PUBLIC "-//W3C//DTD SVG 20010904//EN"
              "http://www.w3.org/TR/2001/REC-SVG-20010904/DTD/svg10.dtd">

<svg xmlns="http://www.w3.org/2000/svg"
     width="135.486mm" height="135.486mm"
     viewBox="0 0 512 512">
  <path id="Selection"
        d="M 283.00,502.00
           C 283.00,502.00 269.05,487.00 269.05,487.00
             265.89,483.38 260.54,476.08 257.86,472.00
             256.32,469.65 254.04,465.44 251.68,464.02
             249.61,462.78 246.36,463.00 244.00,463.00
             244.00,463.00 138.00,463.00 138.00,463.00
             115.49,462.96 99.04,446.52 99.00,424.00
             99.00,424.00 99.00,254.00 99.00,254.00
             99.00,254.00 99.00,88.00 99.00,88.00
             99.04,65.48 115.49,49.04 138.00,49.00
             138.00,49.00 266.00,49.00 266.00,49.00
             268.84,49.00 272.34,48.87 275.00,49.89
             284.68,53.60 285.99,67.08 286.00,76.00
             286.00,76.00 286.00,141.00 286.00,141.00
             286.09,148.03 289.33,157.36 297.00,159.00
             297.00,159.00 297.00,161.00 297.00,161.00
             297.00,161.00 299.00,162.00 299.00,162.00
             299.00,162.00 310.00,163.00 310.00,163.00
             310.00,163.00 356.00,163.00 356.00,163.00
             364.97,163.00 381.36,162.13 389.42,165.19
             398.07,168.48 399.99,176.86 400.00,185.00
             400.00,185.00 400.00,239.00 400.00,239.00
             418.01,240.46 429.53,247.38 440.00,249.00
             440.00,249.00 440.00,163.00 440.00,163.00
             439.97,145.24 431.68,135.71 421.00,122.71
             421.00,122.71 414.90,115.09 414.90,115.09
             414.90,115.09 406.00,106.99 406.00,106.99
             406.00,106.99 374.04,75.00 374.04,75.00
             374.04,75.00 360.00,60.00 360.00,60.00
             360.00,60.00 348.29,49.13 348.29,49.13
             348.29,49.13 339.91,40.13 339.91,40.13
             339.91,40.13 333.09,34.76 333.09,34.76
             333.09,34.76 324.16,26.73 324.16,26.73
             317.71,21.17 306.26,12.68 298.00,10.55
             295.51,9.91 292.57,10.00 290.00,10.00
             290.00,10.00 127.00,10.00 127.00,10.00
             117.16,10.02 110.72,12.34 102.00,16.76
             76.44,29.71 59.05,54.99 59.00,84.00
             59.00,84.00 59.00,428.00 59.00,428.00
             59.05,457.01 76.44,482.29 102.00,495.24
             110.72,499.66 117.16,501.98 127.00,502.00
             127.00,502.00 283.00,502.00 283.00,502.00 Z
           M 147.00,199.64
           C 129.20,206.34 128.17,225.56 143.58,235.80
             148.54,239.10 155.34,238.01 161.00,238.00
             161.00,238.00 336.00,238.00 336.00,238.00
             345.19,238.01 351.17,239.48 358.37,232.28
             368.77,221.88 365.69,206.06 352.17,200.06
             349.36,198.82 345.06,199.00 342.00,199.00
             342.00,199.00 212.00,199.00 212.00,199.00
             212.00,199.00 170.00,199.00 170.00,199.00
             163.74,199.00 152.67,198.50 147.00,199.64 Z
           M 146.00,275.00
           C 146.00,275.00 146.00,277.00 146.00,277.00
             146.00,277.00 144.00,276.00 144.00,276.00
             141.44,278.57 139.33,280.11 137.55,283.43
             132.38,293.09 135.15,307.37 146.00,311.91
             148.87,313.11 153.86,313.00 157.00,313.00
             157.00,313.00 245.00,313.00 245.00,313.00
             247.25,313.00 250.44,313.24 252.39,312.05
             254.44,310.79 257.55,305.56 259.06,303.38
             259.06,303.38 272.32,285.99 272.32,285.99
             275.86,281.87 280.14,278.63 283.00,273.94
             283.00,273.94 200.00,273.94 200.00,273.94
             200.00,273.94 154.09,273.94 154.09,273.94
             154.09,273.94 146.00,275.00 146.00,275.00 Z
           M 356.00,278.00
           C 350.65,276.97 348.94,278.54 344.00,280.31
             335.24,283.44 327.80,286.87 320.00,292.00
             320.00,292.00 308.04,300.32 308.04,300.32
             290.90,315.04 278.02,335.28 271.67,357.00
             268.83,366.71 268.07,376.97 267.32,387.00
             267.32,387.00 268.73,405.00 268.73,405.00
             274.28,443.85 297.66,474.91 333.00,491.78
             344.92,497.47 357.66,501.98 371.00,502.00
             371.00,502.00 396.00,502.00 396.00,502.00
             406.66,501.87 423.44,496.03 433.00,491.25
             460.59,477.45 480.82,455.43 490.67,426.00
             493.34,418.00 495.90,410.55 496.00,402.00
             496.30,375.69 497.55,363.68 485.78,339.00
             480.86,328.70 471.94,315.16 463.96,307.02
             457.02,299.94 439.28,287.96 430.00,283.86
             423.09,280.81 411.48,275.93 404.00,277.00
             402.00,274.78 397.00,274.36 393.96,274.13
             388.22,273.69 372.12,274.03 366.42,274.93
             362.91,275.48 358.45,275.12 356.00,278.00 Z
           M 400.00,313.00
           C 400.00,313.00 400.00,370.00 400.00,370.00
             400.00,370.00 457.00,370.00 457.00,370.00
             457.00,370.00 457.00,406.00 457.00,406.00
             457.00,406.00 400.00,406.00 400.00,406.00
             400.00,406.00 400.00,463.00 400.00,463.00
             400.00,463.00 364.00,463.00 364.00,463.00
             364.00,463.00 364.00,416.00 364.00,416.00
             363.99,408.78 364.15,406.15 356.00,406.00
             356.00,406.00 307.00,406.00 307.00,406.00
             307.00,406.00 307.00,379.00 307.00,379.00
             307.01,372.26 306.51,370.14 314.00,370.00
             314.00,370.00 364.00,370.00 364.00,370.00
             364.00,370.00 364.00,321.00 364.00,321.00
             364.00,321.00 365.60,314.02 365.60,314.02
             365.60,314.02 373.00,313.00 373.00,313.00
             373.00,313.00 400.00,313.00 400.00,313.00 Z
           M 232.00,389.00
           C 232.00,376.36 232.06,374.63 234.25,362.00
             234.72,359.31 236.61,352.78 234.96,350.60
             233.48,348.63 229.24,349.00 227.00,349.00
             227.00,349.00 159.00,349.00 159.00,349.00
             152.38,349.01 145.17,350.31 140.27,355.26
             135.31,360.28 133.19,371.32 136.20,377.72
             137.45,380.37 140.65,383.67 143.01,385.36
             149.09,389.68 155.00,389.00 162.00,389.00
             162.00,389.00 190.00,389.00 190.00,389.00
             190.00,389.00 232.00,389.00 232.00,389.00 Z" />
</svg>
