<?xml version="1.0" encoding="UTF-8" standalone="no"?>
<!DOCTYPE svg PUBLIC "-//W3C//DTD SVG 20010904//EN"
              "http://www.w3.org/TR/2001/REC-SVG-20010904/DTD/svg10.dtd">

<svg xmlns="http://www.w3.org/2000/svg"
     width="135.486mm" height="135.486mm"
     viewBox="0 0 512 512">
  <path id="Selection"
        d="M 254.00,59.43
           C 254.00,59.43 186.00,69.92 186.00,69.92
             186.00,69.92 155.00,75.48 155.00,75.48
             138.31,82.33 137.98,105.69 155.00,112.19
             163.22,115.32 171.61,112.31 180.00,111.13
             180.00,111.13 234.00,102.87 234.00,102.87
             238.90,102.18 251.99,99.30 256.00,100.26
             259.76,101.16 271.98,109.71 276.00,112.34
             276.00,112.34 318.00,140.14 318.00,140.14
             325.83,145.20 335.14,153.28 345.00,151.53
             361.34,148.63 367.22,130.00 355.90,118.04
             351.86,113.77 339.62,106.42 334.00,102.67
             334.00,102.67 289.00,73.00 289.00,73.00
             276.22,64.48 270.24,57.42 254.00,59.43 Z
           M 446.00,70.46
           C 438.32,72.17 429.25,75.72 423.00,80.53
             396.65,100.83 393.47,140.13 417.17,163.83
             427.17,173.83 441.01,179.11 455.00,179.91
             459.95,180.19 468.23,178.61 473.00,177.11
             512.69,164.69 524.67,112.26 493.99,84.17
             489.30,79.88 482.93,75.78 477.00,73.46
             467.72,69.83 455.82,69.10 446.00,70.46 Z
           M 333.00,95.00
           C 336.87,101.50 353.89,108.93 360.79,117.00
             374.21,132.71 361.74,156.14 342.00,156.14
             332.74,156.14 327.33,151.55 320.00,146.67
             320.00,146.67 289.00,126.22 289.00,126.22
             285.01,123.66 275.37,116.14 271.00,116.52
             268.33,116.75 261.57,120.43 259.00,121.86
             250.03,126.83 241.34,132.46 233.00,138.43
             225.03,144.12 210.03,155.79 203.29,162.42
             199.47,166.18 194.53,172.36 191.88,177.00
             177.53,202.14 192.03,223.68 206.85,244.00
             206.85,244.00 222.85,266.00 222.85,266.00
             222.85,266.00 237.00,286.00 237.00,286.00
             237.00,286.00 181.00,293.00 181.00,293.00
             181.00,293.00 152.00,296.85 152.00,296.85
             143.21,297.90 134.46,298.45 127.00,303.79
             107.41,317.82 111.41,348.88 134.00,357.53
             145.21,361.83 168.56,356.64 181.00,355.15
             181.00,355.15 248.00,346.28 248.00,346.28
             248.00,346.28 297.00,339.86 297.00,339.86
             310.33,337.66 321.33,327.80 322.83,314.00
             324.65,297.19 316.64,289.76 307.42,277.00
             307.42,277.00 268.00,222.00 268.00,222.00
             268.00,222.00 300.00,204.26 300.00,204.26
             300.00,204.26 356.04,179.00 356.04,179.00
             356.04,179.00 356.04,194.00 356.04,194.00
             356.04,194.00 357.00,206.00 357.00,206.00
             357.00,206.00 357.00,227.00 357.00,227.00
             357.01,233.14 357.43,239.69 360.97,244.96
             364.73,250.56 373.95,254.22 380.00,257.25
             380.00,257.25 421.00,277.75 421.00,277.75
             421.00,277.75 456.00,294.80 456.00,294.80
             460.62,297.08 471.50,303.11 476.00,303.79
             489.50,305.84 500.89,297.06 499.90,283.00
             498.89,268.51 482.99,263.74 472.00,258.25
             472.00,258.25 419.00,231.78 419.00,231.78
             415.00,229.85 399.87,223.51 398.02,220.61
             396.80,218.69 396.00,204.97 396.00,202.00
             396.00,202.00 396.00,177.00 396.00,177.00
             396.00,177.00 395.00,164.00 395.00,164.00
             394.89,154.37 395.86,136.53 393.65,128.00
             389.65,112.59 374.75,101.13 360.00,96.91
             348.32,93.56 344.16,94.97 333.00,95.00 Z
           M 84.00,148.00
           C 84.00,148.00 185.00,148.00 185.00,148.00
             185.00,148.00 185.00,142.00 185.00,142.00
             185.00,142.00 108.00,142.00 108.00,142.00
             108.00,142.00 93.00,142.00 93.00,142.00
             93.00,142.00 85.60,143.02 85.60,143.02
             85.60,143.02 84.00,148.00 84.00,148.00 Z
           M 1.00,157.00
           C 1.00,157.00 1.00,163.00 1.00,163.00
             1.00,163.00 145.00,163.00 145.00,163.00
             145.00,163.00 145.00,157.00 145.00,157.00
             145.00,157.00 1.00,157.00 1.00,157.00 Z
           M 63.00,172.00
           C 63.00,172.00 63.00,178.00 63.00,178.00
             63.00,178.00 164.00,178.00 164.00,178.00
             164.00,178.00 164.00,172.00 164.00,172.00
             164.00,172.00 63.00,172.00 63.00,172.00 Z
           M 185.00,220.00
           C 185.00,220.00 179.88,239.00 179.88,239.00
             179.88,239.00 166.00,290.00 166.00,290.00
             166.00,290.00 228.00,282.00 228.00,282.00
             228.00,282.00 201.42,244.00 201.42,244.00
             201.42,244.00 185.00,220.00 185.00,220.00 Z
           M 204.00,357.00
           C 204.00,357.00 147.00,364.00 147.00,364.00
             139.47,364.08 133.52,363.23 127.00,359.03
             121.55,355.53 118.69,350.36 115.00,350.32
             112.75,350.30 109.77,352.83 108.00,354.12
             108.00,354.12 93.00,365.13 93.00,365.13
             93.00,365.13 58.00,391.37 58.00,391.37
             46.37,400.10 36.69,405.79 36.04,422.00
             35.12,444.79 58.45,459.79 79.00,450.48
             84.85,447.84 97.00,438.00 103.00,433.71
             103.00,433.71 161.00,390.37 161.00,390.37
             161.00,390.37 189.00,369.63 189.00,369.63
             194.20,365.72 199.97,362.16 204.00,357.00 Z
           M 316.00,385.00
           C 316.00,385.00 417.00,385.00 417.00,385.00
             417.00,385.00 417.00,379.00 417.00,379.00
             417.00,379.00 340.00,379.00 340.00,379.00
             340.00,379.00 325.00,379.00 325.00,379.00
             325.00,379.00 317.60,380.02 317.60,380.02
             317.60,380.02 316.00,385.00 316.00,385.00 Z
           M 233.00,394.00
           C 233.00,394.00 233.00,400.00 233.00,400.00
             233.00,400.00 378.00,400.00 378.00,400.00
             378.00,400.00 375.69,394.60 375.69,394.60
             375.69,394.60 366.00,394.00 366.00,394.00
             366.00,394.00 344.00,394.00 344.00,394.00
             344.00,394.00 233.00,394.00 233.00,394.00 Z
           M 295.00,415.00
           C 295.00,415.00 396.00,415.00 396.00,415.00
             396.00,415.00 396.00,409.00 396.00,409.00
             396.00,409.00 319.00,409.00 319.00,409.00
             319.00,409.00 304.00,409.00 304.00,409.00
             304.00,409.00 296.60,410.02 296.60,410.02
             296.60,410.02 295.00,415.00 295.00,415.00 Z" />
</svg>
