<?xml version="1.0" encoding="UTF-8" standalone="no"?>
<!DOCTYPE svg PUBLIC "-//W3C//DTD SVG 20010904//EN"
              "http://www.w3.org/TR/2001/REC-SVG-20010904/DTD/svg10.dtd">

<svg xmlns="http://www.w3.org/2000/svg"
     width="135.486mm" height="135.486mm"
     viewBox="0 0 512 512">
  <path id="Selection"
        d="M 168.00,37.21
           C 152.18,39.68 143.40,40.61 128.00,46.42
             91.12,60.35 61.72,89.37 47.20,126.00
             17.38,201.28 55.31,287.68 133.00,313.67
             143.82,317.29 158.60,320.86 170.00,321.00
             170.00,321.00 186.00,321.00 186.00,321.00
             207.67,320.97 233.47,312.57 252.00,301.55
             267.07,292.58 279.64,281.72 290.55,268.00
             331.74,216.23 331.50,140.28 289.54,89.00
             274.15,70.20 255.28,56.77 233.00,47.42
             218.62,41.39 197.60,37.02 182.00,37.21
             182.00,37.21 168.00,37.21 168.00,37.21 Z
           M 166.00,71.14
           C 166.00,71.14 186.00,71.14 186.00,71.14
             198.00,71.06 209.94,74.36 221.00,78.80
             292.32,107.41 310.67,203.35 255.83,256.72
             246.56,265.74 235.85,273.13 224.00,278.28
             209.57,284.55 193.79,288.18 178.00,288.00
             164.87,287.85 149.17,284.48 137.00,279.55
             126.45,275.28 114.32,267.63 106.00,259.91
             55.76,213.34 59.36,131.94 115.00,91.15
             130.68,79.66 147.00,74.19 166.00,71.14 Z
           M 169.00,105.43
           C 160.06,106.89 146.46,109.69 139.06,114.96
             132.95,119.31 134.43,127.10 140.04,128.55
             144.38,129.68 151.69,125.62 156.00,124.05
             164.01,121.14 172.50,119.91 181.00,120.00
             190.24,120.11 201.75,123.15 210.00,127.27
             214.29,129.41 221.36,134.87 225.98,134.01
             231.68,132.95 233.40,126.64 230.26,122.18
             228.25,119.33 222.19,116.16 219.00,114.48
             204.14,106.69 185.66,103.37 169.00,105.43 Z
           M 320.00,266.87
           C 312.71,268.39 309.31,277.38 305.11,283.00
             298.21,292.20 292.13,298.47 283.00,305.50
             279.76,308.00 270.52,313.66 268.74,316.18
             265.07,321.40 268.58,328.07 275.00,327.81
             279.62,327.63 286.28,322.40 290.00,319.71
             302.45,310.71 312.04,300.69 320.66,288.00
             324.94,281.70 333.94,268.66 320.00,266.87 Z
           M 337.04,296.74
           C 331.63,299.81 329.51,305.19 325.71,310.00
             320.25,316.92 315.90,320.88 309.00,326.34
             305.02,329.48 299.06,332.62 298.24,338.00
             297.37,343.74 301.35,347.29 305.00,351.00
             305.00,351.00 327.00,373.00 327.00,373.00
             327.00,373.00 392.00,438.00 392.00,438.00
             402.08,448.08 416.61,464.54 430.00,469.30
             451.21,476.85 473.88,461.82 472.96,439.00
             472.26,421.56 457.45,408.45 446.00,397.00
             446.00,397.00 374.00,325.00 374.00,325.00
             374.00,325.00 353.00,304.00 353.00,304.00
             347.72,298.74 344.96,294.87 337.04,296.74 Z" />
</svg>
