<?xml version="1.0" encoding="UTF-8" standalone="no"?>
<!DOCTYPE svg PUBLIC "-//W3C//DTD SVG 20010904//EN"
              "http://www.w3.org/TR/2001/REC-SVG-20010904/DTD/svg10.dtd">

<svg xmlns="http://www.w3.org/2000/svg"
     width="135.486mm" height="135.486mm"
     viewBox="0 0 512 512">
  <path id="Selection"
        d="M 2.00,244.00
           C 2.00,244.00 0.04,243.00 0.04,243.00
             0.04,243.00 0.04,258.00 0.04,258.00
             0.04,258.00 1.01,268.00 1.01,268.00
             1.16,272.19 2.06,279.41 5.42,282.28
             7.77,284.29 13.84,285.18 17.00,285.88
             17.00,285.88 48.57,289.94 48.57,289.94
             76.82,293.53 97.43,317.49 96.25,346.00
             95.52,363.79 84.52,377.73 73.74,391.00
             67.96,398.11 67.85,398.62 63.00,406.00
             61.59,408.14 59.05,411.42 59.00,414.00
             58.96,416.53 61.72,420.80 63.05,423.00
             68.35,431.75 74.25,437.95 83.01,443.34
             85.95,445.15 90.23,448.11 93.83,447.20
             96.82,446.45 111.01,435.93 114.17,433.34
             126.73,423.02 141.94,410.20 159.00,410.00
             165.61,409.93 172.66,409.97 179.00,412.10
             185.61,414.32 189.77,417.41 195.00,421.87
             206.93,432.06 212.18,440.64 215.20,456.00
             215.20,456.00 219.68,490.00 219.68,490.00
             220.64,494.30 220.67,499.98 224.38,503.06
             227.08,505.30 234.54,505.96 238.00,505.77
             238.00,505.77 260.99,505.77 260.99,505.77
             263.90,505.08 267.31,504.63 269.44,502.42
             271.85,499.93 272.14,495.33 272.80,492.00
             272.80,492.00 276.43,464.00 276.43,464.00
             279.10,445.41 283.78,432.94 299.00,420.82
             303.81,416.99 308.10,414.08 314.00,412.10
             320.34,409.97 327.39,409.93 334.00,410.00
             353.32,410.23 368.61,425.67 383.00,436.63
             386.22,439.09 396.66,447.06 400.09,447.38
             402.47,447.60 405.66,446.05 407.72,444.91
             416.83,439.82 423.67,432.70 429.30,424.00
             431.04,421.31 434.49,416.26 433.89,413.00
             433.49,410.87 430.61,406.94 429.34,405.00
             429.34,405.00 416.88,388.00 416.88,388.00
             402.22,369.12 391.97,353.89 398.35,329.00
             401.85,315.35 415.27,300.18 428.00,294.44
             434.59,291.47 445.14,289.57 452.42,288.91
             452.42,288.91 479.00,285.35 479.00,285.35
             482.00,284.66 486.18,283.93 488.30,281.57
             493.17,276.15 492.01,259.30 492.00,252.00
             491.99,247.34 491.65,240.15 488.91,236.22
             486.36,232.56 480.14,232.04 476.00,231.12
             476.00,231.12 448.04,227.52 448.04,227.52
             443.40,226.86 438.97,226.73 435.00,224.00
             426.55,223.77 416.75,216.07 411.29,209.99
             398.91,196.21 392.87,177.22 398.44,159.00
             400.29,152.98 407.61,141.20 411.48,136.00
             411.48,136.00 428.69,113.00 428.69,113.00
             430.05,110.90 433.48,106.22 433.89,104.00
             434.44,101.05 432.02,97.46 430.55,95.00
             425.92,87.19 421.80,82.26 414.58,76.70
             411.62,74.43 403.76,69.26 400.09,69.63
             397.67,69.86 392.21,73.92 390.01,75.40
             390.01,75.40 367.96,92.35 367.96,92.35
             360.74,98.05 348.18,105.35 339.00,106.85
             339.00,106.85 328.00,106.85 328.00,106.85
             309.18,106.78 292.10,94.42 283.40,78.00
             279.51,70.66 277.01,59.28 276.17,51.00
             276.17,51.00 272.71,23.97 272.71,23.97
             271.97,20.81 271.95,16.93 269.41,14.66
             263.92,9.77 245.49,10.92 238.00,11.00
             233.96,11.05 226.68,11.76 223.70,14.70
             220.64,17.71 220.55,23.09 219.68,27.00
             219.68,27.00 215.19,61.00 215.19,61.00
             211.98,77.05 206.05,86.61 193.01,96.63
             187.81,100.63 185.46,102.73 179.00,104.90
             172.66,107.03 165.61,107.07 159.00,107.00
             142.09,106.80 126.61,93.88 114.17,83.66
             110.71,80.82 97.34,70.63 93.83,69.79
             90.19,68.92 85.99,71.83 83.01,73.66
             74.76,78.74 68.73,84.79 63.66,93.01
             61.95,95.78 58.50,100.70 59.11,104.00
             59.52,106.22 62.95,110.90 64.31,113.00
             64.31,113.00 80.00,134.00 80.00,134.00
             91.13,148.07 96.70,158.94 96.03,177.04
             95.72,185.33 93.91,193.02 89.25,200.00
             83.47,208.67 76.33,216.65 67.00,221.60
             56.91,226.96 40.34,228.10 29.01,229.27
             23.85,229.81 7.81,231.95 4.70,235.43
             2.60,237.76 2.27,241.03 2.00,244.00 Z
           M 234.00,144.64
           C 234.00,144.64 245.00,144.04 245.00,144.04
             251.46,143.79 265.59,145.25 272.00,146.72
             309.25,155.26 338.57,181.70 352.79,217.00
             355.21,222.99 359.09,237.66 359.27,244.00
             359.27,244.00 359.27,251.00 359.27,251.00
             359.27,251.00 359.82,260.00 359.82,260.00
             359.82,260.00 359.27,266.00 359.27,266.00
             359.27,266.00 359.27,273.00 359.27,273.00
             359.14,278.40 355.47,292.78 353.56,298.00
             351.27,304.30 350.02,305.54 347.27,311.00
             330.46,344.32 297.46,368.42 260.00,372.26
             260.00,372.26 254.00,372.26 254.00,372.26
             254.00,372.26 245.00,372.91 245.00,372.91
             224.87,371.77 214.33,370.11 196.00,360.97
             196.00,360.97 187.42,356.62 187.42,356.62
             167.97,344.37 156.29,331.24 145.62,311.00
             142.29,304.69 140.21,300.96 138.03,294.00
             136.67,289.68 134.07,276.44 133.76,272.00
             133.76,272.00 133.76,266.00 133.76,266.00
             133.59,262.55 132.86,261.03 133.09,257.00
             133.72,245.91 134.54,234.75 137.72,224.00
             139.90,216.66 142.15,212.62 145.61,206.00
             155.61,186.91 170.01,169.89 189.17,159.36
             204.51,150.92 216.58,146.66 234.00,144.64 Z" />
</svg>
