<?xml version="1.0" encoding="UTF-8" standalone="no"?>
<!DOCTYPE svg PUBLIC "-//W3C//DTD SVG 20010904//EN"
              "http://www.w3.org/TR/2001/REC-SVG-20010904/DTD/svg10.dtd">

<svg xmlns="http://www.w3.org/2000/svg"
     width="135.486mm" height="135.486mm"
     viewBox="0 0 512 512">
  <path id="Selection"
        d="M 375.00,40.00
           C 375.00,40.00 365.18,81.99 365.18,81.99
             365.18,81.99 351.02,142.00 351.02,142.00
             351.02,142.00 344.49,170.01 344.49,170.01
             344.49,170.01 340.44,182.90 340.44,182.90
             340.44,182.90 327.00,192.88 327.00,192.88
             327.00,192.88 298.00,212.00 298.00,212.00
             294.67,203.69 286.72,193.30 280.00,187.42
             277.39,185.14 273.84,181.96 271.00,180.13
             259.61,172.78 239.56,167.14 226.00,168.09
             182.61,171.12 152.48,213.00 160.00,255.00
             154.34,253.39 152.44,254.28 147.00,253.91
             147.00,253.91 126.09,252.18 126.09,252.18
             121.70,252.00 109.96,252.21 106.58,250.15
             102.38,247.59 86.08,228.97 81.63,224.15
             81.63,224.15 74.09,216.99 74.09,216.99
             74.09,216.99 30.02,170.71 30.02,170.71
             24.17,164.57 9.21,147.49 3.00,144.00
             1.37,150.45 4.21,152.84 7.97,157.83
             7.97,157.83 20.71,175.00 20.71,175.00
             20.71,175.00 52.58,217.28 52.58,217.28
             52.58,217.28 74.74,247.28 74.74,247.28
             74.74,247.28 86.78,263.30 86.78,263.30
             89.31,266.85 90.65,270.09 95.04,271.66
             95.04,271.66 114.00,274.15 114.00,274.15
             114.00,274.15 149.00,278.50 149.00,278.50
             149.00,278.50 160.00,279.83 160.00,279.83
             167.94,280.73 168.56,280.96 173.00,288.00
             173.00,288.00 132.00,296.58 132.00,296.58
             126.98,297.68 117.01,298.92 113.00,301.58
             109.65,303.82 100.40,314.89 97.00,318.58
             97.00,318.58 73.72,345.00 73.72,345.00
             73.72,345.00 59.66,361.00 59.66,361.00
             59.66,361.00 28.30,396.00 28.30,396.00
             26.95,397.57 17.67,406.93 22.33,408.26
             25.92,409.28 32.61,401.39 35.00,399.00
             35.00,399.00 68.03,366.01 68.03,366.01
             68.03,366.01 79.01,355.91 79.01,355.91
             79.01,355.91 95.99,339.00 95.99,339.00
             100.20,334.70 110.26,323.80 115.00,321.39
             120.41,318.65 123.67,319.46 129.00,318.33
             129.00,318.33 158.96,312.37 158.96,312.37
             158.96,312.37 180.17,308.30 180.17,308.30
             182.55,307.90 187.94,306.55 190.00,306.83
             190.00,306.83 196.00,309.00 196.00,309.00
             196.00,309.00 156.00,328.45 156.00,328.45
             151.82,330.44 141.13,334.64 138.39,337.39
             136.03,339.75 133.54,345.75 131.83,349.00
             131.83,349.00 117.03,379.00 117.03,379.00
             117.03,379.00 101.86,410.00 101.86,410.00
             100.83,411.91 97.13,419.33 101.86,419.39
             104.36,419.43 106.92,415.45 108.23,413.71
             108.23,413.71 121.21,397.00 121.21,397.00
             121.21,397.00 143.63,369.00 143.63,369.00
             146.30,365.48 157.31,351.63 160.04,349.65
             162.93,347.55 176.78,342.45 181.00,340.81
             181.00,340.81 197.00,334.48 197.00,334.48
             198.89,333.82 201.62,332.64 203.49,333.86
             205.16,334.94 206.02,338.20 206.70,340.00
             209.56,347.50 210.45,346.99 205.00,354.00
             205.00,354.00 184.35,380.99 184.35,380.99
             182.74,383.26 178.13,388.57 177.99,391.01
             177.83,393.54 179.99,396.10 181.43,398.00
             181.43,398.00 192.04,411.09 192.04,411.09
             192.04,411.09 207.97,430.42 207.97,430.42
             207.97,430.42 230.08,458.00 230.08,458.00
             234.63,463.50 239.64,472.78 247.00,474.00
             246.39,466.06 239.58,457.69 235.37,451.00
             235.37,451.00 210.50,409.99 210.50,409.99
             208.08,405.84 199.29,394.11 199.29,390.00
             199.29,386.50 202.84,382.62 204.89,380.00
             208.44,375.44 214.54,367.02 217.00,362.00
             217.00,362.00 219.00,362.00 219.00,362.00
             232.03,385.18 265.37,399.77 285.26,375.83
             298.12,360.35 298.00,342.88 298.00,324.00
             298.00,324.00 339.84,344.00 339.84,344.00
             338.16,350.49 339.19,356.46 339.84,363.00
             339.84,363.00 339.00,393.00 339.00,393.00
             339.00,393.00 340.00,407.00 340.00,407.00
             340.00,407.00 340.00,429.00 340.00,429.00
             340.03,432.77 339.54,447.37 341.02,449.71
             341.96,451.20 342.66,451.24 344.00,452.00
             347.12,444.60 348.64,419.48 349.63,410.00
             349.63,410.00 353.83,375.00 353.83,375.00
             353.83,375.00 355.17,357.00 355.17,357.00
             355.17,357.00 356.97,342.96 356.97,342.96
             357.02,341.15 357.11,337.85 356.40,336.22
             354.76,332.46 344.75,328.51 341.00,326.83
             341.00,326.83 297.00,306.00 297.00,306.00
             297.00,306.00 328.42,299.91 328.42,299.91
             328.42,299.91 353.96,307.72 353.96,307.72
             353.96,307.72 391.01,319.85 391.01,319.85
             391.01,319.85 422.58,329.80 422.58,329.80
             425.34,330.67 430.89,333.56 433.58,331.90
             437.72,329.36 428.69,324.61 427.00,323.59
             427.00,323.59 394.00,304.86 394.00,304.86
             394.00,304.86 366.00,289.15 366.00,289.15
             362.05,286.88 354.05,281.55 350.09,280.64
             346.43,279.80 335.15,282.13 331.00,282.85
             331.00,282.85 293.00,289.00 293.00,289.00
             293.00,289.00 302.27,272.51 302.27,272.51
             302.27,272.51 314.00,267.81 314.00,267.81
             314.00,267.81 344.00,257.34 344.00,257.34
             344.00,257.34 377.00,245.95 377.00,245.95
             377.00,245.95 397.00,239.66 397.00,239.66
             397.00,239.66 430.00,244.73 430.00,244.73
             430.00,244.73 478.00,252.42 478.00,252.42
             478.00,252.42 508.00,257.00 508.00,257.00
             508.00,257.00 508.00,252.00 508.00,252.00
             508.00,252.00 469.00,242.48 469.00,242.48
             469.00,242.48 429.58,233.00 429.58,233.00
             429.58,233.00 401.00,225.77 401.00,225.77
             401.00,225.77 386.00,223.10 386.00,223.10
             386.00,223.10 366.00,228.97 366.00,228.97
             366.00,228.97 325.00,242.02 325.00,242.02
             325.00,242.02 305.00,248.00 305.00,248.00
             305.87,244.87 305.69,240.60 306.86,238.80
             308.76,235.89 317.81,229.57 321.00,227.26
             321.00,227.26 346.93,207.52 346.93,207.52
             350.48,204.91 361.97,197.12 363.43,193.68
             363.43,193.68 365.00,182.00 365.00,182.00
             365.00,182.00 368.14,153.00 368.14,153.00
             368.14,153.00 375.83,84.00 375.83,84.00
             375.83,84.00 381.00,41.00 381.00,41.00
             381.00,41.00 375.00,40.00 375.00,40.00 Z
           M 298.00,323.00
           C 298.00,323.00 298.00,324.00 298.00,324.00
             298.00,324.00 297.00,323.00 297.00,323.00
             297.00,323.00 298.00,323.00 298.00,323.00 Z" />
</svg>
