<?xml version="1.0" encoding="UTF-8" standalone="no"?>
<!DOCTYPE svg PUBLIC "-//W3C//DTD SVG 20010904//EN"
              "http://www.w3.org/TR/2001/REC-SVG-20010904/DTD/svg10.dtd">

<svg xmlns="http://www.w3.org/2000/svg"
     width="135.486mm" height="135.486mm"
     viewBox="0 0 512 512">
  <path id="Selection"
        d="M 248.00,104.52
           C 232.33,108.69 227.02,115.98 216.00,127.00
             216.00,127.00 187.00,156.00 187.00,156.00
             187.00,156.00 168.04,175.00 168.04,175.00
             168.04,175.00 158.99,185.00 158.99,185.00
             158.99,185.00 108.28,235.42 108.28,235.42
             108.28,235.42 60.28,283.58 60.28,283.58
             60.28,283.58 34.00,310.00 34.00,310.00
             27.21,316.79 20.16,322.91 16.45,332.00
             13.50,339.22 13.91,343.44 14.00,351.00
             14.19,366.88 24.28,375.84 35.01,386.09
             42.81,393.53 52.10,405.06 62.00,408.88
             68.24,411.30 73.48,411.07 80.00,411.00
             85.88,410.93 92.75,409.35 97.91,406.47
             102.30,404.02 121.71,384.50 126.42,379.72
             126.42,379.72 215.00,291.00 215.00,291.00
             215.00,291.00 245.91,260.00 245.91,260.00
             248.08,257.69 253.46,250.22 256.85,250.77
             258.97,251.12 265.18,258.18 267.00,260.00
             267.00,260.00 294.00,287.00 294.00,287.00
             294.00,287.00 385.10,378.33 385.10,378.33
             385.10,378.33 399.00,392.00 399.00,392.00
             409.73,402.72 416.76,410.81 433.00,411.00
             437.64,411.05 442.49,411.26 447.00,410.08
             460.33,406.56 470.59,394.42 480.00,385.00
             490.04,374.95 498.82,366.08 499.00,351.00
             499.08,344.23 499.25,338.45 496.68,332.00
             493.46,323.94 487.99,319.10 482.09,313.04
             482.09,313.04 453.00,284.00 453.00,284.00
             453.00,284.00 385.12,215.88 385.12,215.88
             385.12,215.88 352.01,183.00 352.01,183.00
             352.01,183.00 317.00,146.00 317.00,146.00
             317.00,146.00 298.00,127.00 298.00,127.00
             282.76,111.76 270.90,100.89 248.00,104.52 Z" />
</svg>
