<?xml version="1.0" encoding="UTF-8" standalone="no"?>
<!DOCTYPE svg PUBLIC "-//W3C//DTD SVG 20010904//EN"
              "http://www.w3.org/TR/2001/REC-SVG-20010904/DTD/svg10.dtd">

<svg xmlns="http://www.w3.org/2000/svg"
     width="135.486mm" height="135.486mm"
     viewBox="0 0 512 512">
  <path id="Selection"
        d="M 193.00,194.00
           C 193.00,194.00 44.00,194.00 44.00,194.00
             24.43,194.03 10.08,204.45 10.13,225.00
             10.13,225.00 10.13,286.00 10.13,286.00
             10.00,288.36 9.95,292.35 10.13,294.58
             13.67,310.62 29.02,317.98 44.00,318.00
             44.00,318.00 193.00,318.00 193.00,318.00
             193.00,318.00 193.00,468.00 193.00,468.00
             193.02,482.83 200.06,496.94 215.72,500.45
             218.31,501.03 222.30,501.00 225.00,501.00
             225.00,501.00 284.00,501.00 284.00,501.00
             286.66,501.00 290.91,501.06 293.42,500.47
             308.98,496.84 315.98,482.78 316.00,468.00
             316.00,468.00 316.00,318.00 316.00,318.00
             316.00,318.00 465.00,318.00 465.00,318.00
             485.30,317.97 498.97,306.91 498.87,286.00
             498.87,286.00 498.87,226.00 498.87,226.00
             499.00,223.64 499.05,219.65 498.87,217.42
             495.29,201.20 480.10,194.02 465.00,194.00
             465.00,194.00 316.00,194.00 316.00,194.00
             316.00,194.00 316.00,44.00 316.00,44.00
             315.97,23.37 304.83,11.03 284.00,11.00
             284.00,11.00 223.00,11.00 223.00,11.00
             204.85,11.03 193.21,24.18 193.00,42.00
             193.00,42.00 193.00,194.00 193.00,194.00 Z" />
</svg>
