<?xml version="1.0" encoding="UTF-8" standalone="no"?>
<!DOCTYPE svg PUBLIC "-//W3C//DTD SVG 20010904//EN"
              "http://www.w3.org/TR/2001/REC-SVG-20010904/DTD/svg10.dtd">

<svg xmlns="http://www.w3.org/2000/svg"
     width="135.486mm" height="135.486mm"
     viewBox="0 0 512 512">
  <path id="Selection"
        d="M 286.00,397.00
           C 286.00,397.00 259.00,369.00 259.00,369.00
             259.00,369.00 199.00,309.00 199.00,309.00
             199.00,309.00 168.00,277.00 168.00,277.00
             168.00,277.00 427.00,277.00 427.00,277.00
             427.00,277.00 427.00,235.00 427.00,235.00
             427.00,235.00 168.00,235.00 168.00,235.00
             168.00,235.00 208.00,194.00 208.00,194.00
             208.00,194.00 286.00,116.00 286.00,116.00
             281.64,109.91 269.85,98.81 264.00,93.00
             261.89,90.91 258.32,86.51 255.00,87.34
             252.46,87.97 246.13,94.87 244.00,97.00
             244.00,97.00 218.00,123.00 218.00,123.00
             218.00,123.00 124.00,217.00 124.00,217.00
             124.00,217.00 96.00,245.00 96.00,245.00
             93.79,247.21 87.20,252.93 87.20,256.00
             87.20,259.07 93.79,264.79 96.00,267.00
             96.00,267.00 124.00,295.00 124.00,295.00
             124.00,295.00 218.00,389.00 218.00,389.00
             218.00,389.00 244.00,415.00 244.00,415.00
             246.13,417.13 252.46,424.03 255.00,424.66
             258.32,425.49 261.89,421.09 264.00,419.00
             264.00,419.00 286.00,397.00 286.00,397.00 Z" />
</svg>
