<?xml version="1.0" encoding="UTF-8" standalone="no"?>
<!DOCTYPE svg PUBLIC "-//W3C//DTD SVG 20010904//EN"
              "http://www.w3.org/TR/2001/REC-SVG-20010904/DTD/svg10.dtd">

<svg xmlns="http://www.w3.org/2000/svg"
     width="135.486mm" height="135.486mm"
     viewBox="0 0 512 512">
  <path id="Selection"
        d="M 172.00,0.14
           C 172.00,0.14 147.00,3.28 147.00,3.28
             126.64,6.17 95.01,13.12 76.00,20.43
             76.00,20.43 55.00,29.69 55.00,29.69
             48.97,32.45 47.06,32.99 41.00,36.60
             27.05,44.92 5.40,62.95 0.79,79.00
             -0.36,82.99 -0.05,92.47 0.00,97.00
             0.24,116.24 24.06,135.42 39.00,144.95
             48.76,151.17 51.02,151.45 61.00,155.86
             79.35,163.97 89.49,167.40 109.00,171.89
             136.93,178.31 155.42,181.13 184.00,183.09
             184.00,183.09 194.00,184.00 194.00,184.00
             194.00,184.00 230.00,184.00 230.00,184.00
             230.00,184.00 242.00,182.96 242.00,182.96
             242.00,182.96 251.00,182.96 251.00,182.96
             275.67,180.48 292.89,177.75 317.00,171.90
             317.00,171.90 342.00,165.64 342.00,165.64
             352.54,162.10 362.99,157.36 373.00,152.51
             392.63,143.00 418.87,125.80 425.87,104.01
             427.25,99.72 427.05,91.64 427.00,87.00
             426.88,77.63 421.93,69.17 416.19,62.00
             404.84,47.81 389.02,38.41 373.00,30.40
             346.05,16.93 328.92,12.98 300.00,7.00
             287.07,4.32 259.69,0.02 247.00,0.14
             247.00,0.14 219.00,0.14 219.00,0.14
             219.00,0.14 172.00,0.14 172.00,0.14 Z
           M 0.00,138.00
           C 0.00,138.00 0.00,197.00 0.00,197.00
             0.04,220.88 22.30,237.07 41.00,247.99
             66.52,262.89 100.84,273.69 130.00,278.75
             130.00,278.75 145.00,280.42 145.00,280.42
             145.00,280.42 193.00,285.00 193.00,285.00
             193.00,285.00 234.00,285.00 234.00,285.00
             234.00,285.00 246.00,284.09 246.00,284.09
             246.00,284.09 282.00,280.42 282.00,280.42
             282.00,280.42 297.00,278.75 297.00,278.75
             322.22,274.37 353.16,264.82 376.00,253.40
             392.13,245.33 415.65,229.56 423.51,213.00
             426.53,206.63 426.99,202.89 427.00,196.00
             427.00,196.00 427.00,138.00 427.00,138.00
             421.73,140.44 411.12,150.01 405.00,154.28
             396.30,160.36 375.04,171.58 365.00,175.55
             348.13,182.23 318.77,191.24 301.00,194.39
             301.00,194.39 284.00,196.42 284.00,196.42
             284.00,196.42 244.00,201.00 244.00,201.00
             244.00,201.00 225.00,202.00 225.00,202.00
             225.00,202.00 202.00,202.00 202.00,202.00
             202.00,202.00 189.00,201.04 189.00,201.04
             189.00,201.04 136.00,195.43 136.00,195.43
             136.00,195.43 122.00,193.55 122.00,193.55
             122.00,193.55 82.00,182.66 82.00,182.66
             63.47,176.71 42.54,167.86 26.04,157.55
             26.04,157.55 0.00,138.00 0.00,138.00 Z
           M 0.00,242.00
           C 0.00,242.00 0.00,300.00 0.00,300.00
             0.02,311.24 4.77,318.52 11.92,326.99
             24.88,342.33 45.72,353.60 64.00,361.42
             82.97,369.53 82.94,368.85 102.00,373.88
             145.89,385.47 179.93,388.07 225.00,388.00
             225.00,388.00 241.00,387.00 241.00,387.00
             241.00,387.00 264.00,385.16 264.00,385.16
             267.31,384.81 280.42,383.59 282.69,382.42
             285.85,380.78 284.20,377.61 288.15,375.72
             288.15,375.72 309.00,371.59 309.00,371.59
             310.90,371.29 316.13,371.03 317.38,369.98
             320.10,367.69 316.72,363.12 315.33,361.00
             315.33,361.00 305.34,347.00 305.34,347.00
             303.95,345.18 301.27,342.45 301.62,340.00
             302.02,337.20 309.73,330.27 312.00,328.00
             318.75,321.25 336.32,304.54 341.00,298.00
             346.71,304.12 364.05,317.48 372.00,319.00
             372.00,319.00 376.12,295.00 376.12,295.00
             376.12,295.00 378.74,286.60 378.74,286.60
             378.74,286.60 386.00,285.00 386.00,285.00
             386.00,285.00 427.00,285.00 427.00,285.00
             427.00,285.00 427.00,243.00 427.00,243.00
             427.00,243.00 395.91,264.80 395.91,264.80
             387.86,269.95 358.70,281.97 349.00,284.98
             315.97,295.20 275.49,301.54 241.00,303.04
             241.00,303.04 228.00,304.00 228.00,304.00
             228.00,304.00 199.00,304.00 199.00,304.00
             199.00,304.00 180.00,303.00 180.00,303.00
             168.11,302.86 150.97,300.28 139.00,298.42
             114.86,294.68 85.74,288.31 63.00,279.57
             50.55,274.79 30.91,265.20 20.04,257.67
             20.04,257.67 0.00,242.00 0.00,242.00 Z
           M 304.00,391.00
           C 304.00,391.00 304.00,419.00 304.00,419.00
             304.00,419.00 324.00,422.25 324.00,422.25
             326.54,422.67 330.55,423.04 332.49,424.74
             334.39,426.39 335.99,431.51 337.01,434.00
             338.30,437.13 340.40,440.55 339.40,444.00
             338.50,447.09 330.67,457.50 328.26,461.13
             327.03,462.98 324.60,465.82 324.86,468.07
             325.14,470.55 328.11,473.30 329.80,475.00
             332.42,477.62 339.91,485.53 343.00,486.27
             345.88,486.96 348.76,484.80 351.00,483.28
             353.72,481.42 366.01,472.56 368.28,472.20
             370.72,471.80 374.61,474.02 377.00,474.94
             379.83,476.02 385.37,477.34 387.26,479.51
             388.96,481.45 389.33,485.47 389.75,488.00
             389.75,488.00 393.00,509.00 393.00,509.00
             393.00,509.00 421.00,509.00 421.00,509.00
             421.00,509.00 426.00,478.00 426.00,478.00
             436.36,476.40 441.19,470.90 446.00,472.35
             446.00,472.35 463.00,483.05 463.00,483.05
             466.28,485.08 469.12,487.58 473.00,485.36
             474.84,484.31 478.37,480.63 480.00,479.00
             482.23,476.77 487.59,471.96 488.26,469.00
             488.92,466.05 486.49,463.21 484.87,461.00
             482.67,457.99 473.87,446.83 473.43,444.00
             473.02,441.41 475.53,437.51 476.55,435.00
             477.57,432.48 478.73,427.43 480.56,425.73
             482.32,424.10 486.60,423.43 489.00,422.88
             489.00,422.88 509.00,419.00 509.00,419.00
             509.00,419.00 509.00,391.00 509.00,391.00
             509.00,391.00 489.00,387.75 489.00,387.75
             486.34,387.31 481.54,386.85 479.51,385.15
             477.48,383.45 475.85,377.69 474.72,375.00
             473.73,372.65 471.70,368.83 472.22,366.28
             472.22,366.28 483.14,349.00 483.14,349.00
             484.71,346.71 486.98,343.98 486.27,341.00
             485.68,338.52 482.75,335.78 481.00,334.00
             478.78,331.74 472.74,325.17 470.00,324.41
             466.90,323.56 463.68,326.34 461.42,328.12
             458.20,330.67 448.35,339.15 445.00,339.52
             442.64,339.78 439.27,337.93 437.00,337.06
             434.18,335.99 428.62,334.65 426.74,332.49
             424.98,330.48 424.86,326.62 424.39,324.00
             424.39,324.00 421.00,303.00 421.00,303.00
             421.00,303.00 400.00,303.00 400.00,303.00
             398.30,303.04 395.99,302.96 394.56,304.02
             392.50,305.54 392.15,309.62 391.75,312.00
             391.75,312.00 388.30,329.95 388.30,329.95
             386.35,334.21 377.39,337.62 373.00,339.16
             363.76,342.42 351.87,324.36 344.00,323.99
             340.05,323.80 329.78,334.78 327.24,338.00
             326.03,339.53 325.00,340.95 325.13,343.00
             325.40,347.27 338.31,361.57 339.31,366.00
             339.97,368.93 337.75,372.29 336.62,375.00
             335.59,377.46 334.07,382.81 332.44,384.49
             330.31,386.69 325.93,387.24 323.00,387.75
             323.00,387.75 304.00,391.00 304.00,391.00 Z
           M 0.00,344.00
           C 0.00,344.00 0.00,401.00 0.00,401.00
             0.02,414.54 5.20,420.29 13.72,430.00
             27.60,445.83 48.54,456.65 68.00,464.19
             100.87,476.92 121.30,481.01 156.00,485.15
             156.00,485.15 177.00,487.09 177.00,487.09
             177.00,487.09 187.00,488.04 187.00,488.04
             187.00,488.04 200.00,488.04 200.00,488.04
             200.00,488.04 210.00,489.00 210.00,489.00
             210.00,489.00 231.00,488.00 231.00,488.00
             231.00,488.00 270.00,485.16 270.00,485.16
             280.02,484.09 297.70,481.75 307.00,479.00
             305.01,474.84 304.16,473.99 300.00,472.00
             300.00,472.00 314.46,450.00 314.46,450.00
             315.71,448.00 319.48,443.55 319.09,441.31
             318.65,438.76 313.09,438.21 311.00,437.80
             307.24,437.08 289.26,434.35 287.31,432.99
             284.94,431.33 285.05,428.59 285.00,426.00
             285.00,426.00 285.00,400.00 285.00,400.00
             285.00,400.00 249.00,403.91 249.00,403.91
             249.00,403.91 195.00,405.00 195.00,405.00
             195.00,405.00 183.00,404.00 183.00,404.00
             183.00,404.00 175.00,404.00 175.00,404.00
             175.00,404.00 136.00,399.27 136.00,399.27
             104.97,394.70 92.75,391.96 63.00,381.05
             63.00,381.05 43.00,373.03 43.00,373.03
             43.00,373.03 15.00,356.10 15.00,356.10
             15.00,356.10 0.00,344.00 0.00,344.00 Z
           M 401.00,377.32
           C 412.30,376.09 423.93,379.30 430.73,389.17
             433.95,393.85 434.93,399.43 435.00,405.00
             435.17,419.83 428.82,432.01 413.00,434.56
             405.42,435.78 395.59,435.09 389.09,430.67
             371.20,418.52 371.28,383.99 401.00,377.32 Z" />
</svg>
