<?xml version="1.0" encoding="UTF-8" standalone="no"?>
<!DOCTYPE svg PUBLIC "-//W3C//DTD SVG 20010904//EN"
              "http://www.w3.org/TR/2001/REC-SVG-20010904/DTD/svg10.dtd">

<svg xmlns="http://www.w3.org/2000/svg"
     width="423.392mm" height="423.392mm"
     viewBox="0 0 1600 1600">
  <path id="Selection"
        d="M 500.00,300.00
           C 500.00,300.00 200.00,300.00 200.00,300.00
             200.00,300.00 200.00,400.00 200.00,400.00
             200.00,400.00 300.00,400.00 300.00,400.00
             300.00,400.00 300.00,1258.00 300.00,1258.00
             300.02,1268.58 302.67,1281.81 305.58,1292.00
             320.45,1344.12 363.09,1384.59 416.00,1396.42
             424.63,1398.35 434.16,1399.99 443.00,1400.00
             443.00,1400.00 1057.00,1400.00 1057.00,1400.00
             1065.84,1399.99 1075.37,1398.35 1084.00,1396.42
             1139.73,1383.96 1183.96,1339.73 1196.42,1284.00
             1197.94,1277.23 1199.92,1266.82 1200.00,1260.00
             1200.00,1260.00 1200.00,1164.00 1200.00,1164.00
             1200.00,1164.00 1200.00,973.00 1200.00,973.00
             1200.00,973.00 1200.00,400.00 1200.00,400.00
             1200.00,400.00 1300.00,400.00 1300.00,400.00
             1300.00,400.00 1300.00,300.00 1300.00,300.00
             1300.00,300.00 1000.00,300.00 1000.00,300.00
             1000.00,300.00 1000.00,242.00 1000.00,242.00
             999.97,225.80 994.68,205.84 988.28,191.00
             982.49,177.58 975.19,165.19 965.73,154.00
             944.61,129.02 917.79,111.84 886.00,103.89
             864.92,98.63 843.53,100.00 822.00,100.00
             822.00,100.00 729.00,100.00 729.00,100.00
             729.00,100.00 667.00,100.00 667.00,100.00
             647.34,100.00 635.70,99.02 616.00,103.42
             588.98,109.47 562.56,124.47 543.01,144.01
             519.05,167.98 500.05,207.70 500.00,242.00
             500.00,242.00 500.00,300.00 500.00,300.00 Z
           M 900.00,300.00
           C 900.00,300.00 600.00,300.00 600.00,300.00
             600.00,300.00 600.00,253.00 600.00,253.00
             600.01,247.24 600.64,240.51 602.35,235.00
             603.93,229.87 605.69,225.45 608.77,221.00
             624.99,197.58 648.11,200.00 673.00,200.00
             673.00,200.00 727.00,200.00 727.00,200.00
             727.00,200.00 848.00,200.00 848.00,200.00
             866.01,200.21 882.83,207.16 892.53,223.00
             900.06,235.29 900.00,248.21 900.00,262.00
             900.00,262.00 900.00,300.00 900.00,300.00 Z
           M 600.00,500.00
           C 600.00,500.00 600.00,1200.00 600.00,1200.00
             600.00,1200.00 500.00,1200.00 500.00,1200.00
             500.00,1200.00 500.00,500.00 500.00,500.00
             500.00,500.00 600.00,500.00 600.00,500.00 Z
           M 800.00,500.00
           C 800.00,500.00 800.00,1200.00 800.00,1200.00
             800.00,1200.00 700.00,1200.00 700.00,1200.00
             700.00,1200.00 700.00,500.00 700.00,500.00
             700.00,500.00 800.00,500.00 800.00,500.00 Z
           M 1000.00,500.00
           C 1000.00,500.00 1000.00,1200.00 1000.00,1200.00
             1000.00,1200.00 900.00,1200.00 900.00,1200.00
             900.00,1200.00 900.00,500.00 900.00,500.00
             900.00,500.00 1000.00,500.00 1000.00,500.00 Z" />
</svg>
