<?xml version="1.0" encoding="UTF-8" standalone="no"?>
<!DOCTYPE svg PUBLIC "-//W3C//DTD SVG 20010904//EN"
              "http://www.w3.org/TR/2001/REC-SVG-20010904/DTD/svg10.dtd">

<svg xmlns="http://www.w3.org/2000/svg"
     width="135.486mm" height="135.486mm"
     viewBox="0 0 512 512">
  <path id="Selection"
        d="M 34.00,140.00
           C 34.00,140.00 80.00,160.28 80.00,160.28
             80.00,160.28 174.00,200.42 174.00,200.42
             174.00,200.42 222.00,220.85 222.00,220.85
             222.00,220.85 246.00,230.58 246.00,230.58
             250.77,231.27 260.34,226.29 265.00,224.28
             265.00,224.28 306.00,207.00 306.00,207.00
             306.00,207.00 418.00,159.58 418.00,159.58
             418.00,159.58 462.00,141.00 462.00,141.00
             462.00,141.00 462.00,139.00 462.00,139.00
             462.00,139.00 404.00,114.42 404.00,114.42
             404.00,114.42 310.00,74.58 310.00,74.58
             310.00,74.58 267.00,56.28 267.00,56.28
             267.00,56.28 247.00,48.76 247.00,48.76
             247.00,48.76 228.00,56.15 228.00,56.15
             228.00,56.15 184.00,75.15 184.00,75.15
             184.00,75.15 88.00,116.58 88.00,116.58
             88.00,116.58 34.00,140.00 34.00,140.00 Z
           M 32.00,155.00
           C 32.00,155.00 32.00,357.00 32.00,357.00
             32.02,367.08 32.87,365.82 47.00,372.31
             47.00,372.31 82.00,389.00 82.00,389.00
             82.00,389.00 116.00,405.22 116.00,405.22
             116.00,405.22 197.00,443.31 197.00,443.31
             197.00,443.31 241.00,464.00 241.00,464.00
             241.00,464.00 241.00,251.00 241.00,251.00
             240.98,241.71 241.01,243.17 227.00,237.15
             227.00,237.15 193.00,222.72 193.00,222.72
             193.00,222.72 91.00,179.58 91.00,179.58
             91.00,179.58 32.00,155.00 32.00,155.00 Z
           M 256.00,464.00
           C 256.00,464.00 309.00,438.78 309.00,438.78
             309.00,438.78 416.00,388.22 416.00,388.22
             416.00,388.22 448.00,372.86 448.00,372.86
             463.33,366.03 463.98,366.67 464.00,357.00
             464.00,357.00 464.00,155.00 464.00,155.00
             464.00,155.00 410.00,177.58 410.00,177.58
             410.00,177.58 304.00,222.58 304.00,222.58
             304.00,222.58 272.00,236.15 272.00,236.15
             272.00,236.15 257.60,242.81 257.60,242.81
             257.60,242.81 256.00,251.00 256.00,251.00
             256.00,251.00 256.00,464.00 256.00,464.00 Z" />
</svg>
