<?xml version="1.0" encoding="UTF-8" standalone="no"?>
<!DOCTYPE svg PUBLIC "-//W3C//DTD SVG 20010904//EN"
              "http://www.w3.org/TR/2001/REC-SVG-20010904/DTD/svg10.dtd">

<svg xmlns="http://www.w3.org/2000/svg"
     width="135.486mm" height="135.486mm"
     viewBox="0 0 512 512">
  <path id="Selection"
        d="M 68.00,101.46
           C 54.41,104.49 49.45,111.57 40.00,121.00
             28.22,132.77 14.22,142.83 14.00,161.00
             13.91,168.56 13.50,172.78 16.45,180.00
             19.94,188.55 25.63,193.63 32.00,200.00
             32.00,200.00 54.96,222.99 54.96,222.99
             54.96,222.99 157.00,325.00 157.00,325.00
             157.00,325.00 182.00,351.00 182.00,351.00
             182.00,351.00 218.00,387.00 218.00,387.00
             228.66,397.66 237.69,407.80 254.00,408.00
             276.86,408.27 285.76,397.24 301.00,382.00
             301.00,382.00 325.28,357.00 325.28,357.00
             325.28,357.00 342.96,339.00 342.96,339.00
             342.96,339.00 351.04,330.00 351.04,330.00
             351.04,330.00 385.12,296.12 385.12,296.12
             385.12,296.12 451.00,230.00 451.00,230.00
             451.00,230.00 481.17,199.91 481.17,199.91
             491.63,189.13 498.81,183.01 499.00,167.00
             499.06,161.43 499.28,156.38 497.53,151.00
             493.65,139.07 481.68,128.67 473.00,120.00
             462.95,109.96 454.09,101.18 439.00,101.00
             429.66,100.89 423.73,101.01 415.18,105.62
             411.60,107.55 404.04,114.97 401.00,118.00
             401.00,118.00 382.70,136.17 382.70,136.17
             382.70,136.17 303.00,216.00 303.00,216.00
             303.00,216.00 268.00,251.00 268.00,251.00
             265.49,253.51 258.79,262.34 255.05,261.01
             252.66,260.16 247.04,253.16 244.96,251.00
             244.96,251.00 220.00,226.00 220.00,226.00
             220.00,226.00 132.00,138.00 132.00,138.00
             132.00,138.00 112.00,118.00 112.00,118.00
             109.27,115.29 100.92,107.21 97.91,105.53
             89.36,100.75 77.53,100.15 68.00,101.46 Z" />
</svg>
