<?xml version="1.0" encoding="UTF-8" standalone="no"?>
<!DOCTYPE svg PUBLIC "-//W3C//DTD SVG 20010904//EN"
              "http://www.w3.org/TR/2001/REC-SVG-20010904/DTD/svg10.dtd">

<svg xmlns="http://www.w3.org/2000/svg"
     width="135.486mm" height="135.486mm"
     viewBox="0 0 512 512">
  <path id="Selection"
        d="M 234.00,259.00
           C 234.00,259.00 204.00,229.00 204.00,229.00
             197.72,222.72 183.84,206.90 176.00,204.64
             158.93,199.70 142.77,214.57 147.79,232.00
             150.52,241.52 163.84,252.84 171.00,260.00
             171.00,260.00 226.00,315.00 226.00,315.00
             233.96,322.96 243.85,336.00 256.00,335.92
             268.23,335.83 278.00,323.00 286.00,315.00
             286.00,315.00 341.00,260.00 341.00,260.00
             347.97,253.03 361.54,241.26 364.21,232.00
             369.23,214.63 353.00,199.72 336.00,204.64
             328.16,206.90 314.28,222.72 308.00,229.00
             308.00,229.00 278.00,259.00 278.00,259.00
             278.00,259.00 278.00,50.00 278.00,50.00
             277.99,44.08 277.81,39.21 274.44,34.04
             266.58,22.00 249.30,20.64 239.68,31.30
             234.55,36.98 234.01,41.75 234.00,49.00
             234.00,49.00 234.00,259.00 234.00,259.00 Z
           M 74.00,325.48
           C 60.34,327.82 53.19,336.03 53.00,350.00
             53.00,350.00 53.00,461.00 53.00,461.00
             53.02,471.70 56.16,481.84 67.00,486.22
             73.21,488.74 85.00,488.00 92.00,488.00
             92.00,488.00 141.00,488.00 141.00,488.00
             141.00,488.00 432.00,488.00 432.00,488.00
             450.22,487.97 458.97,479.39 459.00,461.00
             459.00,461.00 459.00,353.00 459.00,353.00
             458.99,345.15 457.73,337.63 451.96,331.78
             443.21,322.91 427.51,323.48 419.53,333.09
             414.95,338.60 414.01,344.13 414.00,351.00
             414.00,351.00 414.00,434.00 414.00,434.00
             413.98,442.63 412.63,443.98 404.00,444.00
             404.00,444.00 343.00,444.00 343.00,444.00
             343.00,444.00 108.00,444.00 108.00,444.00
             105.46,443.99 101.52,444.32 99.60,442.40
             97.96,440.77 98.04,438.14 98.00,436.00
             98.00,436.00 98.00,414.00 98.00,414.00
             98.00,414.00 98.00,351.00 98.00,351.00
             97.98,336.42 89.73,324.63 74.00,325.48 Z" />
</svg>
