<?xml version="1.0" encoding="UTF-8" standalone="no"?>
<!DOCTYPE svg PUBLIC "-//W3C//DTD SVG 20010904//EN"
              "http://www.w3.org/TR/2001/REC-SVG-20010904/DTD/svg10.dtd">

<svg xmlns="http://www.w3.org/2000/svg"
     width="135.486mm" height="135.486mm"
     viewBox="0 0 512 512">
  <path id="Selection"
        d="M 383.00,32.59
           C 365.68,37.47 362.44,40.54 349.42,53.08
             346.80,55.61 339.93,60.81 340.66,64.71
             341.06,66.77 344.45,69.58 345.91,71.17
             345.91,71.17 361.91,87.42 361.91,87.42
             361.91,87.42 397.17,120.83 397.17,120.83
             397.17,120.83 405.48,127.00 405.48,127.00
             405.48,127.00 421.83,142.20 421.83,142.20
             421.83,142.20 453.00,171.42 453.00,171.42
             456.70,174.97 461.20,181.14 466.89,179.57
             470.14,178.68 475.08,172.41 477.66,169.88
             489.14,158.66 498.46,149.38 497.98,132.00
             497.87,127.75 497.37,126.95 496.27,123.00
             496.27,123.00 493.32,113.42 493.32,113.42
             491.14,108.58 481.15,97.93 476.99,94.00
             476.99,94.00 436.42,56.12 436.42,56.12
             423.23,44.17 418.87,38.13 401.00,33.43
             394.77,31.79 389.38,31.43 383.00,32.59 Z
           M 319.00,79.05
           C 312.18,83.25 310.60,87.01 305.56,90.87
             301.22,94.20 293.18,98.42 291.40,104.00
             290.37,107.23 292.95,109.82 295.04,111.91
             295.04,111.91 310.96,126.82 310.96,126.82
             310.96,126.82 376.93,188.75 376.93,188.75
             376.93,188.75 408.91,218.59 408.91,218.59
             412.31,221.64 416.76,227.95 421.92,226.22
             427.28,224.43 440.71,211.30 445.46,206.99
             447.93,204.75 451.90,201.93 450.96,198.09
             450.37,195.65 446.81,192.69 445.00,190.98
             445.00,190.98 428.00,175.00 428.00,175.00
             428.00,175.00 408.51,157.00 408.51,157.00
             408.51,157.00 360.00,111.08 360.00,111.08
             360.00,111.08 333.56,86.12 333.56,86.12
             329.05,81.95 325.53,77.45 319.00,79.05 Z
           M 273.16,122.92
           C 268.36,125.13 264.65,129.33 260.74,132.96
             260.74,132.96 238.91,153.59 238.91,153.59
             238.91,153.59 187.74,201.96 187.74,201.96
             187.74,201.96 152.00,235.04 152.00,235.04
             152.00,235.04 136.00,249.91 136.00,249.91
             136.00,249.91 128.00,256.13 128.00,256.13
             128.00,256.13 92.00,289.91 92.00,289.91
             84.16,297.21 73.04,306.81 66.80,315.00
             61.55,321.91 62.17,324.36 59.72,332.00
             59.72,332.00 55.32,344.00 55.32,344.00
             55.32,344.00 51.86,356.91 51.86,356.91
             51.86,356.91 43.97,381.00 43.97,381.00
             43.97,381.00 27.14,437.00 27.14,437.00
             25.64,441.78 20.19,458.94 20.21,463.00
             20.23,467.58 24.23,474.93 28.12,477.36
             41.29,485.59 57.38,477.17 71.00,474.22
             71.00,474.22 105.00,465.09 105.00,465.09
             105.00,465.09 113.00,463.42 113.00,463.42
             113.00,463.42 128.00,458.44 128.00,458.44
             128.00,458.44 171.00,446.72 171.00,446.72
             171.00,446.72 193.00,440.29 193.00,440.29
             199.28,437.78 202.32,433.82 207.17,429.49
             207.17,429.49 233.71,404.46 233.71,404.46
             233.71,404.46 260.01,380.01 260.01,380.01
             260.01,380.01 272.70,369.66 272.70,369.66
             272.70,369.66 318.99,326.07 318.99,326.07
             318.99,326.07 382.00,266.96 382.00,266.96
             382.00,266.96 397.01,252.91 397.01,252.91
             399.54,250.47 402.48,247.75 402.81,244.04
             403.14,240.29 400.42,237.63 397.91,235.27
             397.91,235.27 379.83,218.58 379.83,218.58
             372.13,213.41 365.52,222.49 360.56,227.20
             360.56,227.20 317.17,267.68 317.17,267.68
             317.17,267.68 215.46,363.35 215.46,363.35
             215.46,363.35 186.00,391.07 186.00,391.07
             186.00,391.07 170.96,404.79 170.96,404.79
             166.86,407.24 159.13,408.52 153.96,410.32
             153.96,410.32 141.00,413.58 141.00,413.58
             141.00,413.58 110.00,422.43 110.00,422.43
             107.06,423.18 96.22,426.47 94.00,426.12
             90.89,425.62 82.18,417.54 80.32,414.82
             77.65,410.90 81.40,402.53 82.77,398.00
             82.77,398.00 90.30,375.00 90.30,375.00
             90.30,375.00 97.53,351.00 97.53,351.00
             98.89,347.07 100.69,340.10 102.77,337.00
             105.30,333.23 112.36,327.48 116.00,323.96
             116.00,323.96 148.04,293.83 148.04,293.83
             148.04,293.83 197.01,247.34 197.01,247.34
             197.01,247.34 258.87,189.58 258.87,189.58
             258.87,189.58 287.99,162.09 287.99,162.09
             290.77,159.44 299.49,151.97 300.78,148.92
             302.44,145.02 298.90,142.52 296.42,140.08
             293.59,137.30 280.31,124.30 277.71,122.92
             275.64,122.14 275.21,122.47 273.16,122.92 Z
           M 113.00,358.00
           C 118.91,360.94 125.55,362.03 132.00,363.30
             134.67,363.84 139.98,364.83 141.67,367.03
             143.78,369.78 144.12,377.20 145.14,381.00
             146.12,384.63 146.75,389.81 151.99,388.09
             154.39,387.30 159.33,382.49 162.01,380.62
             162.01,380.62 196.52,348.96 196.52,348.96
             196.52,348.96 218.17,328.41 218.17,328.41
             218.17,328.41 308.96,243.17 308.96,243.17
             308.96,243.17 344.17,210.08 344.17,210.08
             347.13,207.34 355.27,201.73 354.12,197.17
             353.54,194.89 348.44,190.74 346.58,188.85
             346.58,188.85 326.20,169.87 326.20,169.87
             323.28,167.20 320.30,164.29 316.00,165.76
             312.44,166.97 302.22,177.34 298.92,180.58
             298.92,180.58 282.00,196.09 282.00,196.09
             282.00,196.09 265.08,212.58 265.08,212.58
             265.08,212.58 158.00,312.98 158.00,312.98
             158.00,312.98 127.00,342.01 127.00,342.01
             121.99,346.89 115.93,351.55 113.00,358.00 Z" />
</svg>
