<?xml version="1.0" encoding="UTF-8" standalone="no"?>
<!DOCTYPE svg PUBLIC "-//W3C//DTD SVG 20010904//EN"
              "http://www.w3.org/TR/2001/REC-SVG-20010904/DTD/svg10.dtd">

<svg xmlns="http://www.w3.org/2000/svg"
     width="135.486mm" height="135.486mm"
     viewBox="0 0 512 512">
  <path id="Selection"
        d="M 465.00,31.59
           C 465.00,31.59 436.17,38.74 436.17,38.74
             436.17,38.74 407.00,46.91 407.00,46.91
             407.00,46.91 398.00,48.87 398.00,48.87
             398.00,48.87 385.00,53.29 385.00,53.29
             385.00,53.29 378.00,54.70 378.00,54.70
             378.00,54.70 363.00,59.09 363.00,59.09
             352.68,62.01 323.89,68.76 316.00,73.11
             311.81,75.41 301.81,85.29 298.00,88.99
             298.00,88.99 271.57,113.80 271.57,113.80
             271.57,113.80 251.99,131.99 251.99,131.99
             251.99,131.99 240.17,141.54 240.17,141.54
             240.17,141.54 190.17,188.57 190.17,188.57
             190.17,188.57 135.83,239.80 135.83,239.80
             135.83,239.80 119.49,255.04 119.49,255.04
             116.68,257.57 111.65,261.72 110.02,265.00
             106.51,272.06 114.60,276.99 119.00,281.09
             119.00,281.09 127.83,289.42 127.83,289.42
             130.44,291.87 132.19,294.41 136.00,294.84
             142.68,295.59 148.62,287.30 153.17,283.20
             153.17,283.20 192.96,246.08 192.96,246.08
             192.96,246.08 296.54,148.65 296.54,148.65
             296.54,148.65 326.00,120.93 326.00,120.93
             326.00,120.93 341.04,107.21 341.04,107.21
             345.76,104.39 348.14,104.84 352.72,103.59
             352.72,103.59 368.00,99.07 368.00,99.07
             368.00,99.07 380.99,95.26 380.99,95.26
             380.99,95.26 390.03,93.26 390.03,93.26
             390.03,93.26 405.00,88.69 405.00,88.69
             409.55,87.43 416.86,84.59 420.96,87.07
             423.69,88.72 432.44,96.96 432.89,100.01
             433.21,102.23 427.90,117.79 426.83,121.00
             426.83,121.00 420.01,144.00 420.01,144.00
             420.01,144.00 417.48,150.84 417.48,150.84
             417.48,150.84 409.85,174.00 409.85,174.00
             407.22,178.50 400.03,184.14 396.00,188.04
             396.00,188.04 362.00,220.04 362.00,220.04
             362.00,220.04 306.17,272.58 306.17,272.58
             306.17,272.58 246.83,328.46 246.83,328.46
             246.83,328.46 218.61,354.88 218.61,354.88
             216.11,357.24 210.08,362.20 210.82,365.92
             211.41,368.83 221.43,377.51 223.99,379.92
             226.61,382.39 232.72,388.95 236.07,389.48
             241.14,390.27 249.76,380.34 253.51,376.96
             253.51,376.96 297.91,335.29 297.91,335.29
             297.91,335.29 369.42,267.88 369.42,267.88
             369.42,267.88 383.00,256.74 383.00,256.74
             383.00,256.74 392.58,247.74 392.58,247.74
             392.58,247.74 428.74,213.74 428.74,213.74
             435.44,207.15 442.28,202.15 447.44,194.00
             449.99,189.96 451.07,183.61 452.62,179.00
             452.62,179.00 463.31,146.00 463.31,146.00
             463.31,146.00 482.92,81.41 482.92,81.41
             482.92,81.41 491.75,50.00 491.75,50.00
             492.00,46.94 491.04,44.67 489.69,42.00
             484.63,31.99 475.50,29.67 465.00,31.59 Z
           M 399.00,154.00
           C 393.09,151.06 386.45,149.97 380.00,148.70
             377.33,148.16 372.02,147.17 370.33,144.97
             368.22,142.22 367.88,134.80 366.86,131.00
             365.88,127.37 365.25,122.19 360.01,123.91
             357.61,124.70 352.67,129.51 349.99,131.38
             349.99,131.38 315.48,163.04 315.48,163.04
             315.48,163.04 293.83,183.59 293.83,183.59
             293.83,183.59 203.04,268.83 203.04,268.83
             203.04,268.83 167.83,301.92 167.83,301.92
             164.87,304.66 156.73,310.27 157.88,314.83
             158.46,317.11 163.56,321.26 165.42,323.15
             165.42,323.15 185.80,342.13 185.80,342.13
             188.72,344.80 191.70,347.71 196.00,346.24
             199.56,345.03 209.78,334.66 213.08,331.42
             213.08,331.42 230.00,315.91 230.00,315.91
             230.00,315.91 246.92,299.42 246.92,299.42
             246.92,299.42 354.00,199.02 354.00,199.02
             354.00,199.02 385.00,169.99 385.00,169.99
             390.01,165.11 396.07,160.45 399.00,154.00 Z
           M 90.08,285.78
           C 81.39,290.42 74.50,297.68 67.33,304.29
             64.97,306.47 60.75,309.42 60.88,312.96
             61.00,316.08 65.82,319.93 68.00,321.98
             68.00,321.98 89.91,342.70 89.91,342.70
             89.91,342.70 157.19,405.77 157.19,405.77
             157.19,405.77 176.00,423.58 176.00,423.58
             178.80,426.28 184.53,431.92 188.00,433.09
             191.35,434.22 193.31,433.06 195.91,431.04
             195.91,431.04 205.61,421.79 205.61,421.79
             209.44,418.57 210.47,419.47 215.98,413.98
             218.26,411.72 221.74,408.57 220.60,405.00
             219.60,401.86 214.56,397.98 212.09,395.75
             212.09,395.75 192.82,377.68 192.82,377.68
             192.82,377.68 121.91,310.82 121.91,310.82
             121.91,310.82 102.17,292.59 102.17,292.59
             98.08,288.80 96.18,284.89 90.08,285.78 Z
           M 446.00,482.00
           C 446.00,482.00 446.00,461.00 446.00,461.00
             446.00,461.00 334.00,461.00 334.00,461.00
             334.00,461.00 319.00,460.00 319.00,460.00
             319.00,460.00 163.00,460.00 163.00,460.00
             165.92,454.32 172.16,451.66 171.34,447.29
             170.94,445.21 166.82,441.68 165.29,439.93
             165.29,439.93 148.29,422.87 148.29,422.87
             148.29,422.87 114.83,391.17 114.83,391.17
             114.83,391.17 105.76,384.33 105.76,384.33
             105.76,384.33 79.17,359.42 79.17,359.42
             79.17,359.42 59.00,340.58 59.00,340.58
             56.66,338.33 51.78,333.01 48.83,332.31
             43.05,330.94 38.71,337.73 35.12,341.34
             23.44,353.07 13.52,361.83 14.02,380.00
             14.13,384.25 14.63,385.05 15.73,389.00
             19.23,401.52 22.74,406.02 32.17,415.28
             32.17,415.28 75.58,455.88 75.58,455.88
             90.23,469.15 100.76,479.97 122.00,480.00
             122.00,480.00 193.00,480.00 193.00,480.00
             193.00,480.00 208.00,481.00 208.00,481.00
             208.00,481.00 355.00,481.00 355.00,481.00
             355.00,481.00 370.00,482.00 370.00,482.00
             370.00,482.00 446.00,482.00 446.00,482.00 Z" />
</svg>
