<?xml version="1.0" encoding="UTF-8" standalone="no"?>
<!DOCTYPE svg PUBLIC "-//W3C//DTD SVG 20010904//EN"
              "http://www.w3.org/TR/2001/REC-SVG-20010904/DTD/svg10.dtd">

<svg xmlns="http://www.w3.org/2000/svg"
     width="135.486mm" height="135.486mm"
     viewBox="0 0 512 512">
  <path id="Selection"
        d="M 142.00,68.08
           C 142.00,68.08 99.00,68.08 99.00,68.08
             99.00,68.08 75.17,68.08 75.17,68.08
             75.17,68.08 67.00,70.53 67.00,70.53
             62.04,71.98 52.72,78.59 49.48,82.58
             45.69,87.24 41.09,99.01 41.00,105.00
             41.00,105.00 41.00,141.00 41.00,141.00
             41.00,142.99 40.77,146.81 42.02,148.40
             43.37,150.10 46.05,149.96 48.00,150.00
             48.00,150.00 65.00,150.00 65.00,150.00
             65.00,150.00 140.00,150.00 140.00,150.00
             140.00,150.00 464.00,150.00 464.00,150.00
             465.99,150.00 469.81,150.23 471.40,148.98
             473.93,146.97 473.00,133.58 473.00,130.00
             473.00,130.00 473.00,105.00 473.00,105.00
             472.88,97.15 466.55,84.59 460.87,79.26
             447.81,66.98 434.32,68.00 418.00,68.00
             418.00,68.00 371.00,68.00 371.00,68.00
             371.00,68.00 371.00,31.00 371.00,31.00
             371.00,31.00 370.00,18.00 370.00,18.00
             363.37,12.89 363.96,10.65 357.00,10.87
             357.00,10.87 351.00,10.87 351.00,10.87
             340.68,10.54 337.11,20.24 337.00,29.00
             337.00,29.00 337.00,68.00 337.00,68.00
             337.00,68.00 175.00,68.00 175.00,68.00
             175.00,68.00 175.00,26.00 175.00,26.00
             174.99,23.36 175.19,20.41 173.98,18.00
             170.52,11.14 165.58,11.16 159.00,10.91
             159.00,10.91 154.09,10.91 154.09,10.91
             151.62,11.23 150.60,12.39 148.85,14.02
             143.74,18.78 142.12,20.92 142.00,28.00
             142.00,28.00 142.00,68.08 142.00,68.08 Z
           M 176.00,87.00
           C 179.56,90.83 182.82,95.41 184.84,100.28
             186.14,103.42 186.03,106.67 186.00,110.00
             185.96,113.38 185.69,117.42 184.32,120.54
             181.77,126.38 173.13,133.78 166.99,135.50
             164.76,136.12 161.37,136.01 159.00,136.00
             145.57,135.92 133.23,124.67 133.00,111.00
             132.81,99.32 133.89,98.04 141.00,89.00
             144.89,98.80 137.69,108.77 147.27,120.49
             150.64,124.61 158.92,127.18 164.00,125.26
             166.26,124.40 168.19,122.71 169.98,121.13
             171.69,119.62 173.54,118.09 174.40,115.91
             175.12,114.10 175.00,110.99 175.00,109.00
             175.01,103.57 174.21,91.52 176.00,87.00 Z
           M 337.00,89.00
           C 337.00,96.51 335.58,111.99 340.27,117.71
             342.50,120.43 346.63,124.29 350.00,125.35
             353.58,126.48 357.35,125.92 360.71,124.41
             368.65,120.85 370.89,115.46 371.00,107.00
             371.00,107.00 371.00,89.00 371.00,89.00
             376.60,92.67 377.02,93.81 379.25,100.00
             384.12,113.54 379.17,124.75 367.28,132.23
             361.12,136.47 346.93,138.82 342.00,132.23
             336.76,131.68 332.14,125.97 330.01,121.39
             324.46,109.47 326.52,97.33 337.00,89.00 Z
           M 41.00,166.00
           C 41.00,166.00 41.00,462.00 41.00,462.00
             41.01,468.32 42.32,474.45 45.52,480.00
             47.91,484.14 49.33,484.76 52.49,487.88
             59.91,495.22 66.13,499.98 77.00,500.00
             77.00,500.00 132.00,500.00 132.00,500.00
             132.00,500.00 437.00,500.00 437.00,500.00
             445.07,499.98 444.25,499.71 451.13,496.15
             456.79,493.22 455.67,493.37 460.09,489.00
             462.82,486.30 465.75,484.30 467.74,480.98
             471.00,475.52 472.96,469.33 473.00,463.00
             473.00,463.00 473.00,426.00 473.00,426.00
             473.00,426.00 473.00,175.00 473.00,175.00
             473.00,173.01 473.23,169.19 471.98,167.60
             470.63,165.90 467.95,166.04 466.00,166.00
             466.00,166.00 449.00,166.00 449.00,166.00
             449.00,166.00 372.00,166.00 372.00,166.00
             372.00,166.00 41.00,166.00 41.00,166.00 Z
           M 147.00,199.00
           C 147.00,199.00 147.00,272.00 147.00,272.00
             147.00,272.00 74.00,272.00 74.00,272.00
             74.00,272.00 74.00,199.00 74.00,199.00
             74.00,199.00 147.00,199.00 147.00,199.00 Z
           M 245.00,199.00
           C 245.00,199.00 245.00,272.00 245.00,272.00
             245.00,272.00 172.00,272.00 172.00,272.00
             172.00,272.00 172.00,199.00 172.00,199.00
             172.00,199.00 245.00,199.00 245.00,199.00 Z
           M 342.00,199.00
           C 342.00,199.00 342.00,272.00 342.00,272.00
             342.00,272.00 268.00,272.00 268.00,272.00
             268.00,272.00 268.00,199.00 268.00,199.00
             268.00,199.00 342.00,199.00 342.00,199.00 Z
           M 440.00,199.00
           C 440.00,199.00 440.00,272.00 440.00,272.00
             440.00,272.00 366.00,272.00 366.00,272.00
             366.00,272.00 366.00,199.00 366.00,199.00
             366.00,199.00 440.00,199.00 440.00,199.00 Z
           M 147.00,297.00
           C 147.00,297.00 147.00,370.00 147.00,370.00
             147.00,370.00 74.00,370.00 74.00,370.00
             74.00,370.00 74.00,297.00 74.00,297.00
             74.00,297.00 147.00,297.00 147.00,297.00 Z
           M 245.00,297.00
           C 245.00,297.00 245.00,370.00 245.00,370.00
             245.00,370.00 172.00,370.00 172.00,370.00
             172.00,370.00 172.00,297.00 172.00,297.00
             172.00,297.00 245.00,297.00 245.00,297.00 Z
           M 342.00,297.00
           C 342.00,297.00 342.00,370.00 342.00,370.00
             342.00,370.00 268.00,370.00 268.00,370.00
             268.00,370.00 268.00,297.00 268.00,297.00
             268.00,297.00 342.00,297.00 342.00,297.00 Z
           M 440.00,297.00
           C 440.00,297.00 440.00,370.00 440.00,370.00
             440.00,370.00 366.00,370.00 366.00,370.00
             366.00,370.00 366.00,297.00 366.00,297.00
             366.00,297.00 440.00,297.00 440.00,297.00 Z
           M 147.00,393.00
           C 147.00,393.00 147.00,467.00 147.00,467.00
             147.00,467.00 74.00,467.00 74.00,467.00
             74.00,467.00 74.00,393.00 74.00,393.00
             74.00,393.00 147.00,393.00 147.00,393.00 Z
           M 245.00,393.00
           C 245.00,393.00 245.00,467.00 245.00,467.00
             245.00,467.00 172.00,467.00 172.00,467.00
             172.00,467.00 172.00,393.00 172.00,393.00
             172.00,393.00 245.00,393.00 245.00,393.00 Z
           M 342.00,393.00
           C 342.00,393.00 342.00,467.00 342.00,467.00
             342.00,467.00 268.00,467.00 268.00,467.00
             268.00,467.00 268.00,393.00 268.00,393.00
             268.00,393.00 342.00,393.00 342.00,393.00 Z
           M 440.00,393.00
           C 440.00,393.00 440.00,467.00 440.00,467.00
             440.00,467.00 366.00,467.00 366.00,467.00
             366.00,467.00 366.00,393.00 366.00,393.00
             366.00,393.00 440.00,393.00 440.00,393.00 Z" />
</svg>
