<?xml version="1.0" encoding="UTF-8" standalone="no"?>
<!DOCTYPE svg PUBLIC "-//W3C//DTD SVG 20010904//EN"
              "http://www.w3.org/TR/2001/REC-SVG-20010904/DTD/svg10.dtd">

<svg xmlns="http://www.w3.org/2000/svg"
     width="135.486mm" height="135.486mm"
     viewBox="0 0 512 512">
  <path id="Selection"
        d="M 140.00,51.00
           C 132.28,48.88 132.71,51.51 126.91,52.74
             126.91,52.74 108.00,57.20 108.00,57.20
             104.06,58.46 102.34,57.60 99.00,58.54
             99.00,58.54 93.00,60.71 93.00,60.71
             93.00,60.71 79.09,63.29 79.09,63.29
             79.09,63.29 72.91,65.71 72.91,65.71
             72.91,65.71 61.96,68.08 61.96,68.08
             61.96,68.08 56.09,68.08 56.09,68.08
             56.09,68.08 50.83,70.46 50.83,70.46
             50.83,70.46 41.72,72.27 41.72,72.27
             34.18,74.50 22.97,75.54 19.74,84.00
             18.87,86.28 19.00,89.55 19.00,92.00
             19.00,92.00 19.00,421.00 19.00,421.00
             19.00,423.43 18.87,426.73 19.74,428.99
             22.09,435.08 30.96,438.82 37.00,439.72
             37.00,439.72 46.00,440.45 46.00,440.45
             46.00,440.45 52.00,442.08 52.00,442.08
             52.00,442.08 57.91,442.08 57.91,442.08
             60.83,442.95 61.55,444.36 65.04,444.99
             65.04,444.99 72.00,444.99 72.00,444.99
             72.00,444.99 85.00,447.30 85.00,447.30
             85.00,447.30 92.00,449.92 92.00,449.92
             92.00,449.92 100.00,449.92 100.00,449.92
             100.00,449.92 107.00,451.74 107.00,451.74
             107.00,451.74 113.91,452.27 113.91,452.27
             113.91,452.27 120.09,454.59 120.09,454.59
             120.09,454.59 129.00,455.27 129.00,455.27
             129.00,455.27 136.00,457.24 136.00,457.24
             136.00,457.24 141.91,457.24 141.91,457.24
             144.74,457.88 145.51,459.36 149.04,460.06
             149.04,460.06 157.00,460.06 157.00,460.06
             157.00,460.06 164.00,462.08 164.00,462.08
             164.00,462.08 169.91,462.08 169.91,462.08
             169.91,462.08 176.09,464.70 176.09,464.70
             176.09,464.70 185.91,465.30 185.91,465.30
             185.91,465.30 192.09,467.70 192.09,467.70
             187.17,466.61 210.58,470.39 206.00,470.08
             206.00,470.08 213.91,470.08 213.91,470.08
             213.91,470.08 220.09,472.70 220.09,472.70
             214.45,471.45 238.53,475.51 233.09,475.08
             233.09,475.08 241.91,475.08 241.91,475.08
             241.91,475.08 249.04,478.02 249.04,478.02
             249.04,478.02 254.91,478.02 254.91,478.02
             254.91,478.02 261.09,480.08 261.09,480.08
             261.09,480.08 269.91,480.08 269.91,480.08
             269.91,480.08 276.09,482.59 276.09,482.59
             276.09,482.59 283.00,483.29 283.00,483.29
             285.71,483.85 287.08,485.06 290.00,485.28
             291.89,485.42 295.03,484.70 297.91,485.28
             297.91,485.28 304.09,487.79 304.09,487.79
             306.08,488.08 308.91,488.00 311.00,487.79
             319.83,488.01 328.56,488.95 331.00,478.00
             331.00,478.00 346.91,480.30 346.91,480.30
             346.91,480.30 353.09,482.70 353.09,482.70
             353.09,482.70 362.91,483.27 362.91,483.27
             366.80,484.03 365.83,485.16 371.01,485.18
             380.28,485.22 375.65,487.98 387.00,488.00
             391.27,488.01 398.43,488.71 401.98,486.40
             406.76,483.29 407.31,478.30 412.04,478.60
             412.04,478.60 424.00,480.54 424.00,480.54
             424.00,480.54 430.00,482.92 430.00,482.92
             430.00,482.92 438.00,482.92 438.00,482.92
             438.00,482.92 445.00,485.18 445.00,485.18
             445.00,485.18 451.00,485.18 451.00,485.18
             455.58,486.14 454.61,487.86 462.00,488.00
             469.51,488.13 480.19,489.76 483.44,480.82
             484.11,478.96 484.00,476.00 484.00,474.00
             484.00,474.00 484.00,384.00 484.00,384.00
             484.00,384.00 484.00,39.00 484.00,39.00
             484.00,36.98 484.11,34.04 483.44,32.17
             480.35,23.56 471.23,24.99 464.00,25.15
             462.23,25.00 459.69,24.95 458.00,25.15
             454.92,25.93 453.39,27.46 450.00,27.77
             450.00,27.77 443.09,27.77 443.09,27.77
             440.24,28.04 439.64,29.39 435.96,29.87
             431.71,30.43 429.73,28.92 427.00,33.00
             423.41,31.98 419.75,31.63 416.04,32.33
             414.33,32.65 411.25,34.12 410.04,33.92
             408.01,33.60 405.10,29.32 403.24,27.72
             399.92,24.86 398.16,25.03 394.00,25.15
             394.00,25.15 381.09,25.15 381.09,25.15
             381.09,25.15 374.91,27.78 374.91,27.78
             374.91,27.78 365.17,27.78 365.17,27.78
             365.17,27.78 360.83,29.51 360.83,29.51
             356.09,30.83 353.13,28.32 350.00,33.00
             339.73,30.08 335.93,33.95 331.91,34.73
             331.91,34.73 325.00,35.30 325.00,35.30
             325.00,35.30 318.00,37.92 318.00,37.92
             318.00,37.92 311.00,37.92 311.00,37.92
             311.00,37.92 304.00,39.94 304.00,39.94
             304.00,39.94 298.00,39.94 298.00,39.94
             292.69,40.87 293.51,42.88 286.00,43.00
             271.17,43.23 270.65,31.57 260.57,25.98
             257.97,24.53 250.22,24.95 247.00,25.00
             239.60,25.14 240.47,26.91 236.00,27.76
             236.00,27.76 229.17,27.76 229.17,27.76
             229.17,27.76 223.91,29.73 223.91,29.73
             223.91,29.73 210.09,32.53 210.09,32.53
             210.09,32.53 204.83,34.52 204.83,34.52
             204.83,34.52 199.00,35.54 199.00,35.54
             199.00,35.54 193.00,37.70 193.00,37.70
             193.00,37.70 185.28,38.43 185.28,38.43
             185.28,38.43 176.00,40.54 176.00,40.54
             173.07,41.39 172.80,42.22 169.00,42.88
             169.00,42.88 155.28,45.50 155.28,45.50
             155.28,45.50 149.96,47.70 149.96,47.70
             145.51,48.69 142.99,46.53 140.00,51.00 Z
           M 378.00,59.13
           C 378.00,59.13 378.00,454.00 378.00,454.00
             378.00,454.00 366.00,452.79 366.00,452.79
             366.00,452.79 359.00,451.21 359.00,451.21
             359.00,451.21 353.00,450.70 353.00,450.70
             353.00,450.70 346.00,448.30 346.00,448.30
             346.00,448.30 331.00,446.00 331.00,446.00
             331.00,446.00 331.00,104.00 331.00,104.00
             331.00,101.95 331.12,98.99 330.42,97.09
             327.76,89.89 309.52,78.45 307.00,70.00
             307.00,70.00 320.00,69.12 320.00,69.12
             320.00,69.12 325.00,67.30 325.00,67.30
             325.00,67.30 331.96,66.70 331.96,66.70
             331.96,66.70 338.17,64.08 338.17,64.08
             338.17,64.08 347.91,64.08 347.91,64.08
             347.91,64.08 353.17,62.25 353.17,62.25
             353.17,62.25 359.96,61.70 359.96,61.70
             359.96,61.70 366.17,59.13 366.17,59.13
             366.17,59.13 378.00,59.13 378.00,59.13 Z
           M 455.00,59.13
           C 455.00,59.13 455.00,454.00 455.00,454.00
             455.00,454.00 443.00,452.79 443.00,452.79
             443.00,452.79 436.00,450.98 436.00,450.98
             436.00,450.98 430.17,450.98 430.17,450.98
             430.17,450.98 423.70,448.51 423.70,448.51
             423.70,448.51 414.17,447.76 414.17,447.76
             414.17,447.76 407.00,446.00 407.00,446.00
             408.71,438.96 408.00,425.76 408.00,418.00
             408.00,418.00 408.00,367.00 408.00,367.00
             408.00,367.00 408.00,202.00 408.00,202.00
             408.00,202.00 408.00,112.00 408.00,112.00
             408.00,102.26 408.88,74.73 407.00,67.00
             407.00,67.00 415.09,64.10 415.09,64.10
             415.09,64.10 425.33,64.10 425.33,64.10
             425.33,64.10 430.17,62.24 430.17,62.24
             430.17,62.24 436.96,61.70 436.96,61.70
             436.96,61.70 443.17,59.13 443.17,59.13
             443.17,59.13 455.00,59.13 455.00,59.13 Z
           M 224.00,62.00
           C 224.00,62.00 224.00,115.00 224.00,115.00
             224.00,117.06 223.89,119.99 224.56,121.91
             227.02,128.97 233.36,130.99 240.00,131.00
             240.00,131.00 301.00,131.00 301.00,131.00
             301.00,131.00 301.00,454.00 301.00,454.00
             301.00,454.00 289.00,452.74 289.00,452.74
             289.00,452.74 282.00,450.95 282.00,450.95
             282.00,450.95 276.17,450.95 276.17,450.95
             276.17,450.95 268.99,448.11 268.99,448.11
             268.99,448.11 262.00,448.11 262.00,448.11
             262.00,448.11 255.00,446.01 255.00,446.01
             255.00,446.01 248.17,446.01 248.17,446.01
             248.17,446.01 240.99,443.12 240.99,443.12
             240.99,443.12 234.00,443.12 234.00,443.12
             234.00,443.12 220.00,440.70 220.00,440.70
             220.00,440.70 213.00,438.09 213.00,438.09
             213.00,438.09 205.09,438.09 205.09,438.09
             210.60,438.52 186.56,434.58 192.00,435.70
             192.00,435.70 185.00,433.09 185.00,433.09
             185.00,433.09 177.09,433.09 177.09,433.09
             182.60,433.52 158.56,429.58 164.00,430.70
             164.00,430.70 157.00,428.09 157.00,428.09
             157.00,428.09 149.09,428.09 149.09,428.09
             149.09,428.09 142.91,425.91 142.91,425.91
             142.91,425.91 136.00,425.91 136.00,425.91
             136.00,425.91 129.00,423.30 129.00,423.30
             129.00,423.30 121.28,422.50 121.28,422.50
             121.28,422.50 115.96,420.30 115.96,420.30
             115.96,420.30 107.00,419.74 107.00,419.74
             107.00,419.74 101.00,418.26 101.00,418.26
             101.00,418.26 94.17,417.73 94.17,417.73
             94.17,417.73 87.96,415.30 87.96,415.30
             87.96,415.30 79.00,414.74 79.00,414.74
             79.00,414.74 73.00,413.26 73.00,413.26
             73.00,413.26 66.17,412.75 66.17,412.75
             59.12,411.32 66.36,410.00 49.00,410.00
             49.00,410.00 49.00,103.00 49.00,103.00
             49.00,103.00 58.17,100.27 58.17,100.27
             58.17,100.27 66.00,99.55 66.00,99.55
             66.00,99.55 76.00,97.32 76.00,97.32
             76.00,97.32 81.00,95.49 81.00,95.49
             81.00,95.49 95.96,92.59 95.96,92.59
             95.96,92.59 101.28,90.47 101.28,90.47
             101.28,90.47 108.00,89.79 108.00,89.79
             108.00,89.79 117.99,87.54 117.99,87.54
             117.99,87.54 124.28,85.43 124.28,85.43
             124.28,85.43 130.00,84.46 130.00,84.46
             130.00,84.46 136.00,82.30 136.00,82.30
             136.00,82.30 153.00,79.46 153.00,79.46
             153.00,79.46 159.00,77.29 159.00,77.29
             159.00,77.29 173.00,74.46 173.00,74.46
             173.00,74.46 179.00,72.30 179.00,72.30
             179.00,72.30 187.00,71.55 187.00,71.55
             187.00,71.55 201.00,67.47 201.00,67.47
             201.00,67.47 207.00,66.46 207.00,66.46
             207.00,66.46 224.00,62.00 224.00,62.00 Z
           M 255.00,64.00
           C 255.00,64.00 276.45,86.01 276.45,86.01
             276.45,86.01 291.00,102.00 291.00,102.00
             291.00,102.00 254.00,102.00 254.00,102.00
             254.00,102.00 254.00,77.00 254.00,77.00
             254.00,77.00 255.00,64.00 255.00,64.00 Z
           M 235.42,145.68
           C 229.00,147.86 220.82,147.00 214.00,147.00
             214.00,147.00 175.00,147.00 175.00,147.00
             164.55,147.13 167.91,149.98 156.00,150.00
             156.00,150.00 105.00,150.00 105.00,150.00
             94.34,150.02 98.04,151.99 91.99,152.86
             83.77,154.03 75.47,149.19 71.59,160.00
             71.02,161.60 71.04,163.32 71.00,165.00
             70.84,174.21 71.47,181.79 83.00,182.00
             83.00,182.00 136.00,182.00 136.00,182.00
             145.29,181.83 141.24,179.02 153.00,179.00
             153.00,179.00 201.00,179.00 201.00,179.00
             201.00,179.00 219.00,177.00 219.00,177.00
             219.00,177.00 260.00,177.00 260.00,177.00
             266.39,176.99 273.52,174.94 277.47,169.41
             280.60,165.01 279.57,151.81 274.74,147.89
             271.84,145.53 268.59,145.06 265.00,145.00
             258.65,144.91 240.61,144.44 235.42,145.68 Z
           M 79.09,203.54
           C 72.56,206.09 71.04,209.35 71.00,216.00
             70.98,219.67 70.47,224.72 72.56,227.82
             75.47,232.13 79.17,232.93 84.00,233.00
             84.00,233.00 116.00,233.00 116.00,233.00
             116.00,233.00 265.00,233.00 265.00,233.00
             273.73,232.98 278.82,230.73 279.00,221.00
             279.06,217.61 279.50,211.50 277.73,208.67
             274.84,204.05 271.08,203.07 266.00,203.00
             266.00,203.00 234.00,203.00 234.00,203.00
             234.00,203.00 131.00,203.00 131.00,203.00
             131.00,203.00 79.09,203.54 79.09,203.54 Z
           M 79.01,254.94
           C 69.79,258.40 70.88,263.65 71.00,272.00
             71.19,284.37 79.64,283.85 89.00,284.00
             98.12,284.15 95.91,286.87 106.00,287.00
             106.00,287.00 157.00,287.00 157.00,287.00
             168.09,287.02 162.89,288.98 174.00,289.00
             174.00,289.00 226.00,289.00 226.00,289.00
             238.52,289.02 232.20,291.94 244.00,291.79
             244.00,291.79 267.91,291.79 267.91,291.79
             274.21,289.90 278.88,283.20 278.76,277.00
             279.03,275.03 279.12,271.07 278.76,269.30
             277.87,267.41 276.48,266.03 275.11,264.63
             270.36,259.77 269.56,260.01 263.00,260.00
             263.00,260.00 220.00,260.00 220.00,260.00
             210.71,259.83 214.76,257.02 203.00,257.00
             203.00,257.00 153.00,257.00 153.00,257.00
             142.79,256.98 145.28,255.50 140.00,254.94
             140.00,254.94 132.00,254.94 132.00,254.94
             132.00,254.94 79.01,254.94 79.01,254.94 Z
           M 125.00,337.00
           C 126.38,340.32 127.58,339.93 131.00,340.00
             131.00,340.00 152.00,340.00 152.00,340.00
             165.06,340.03 157.33,342.98 171.00,343.06
             171.00,343.06 192.96,343.06 192.96,343.06
             198.45,343.79 195.32,344.98 205.00,345.00
             205.00,345.00 223.00,345.00 223.00,345.00
             235.14,345.02 229.80,347.86 240.00,348.00
             240.00,348.00 265.00,348.00 265.00,348.00
             267.64,347.99 270.28,348.12 272.71,346.91
             277.59,344.51 278.90,341.10 279.00,336.00
             279.04,333.63 279.20,327.26 278.48,325.29
             275.74,317.76 270.16,318.84 264.09,317.74
             259.86,316.97 261.48,316.10 255.00,316.00
             255.00,316.00 233.00,316.00 233.00,316.00
             223.71,315.83 227.76,313.02 216.00,312.94
             216.00,312.94 194.00,312.94 194.00,312.94
             188.10,312.21 190.63,311.02 181.00,311.00
             181.00,311.00 163.00,311.00 163.00,311.00
             150.48,310.98 156.80,308.06 145.00,307.94
             145.00,307.94 122.00,307.94 122.00,307.94
             116.15,307.19 116.93,305.11 108.00,305.00
             108.00,305.00 88.00,305.00 88.00,305.00
             82.98,305.01 79.13,304.74 75.06,308.28
             68.98,313.55 69.14,328.03 75.59,332.97
             79.70,336.11 82.48,334.31 86.83,335.48
             86.83,335.48 93.04,337.67 93.04,337.67
             98.13,338.64 120.18,338.37 125.00,337.00 Z
           M 76.43,357.99
           C 74.50,359.56 73.14,360.67 71.78,363.00
             70.68,365.75 70.51,375.93 71.78,378.82
             72.35,380.99 75.27,384.03 77.32,385.07
             79.30,386.07 80.97,385.84 83.00,386.29
             83.00,386.29 89.00,388.09 89.00,388.09
             89.00,388.09 102.00,388.09 102.00,388.09
             109.26,388.14 107.68,389.72 112.09,390.85
             112.09,390.85 127.00,390.85 127.00,390.85
             136.04,391.06 133.56,392.85 139.04,393.89
             139.04,393.89 151.00,393.89 151.00,393.89
             151.00,393.89 165.00,396.15 165.00,396.15
             165.00,396.15 177.91,396.15 177.91,396.15
             183.13,397.46 179.74,398.98 190.00,399.00
             203.71,399.03 204.15,400.88 211.00,401.00
             211.00,401.00 221.00,401.00 221.00,401.00
             232.89,401.02 227.63,403.83 237.00,404.00
             237.00,404.00 245.00,404.00 245.00,404.00
             254.74,404.06 267.81,413.60 277.44,398.83
             278.98,396.46 278.95,394.71 279.00,392.00
             279.03,389.84 279.13,385.99 278.41,384.04
             277.12,380.58 271.56,375.41 268.00,374.21
             265.68,373.79 258.79,374.02 256.00,374.21
             256.00,374.21 240.00,371.94 240.00,371.94
             240.00,371.94 229.04,371.94 229.04,371.94
             225.47,371.41 224.79,370.12 221.91,369.21
             219.41,368.79 212.92,369.02 210.00,369.21
             200.50,368.94 204.77,367.02 194.00,366.85
             194.00,366.85 183.00,366.85 183.00,366.85
             177.75,365.62 179.76,364.06 171.00,363.94
             171.00,363.94 158.00,363.94 158.00,363.94
             153.24,363.34 153.67,362.11 147.00,361.85
             147.00,361.85 134.09,361.85 134.09,361.85
             129.68,360.72 131.26,359.14 124.00,359.00
             124.00,359.00 115.00,359.00 115.00,359.00
             107.26,358.87 108.81,357.06 100.00,357.00
             94.15,356.96 81.36,356.14 76.43,357.99 Z" />
</svg>
