<?xml version="1.0" encoding="UTF-8" standalone="no"?>
<!DOCTYPE svg PUBLIC "-//W3C//DTD SVG 20010904//EN"
              "http://www.w3.org/TR/2001/REC-SVG-20010904/DTD/svg10.dtd">

<svg xmlns="http://www.w3.org/2000/svg"
     width="135.486mm" height="135.486mm"
     viewBox="0 0 512 512">
  <path id="Selection"
        d="M 179.00,230.00
           C 177.01,236.47 172.88,243.02 173.13,250.00
             173.56,261.85 183.61,267.14 193.59,269.98
             197.12,270.99 198.06,271.85 202.00,272.00
             204.14,274.39 207.86,274.44 211.00,274.68
             219.47,275.31 226.61,270.29 230.21,262.83
             231.58,259.99 233.64,253.41 235.65,251.60
             237.79,249.66 241.28,250.01 244.00,250.00
             250.04,249.99 260.08,251.51 265.00,248.00
             267.98,255.97 272.68,266.71 281.00,270.11
             291.23,274.29 301.76,269.41 311.00,264.94
             319.21,260.96 326.29,257.16 326.95,247.00
             327.25,242.34 326.18,238.27 324.41,234.00
             323.43,231.64 321.24,228.54 321.58,226.00
             322.13,221.88 326.83,219.57 329.57,217.10
             332.33,214.62 337.94,207.25 340.00,204.00
             346.74,207.54 356.31,211.09 364.00,209.74
             370.75,208.55 376.74,204.29 379.59,198.00
             379.59,198.00 381.99,191.00 381.99,191.00
             384.36,185.20 386.52,181.57 386.91,175.00
             387.26,169.02 385.25,162.56 380.06,159.07
             369.06,151.68 362.08,156.42 361.77,144.00
             361.98,140.83 362.20,137.06 361.77,134.00
             360.89,130.91 359.10,127.45 361.02,124.39
             362.80,121.57 371.31,118.34 374.57,116.47
             383.65,111.30 386.14,101.52 382.53,92.00
             382.53,92.00 377.18,81.00 377.18,81.00
             371.62,70.27 368.39,64.61 355.00,65.04
             341.21,65.49 338.40,72.92 332.01,68.53
             329.50,66.80 327.20,63.52 324.85,61.38
             322.22,58.99 315.49,55.21 314.63,51.91
             314.04,49.66 315.77,46.20 316.48,44.00
             317.71,40.21 318.99,33.92 318.33,30.00
             316.16,17.18 301.56,13.57 291.00,10.34
             286.62,9.01 281.54,7.13 277.00,8.20
             268.86,10.12 264.66,13.61 260.96,21.00
             259.40,24.11 258.25,29.40 255.72,31.40
             251.96,34.39 244.57,32.22 240.00,32.51
             236.52,32.73 230.40,33.84 227.33,31.98
             223.92,29.91 221.95,23.42 219.54,20.02
             215.76,14.66 209.44,11.60 203.00,10.70
             198.56,10.07 192.04,13.17 188.00,14.98
             177.12,19.83 165.30,22.73 164.39,37.00
             164.13,41.04 166.77,47.17 168.28,51.00
             169.08,53.01 170.59,55.54 169.76,57.72
             169.10,59.44 165.53,62.48 164.09,63.83
             164.09,63.83 154.24,74.50 154.24,74.50
             148.81,79.43 143.09,74.89 137.00,73.53
             129.76,71.90 120.26,74.18 115.47,80.05
             112.91,83.18 111.41,87.32 109.86,91.00
             105.95,100.29 101.27,111.44 108.72,120.56
             112.25,124.87 116.01,126.37 121.00,128.21
             123.92,129.30 128.30,130.44 129.98,133.22
             131.57,135.87 130.96,145.48 130.95,149.00
             131.03,151.43 131.87,156.82 130.95,158.66
             129.46,161.33 122.84,163.82 120.00,165.17
             112.95,168.52 108.58,172.78 108.05,181.00
             107.65,187.31 110.03,192.39 112.60,198.00
             117.49,208.67 121.31,217.95 135.00,217.97
             140.32,217.98 144.14,216.82 149.00,214.86
             150.90,214.09 155.40,211.92 157.34,212.56
             159.11,213.14 163.32,218.33 165.01,219.95
             168.10,222.89 175.20,228.22 179.00,230.00 Z
           M 235.00,86.46
           C 254.43,83.44 277.60,89.86 290.97,104.75
             295.78,110.10 302.09,120.89 303.52,128.00
             303.52,128.00 304.26,135.00 304.26,135.00
             304.26,135.00 305.49,141.00 305.49,141.00
             305.49,141.00 304.11,148.00 304.11,148.00
             301.87,164.56 297.70,173.65 284.15,184.03
             284.15,184.03 277.96,188.74 277.96,188.74
             266.12,195.46 254.33,197.17 241.00,197.00
             234.90,196.92 233.68,195.92 228.00,194.37
             201.09,187.02 184.48,162.71 186.88,135.00
             188.11,120.76 199.20,103.66 211.00,95.96
             219.05,90.71 226.03,89.11 235.00,86.46 Z
           M 172.00,275.00
           C 170.40,278.60 167.67,285.06 164.86,287.61
             161.00,291.11 150.20,294.64 145.00,296.51
             145.00,296.51 125.00,304.43 125.00,304.43
             101.09,313.32 76.39,324.06 54.00,336.29
             45.84,340.75 34.09,345.41 27.74,352.61
             24.85,355.87 23.32,364.63 22.03,369.00
             22.03,369.00 18.72,383.00 18.72,383.00
             18.72,383.00 14.20,399.17 14.20,399.17
             14.20,399.17 12.14,409.00 12.14,409.00
             11.22,412.08 7.61,425.13 9.22,427.43
             11.03,430.02 23.70,429.95 27.00,430.00
             32.50,430.10 42.40,432.84 48.00,434.16
             48.00,434.16 73.00,440.29 73.00,440.29
             73.00,440.29 101.00,452.03 101.00,452.03
             101.00,452.03 144.00,471.43 144.00,471.43
             144.00,471.43 160.00,477.71 160.00,477.71
             160.00,477.71 177.00,484.71 177.00,484.71
             196.09,491.30 215.92,495.37 236.00,497.00
             235.76,489.98 234.20,489.61 230.29,484.04
             230.29,484.04 213.43,462.09 213.43,462.09
             211.14,459.17 205.73,453.47 205.57,449.91
             205.45,447.00 209.02,439.07 210.27,436.00
             210.27,436.00 213.99,425.42 213.99,425.42
             213.99,425.42 220.14,411.00 220.14,411.00
             220.14,411.00 224.31,399.00 224.31,399.00
             224.31,399.00 227.91,391.00 227.91,391.00
             227.91,391.00 230.18,384.00 230.18,384.00
             230.18,384.00 242.23,353.00 242.23,353.00
             245.57,343.94 251.39,332.00 253.00,323.00
             259.01,330.37 261.20,341.12 264.87,349.83
             264.87,349.83 276.86,380.83 276.86,380.83
             276.86,380.83 290.39,415.00 290.39,415.00
             290.39,415.00 298.60,436.58 298.60,436.58
             299.91,439.76 303.15,445.84 303.06,449.00
             302.96,452.44 299.59,456.52 297.59,459.27
             297.59,459.27 280.15,482.04 280.15,482.04
             278.46,484.26 271.64,491.78 273.74,494.36
             275.84,496.94 285.24,494.20 287.99,493.34
             287.99,493.34 307.83,488.41 307.83,488.41
             307.83,488.41 327.00,482.41 327.00,482.41
             327.00,482.41 341.00,477.29 341.00,477.29
             341.00,477.29 442.00,442.04 442.00,442.04
             451.30,439.13 478.26,430.83 487.00,430.20
             489.97,429.98 497.87,430.32 499.66,427.43
             501.22,424.89 497.62,412.32 496.66,408.99
             496.66,408.99 486.01,366.00 486.01,366.00
             484.94,362.42 484.22,355.49 482.42,352.97
             475.67,343.49 452.04,333.56 441.00,328.47
             441.00,328.47 388.00,306.31 388.00,306.31
             388.00,306.31 347.00,291.07 347.00,291.07
             342.18,289.06 339.45,286.77 337.18,282.00
             335.95,279.39 335.01,273.34 331.85,272.95
             329.41,272.65 324.46,276.38 321.99,277.63
             315.58,280.84 301.78,287.41 295.00,287.91
             284.18,288.70 277.59,285.61 271.04,276.91
             271.04,276.91 265.22,267.90 265.22,267.90
             263.19,266.49 252.01,266.95 249.00,267.00
             238.32,267.20 241.32,273.11 235.38,280.83
             229.94,287.90 221.76,291.28 213.00,290.98
             208.29,290.82 189.32,284.42 185.00,282.16
             180.14,279.61 177.28,276.50 172.00,275.00 Z
           M 243.00,285.00
           C 243.00,285.00 243.00,286.00 243.00,286.00
             243.00,286.00 242.00,285.00 242.00,285.00
             242.00,285.00 243.00,285.00 243.00,285.00 Z
           M 266.00,286.00
           C 264.05,292.19 258.58,305.77 253.00,309.00
             253.00,309.00 243.00,286.00 243.00,286.00
             243.00,286.00 266.00,286.00 266.00,286.00 Z" />
</svg>
