<?xml version="1.0" encoding="UTF-8" standalone="no"?>
<!DOCTYPE svg PUBLIC "-//W3C//DTD SVG 20010904//EN"
              "http://www.w3.org/TR/2001/REC-SVG-20010904/DTD/svg10.dtd">

<svg xmlns="http://www.w3.org/2000/svg"
     width="135.486mm" height="135.486mm"
     viewBox="0 0 512 512">
  <path id="Selection"
        d="M 27.01,40.48
           C 19.17,44.40 19.01,49.17 19.00,57.00
             19.00,57.00 19.00,126.00 19.00,126.00
             19.00,126.00 19.00,393.00 19.00,393.00
             19.01,397.57 18.87,402.00 21.70,405.91
             24.43,409.69 31.75,413.05 36.00,415.37
             36.00,415.37 65.00,431.17 65.00,431.17
             65.00,431.17 122.00,462.27 122.00,462.27
             128.34,465.75 138.85,473.07 146.00,471.61
             150.29,470.73 170.88,458.93 176.00,456.00
             176.00,456.00 227.00,428.34 227.00,428.34
             227.00,428.34 248.00,416.83 248.00,416.83
             251.15,415.09 254.25,412.69 258.00,413.57
             258.00,413.57 287.00,427.75 287.00,427.75
             287.00,427.75 346.00,457.25 346.00,457.25
             346.00,457.25 366.00,467.25 366.00,467.25
             370.11,469.30 375.29,472.19 380.00,471.83
             384.73,471.47 396.38,463.57 401.00,460.80
             401.00,460.80 446.00,433.80 446.00,433.80
             446.00,433.80 476.00,415.80 476.00,415.80
             479.90,413.46 487.79,409.33 490.30,405.90
             493.13,402.03 492.99,397.54 493.00,393.00
             493.00,393.00 493.00,57.00 493.00,57.00
             492.99,47.74 489.91,37.29 478.00,40.50
             475.65,41.13 473.10,42.75 471.00,44.00
             471.00,44.00 403.00,84.80 403.00,84.80
             403.00,84.80 386.00,95.00 386.00,95.00
             383.82,96.30 380.15,98.99 377.58,98.68
             376.03,98.49 369.79,95.14 368.00,94.25
             368.00,94.25 350.00,85.25 350.00,85.25
             350.00,85.25 287.00,53.75 287.00,53.75
             287.00,53.75 267.00,43.76 267.00,43.76
             262.91,41.75 258.71,39.58 254.00,40.35
             249.09,41.16 231.49,51.53 226.00,54.52
             226.00,54.52 173.00,83.39 173.00,83.39
             173.00,83.39 152.00,94.81 152.00,94.81
             149.65,96.15 145.33,99.03 142.58,98.63
             140.98,98.39 135.71,95.31 134.00,94.37
             134.00,94.37 117.00,85.08 117.00,85.08
             117.00,85.08 58.00,53.06 58.00,53.06
             52.99,50.40 37.30,40.98 33.00,40.48
             30.57,39.86 29.33,40.18 27.01,40.48 Z
           M 470.00,72.00
           C 470.00,72.00 470.00,385.00 470.00,385.00
             470.00,385.00 468.98,392.79 468.98,392.79
             468.98,392.79 458.00,400.60 458.00,400.60
             458.00,400.60 431.00,416.80 431.00,416.80
             431.00,416.80 394.00,439.00 394.00,439.00
             394.00,439.00 378.00,447.22 378.00,447.22
             378.00,447.22 368.00,443.25 368.00,443.25
             368.00,443.25 350.00,434.25 350.00,434.25
             350.00,434.25 285.00,401.75 285.00,401.75
             285.00,401.75 265.00,391.74 265.00,391.74
             265.00,391.74 255.00,388.43 255.00,388.43
             255.00,388.43 229.00,401.46 229.00,401.46
             229.00,401.46 171.00,433.08 171.00,433.08
             171.00,433.08 152.00,443.46 152.00,443.46
             152.00,443.46 143.00,447.11 143.00,447.11
             143.00,447.11 135.00,443.48 135.00,443.48
             135.00,443.48 119.00,434.92 119.00,434.92
             119.00,434.92 62.00,403.84 62.00,403.84
             62.00,403.84 43.02,392.53 43.02,392.53
             43.02,392.53 42.00,385.00 42.00,385.00
             42.00,385.00 42.00,70.00 42.00,70.00
             42.00,70.00 65.00,82.46 65.00,82.46
             65.00,82.46 116.00,110.27 116.00,110.27
             116.00,110.27 134.00,120.10 134.00,120.10
             137.38,121.86 141.01,124.28 145.00,123.54
             148.40,122.91 167.53,111.92 172.00,109.48
             172.00,109.48 230.00,77.92 230.00,77.92
             230.00,77.92 247.00,68.61 247.00,68.61
             249.65,67.10 253.92,64.53 257.00,64.65
             259.65,64.75 264.49,67.50 267.00,68.75
             267.00,68.75 285.00,77.75 285.00,77.75
             285.00,77.75 351.00,110.75 351.00,110.75
             351.00,110.75 369.00,119.76 369.00,119.76
             371.90,121.22 375.76,123.71 379.00,123.68
             384.06,123.64 399.85,113.09 405.00,110.00
             405.00,110.00 447.00,84.80 447.00,84.80
             453.03,81.18 463.84,73.95 470.00,72.00 Z
           M 71.00,196.00
           C 74.71,196.00 87.10,195.35 89.70,197.02
             92.43,198.79 93.35,204.91 94.13,208.00
             95.47,213.38 99.67,232.42 101.85,236.00
             104.05,239.63 118.04,253.04 122.00,257.00
             124.02,259.02 128.90,263.49 129.77,266.00
             131.60,271.27 121.64,281.60 122.81,287.00
             123.36,289.54 126.22,292.19 128.00,294.00
             131.40,297.47 139.87,305.24 141.84,309.00
             143.16,311.51 144.19,317.93 144.80,321.00
             144.80,321.00 149.60,345.00 149.60,345.00
             150.17,347.85 151.52,356.55 152.98,358.51
             154.32,360.29 157.95,361.74 160.00,362.76
             160.00,362.76 175.00,370.00 175.00,370.00
             175.00,370.00 181.58,338.00 181.58,338.00
             182.38,333.57 183.96,322.46 185.93,319.00
             187.84,315.65 192.03,312.30 194.61,309.00
             197.14,305.78 199.84,299.84 201.75,296.00
             203.11,293.27 205.83,289.05 204.77,286.00
             203.90,283.49 199.02,279.02 197.00,277.00
             194.14,274.14 188.11,267.74 185.00,265.85
             181.86,263.95 172.07,261.89 168.00,260.87
             168.00,260.87 152.00,256.87 152.00,256.87
             149.67,256.27 146.46,255.70 145.02,253.57
             143.65,251.54 143.96,245.57 144.00,243.00
             144.15,234.88 148.53,232.47 154.00,227.00
             154.00,227.00 175.00,206.00 175.00,206.00
             177.06,203.94 182.99,198.44 183.83,196.00
             184.84,193.08 182.76,191.00 180.94,189.00
             178.47,186.27 168.92,177.74 168.20,175.00
             167.24,171.36 172.06,168.85 173.98,165.00
             175.42,162.12 175.00,156.33 175.00,153.00
             153.21,153.20 125.61,162.95 99.00,163.00
             88.05,163.02 86.53,167.45 79.00,175.00
             76.59,177.41 72.77,180.82 71.60,184.00
             70.72,186.38 71.00,193.15 71.00,196.00 Z
           M 194.00,196.00
           C 194.00,196.00 216.00,181.67 216.00,181.67
             222.17,177.55 225.85,176.87 226.00,169.00
             226.00,169.00 226.00,153.00 226.00,153.00
             226.00,153.00 200.00,153.00 200.00,153.00
             198.04,153.01 195.30,152.83 193.63,153.99
             192.16,155.02 191.06,157.43 190.25,159.00
             188.37,162.65 183.34,171.18 183.84,175.00
             184.23,177.94 192.09,192.64 194.00,196.00 Z
           M 245.00,226.00
           C 251.74,223.85 268.88,211.74 275.00,207.00
             274.88,216.57 271.31,217.14 264.00,222.63
             264.00,222.63 244.00,237.63 244.00,237.63
             239.91,240.69 235.45,243.19 233.39,248.04
             233.39,248.04 227.00,267.00 227.00,267.00
             226.27,269.18 224.45,273.76 224.92,275.91
             225.62,279.09 230.41,281.57 233.00,283.19
             236.54,285.40 252.34,295.82 254.15,298.32
             256.16,301.12 257.45,310.28 258.08,314.00
             258.08,314.00 265.03,347.00 265.03,347.00
             267.09,352.45 281.18,365.18 286.00,370.00
             291.48,365.17 298.59,348.31 302.25,341.00
             302.25,341.00 318.37,308.00 318.37,308.00
             319.10,305.40 319.00,302.68 319.00,300.00
             319.00,300.00 319.00,292.00 319.00,292.00
             318.86,284.15 314.88,280.33 310.67,274.00
             301.87,260.80 299.38,252.67 283.00,248.00
             296.24,244.24 299.33,250.34 308.00,259.00
             310.10,261.10 314.12,265.61 317.00,266.18
             320.13,266.80 324.48,263.34 327.00,261.67
             327.00,261.67 348.00,248.00 348.00,248.00
             348.00,248.00 357.00,267.00 357.00,267.00
             357.00,267.00 360.00,267.00 360.00,267.00
             360.00,267.00 369.00,248.00 369.00,248.00
             374.40,253.40 383.55,263.95 390.00,267.00
             393.98,260.00 398.05,249.60 403.10,244.00
             406.58,240.15 419.28,229.05 420.19,225.00
             420.71,222.69 419.11,219.23 418.34,217.00
             418.34,217.00 412.65,199.00 412.65,199.00
             411.84,193.81 416.16,191.61 420.00,189.08
             425.98,185.13 437.83,179.10 441.00,173.00
             441.00,173.00 426.00,171.17 426.00,171.17
             426.00,171.17 377.00,165.84 377.00,165.84
             377.00,165.84 350.00,163.00 350.00,163.00
             350.00,163.00 293.00,170.58 293.00,170.58
             288.51,171.21 279.97,171.93 276.00,173.47
             276.00,173.47 258.00,185.00 258.00,185.00
             248.77,191.15 245.02,191.00 245.00,202.00
             245.00,202.00 245.00,226.00 245.00,226.00 Z
           M 378.00,316.00
           C 378.00,316.00 378.00,331.00 378.00,331.00
             378.02,333.52 377.63,337.08 380.31,338.40
             384.73,340.57 393.84,336.69 400.00,341.31
             407.00,346.57 412.47,356.50 421.00,359.00
             421.00,359.00 430.64,329.00 430.64,329.00
             430.64,329.00 428.00,317.00 428.00,317.00
             428.00,317.00 421.00,296.00 421.00,296.00
             421.00,296.00 378.00,316.00 378.00,316.00 Z" />
</svg>
