<?xml version="1.0" encoding="UTF-8" standalone="no"?>
<!DOCTYPE svg PUBLIC "-//W3C//DTD SVG 20010904//EN"
              "http://www.w3.org/TR/2001/REC-SVG-20010904/DTD/svg10.dtd">

<svg xmlns="http://www.w3.org/2000/svg"
     width="135.486mm" height="135.486mm"
     viewBox="0 0 512 512">
  <path id="Selection"
        d="M 31.00,195.63
           C 27.50,196.92 24.04,198.53 21.04,200.79
             7.30,211.09 10.00,226.03 10.13,241.00
             10.13,241.00 10.13,286.00 10.13,286.00
             10.00,288.36 9.95,292.35 10.13,294.58
             13.67,310.62 29.02,317.98 44.00,318.00
             44.00,318.00 115.00,318.00 115.00,318.00
             115.00,318.00 465.00,318.00 465.00,318.00
             485.30,317.97 498.97,306.91 498.87,286.00
             498.87,286.00 498.87,226.00 498.87,226.00
             499.00,223.64 499.05,219.65 498.87,217.42
             496.58,207.51 487.66,198.38 478.00,195.63
             475.40,194.90 472.67,195.00 470.00,195.00
             470.00,195.00 393.00,195.00 393.00,195.00
             393.00,195.00 149.00,195.00 149.00,195.00
             149.00,195.00 71.00,195.00 71.00,195.00
             71.00,195.00 31.00,195.63 31.00,195.63 Z" />
</svg>
