<?xml version="1.0" encoding="UTF-8" standalone="no"?>
<!DOCTYPE svg PUBLIC "-//W3C//DTD SVG 20010904//EN"
              "http://www.w3.org/TR/2001/REC-SVG-20010904/DTD/svg10.dtd">

<svg xmlns="http://www.w3.org/2000/svg"
     width="135.486mm" height="135.486mm"
     viewBox="0 0 512 512">
  <path id="Selection"
        d="M 249.00,0.55
           C 242.52,2.76 227.79,11.86 221.00,15.72
             221.00,15.72 168.00,46.14 168.00,46.14
             155.82,53.21 145.20,55.53 145.00,72.00
             145.00,72.00 145.00,84.00 145.00,84.00
             144.98,94.07 144.82,91.78 128.00,101.80
             128.00,101.80 73.00,133.08 73.00,133.08
             66.75,136.51 49.41,145.78 45.99,151.04
             43.04,155.57 43.01,159.84 43.00,165.00
             43.00,165.00 43.00,260.00 43.00,260.00
             43.00,262.48 43.20,265.69 41.98,267.90
             39.62,272.16 28.47,276.65 24.04,280.38
             17.41,285.95 16.01,290.79 16.00,299.00
             16.00,299.00 16.00,398.00 16.00,398.00
             16.02,413.37 24.07,416.58 36.00,423.42
             36.00,423.42 93.00,456.00 93.00,456.00
             100.00,460.17 117.90,471.43 125.00,472.55
             133.34,473.87 139.21,469.77 146.00,465.73
             150.26,463.20 154.00,459.98 159.00,462.11
             159.00,462.11 176.00,471.83 176.00,471.83
             176.00,471.83 222.00,498.19 222.00,498.19
             222.00,498.19 246.00,511.36 246.00,511.36
             248.09,511.97 249.86,511.97 252.00,512.00
             255.51,512.04 262.91,512.25 266.00,511.36
             270.34,510.12 287.85,499.38 293.00,496.43
             293.00,496.43 333.00,473.71 333.00,473.71
             333.00,473.71 355.00,461.48 355.00,461.48
             358.71,460.64 362.90,463.80 366.00,465.58
             372.22,469.15 378.46,473.47 386.00,472.81
             393.18,472.19 408.05,462.41 415.00,458.42
             415.00,458.42 476.00,423.56 476.00,423.56
             487.64,416.94 495.98,414.02 496.00,399.00
             496.00,399.00 496.00,297.00 496.00,297.00
             495.99,290.00 494.59,285.27 488.90,280.55
             484.50,276.91 472.44,272.27 470.02,267.90
             468.80,265.70 469.00,262.47 469.00,260.00
             469.00,260.00 469.00,164.00 469.00,164.00
             468.99,160.52 469.15,157.29 467.77,154.00
             464.14,145.31 447.24,137.71 439.00,133.00
             439.00,133.00 385.00,102.15 385.00,102.15
             380.96,99.84 370.27,94.49 368.17,90.82
             366.78,88.37 367.00,84.76 367.00,82.00
             367.00,82.00 367.00,70.00 367.00,70.00
             366.81,55.92 353.70,51.36 343.00,45.14
             343.00,45.14 284.00,11.54 284.00,11.54
             270.47,4.00 265.49,-2.32 249.00,0.55 Z
           M 313.00,69.00
           C 313.00,69.00 313.00,71.00 313.00,71.00
             313.00,71.00 273.00,93.17 273.00,93.17
             273.00,93.17 256.00,101.56 256.00,101.56
             256.00,101.56 240.00,93.54 240.00,93.54
             240.00,93.54 199.00,70.00 199.00,70.00
             202.64,66.62 209.48,63.29 214.00,60.72
             214.00,60.72 241.00,45.14 241.00,45.14
             244.39,43.15 253.39,37.39 257.00,37.91
             260.15,38.36 271.59,45.47 275.00,47.44
             275.00,47.44 313.00,69.00 313.00,69.00 Z
           M 182.00,101.00
           C 182.00,101.00 222.00,123.83 222.00,123.83
             222.00,123.83 237.83,134.21 237.83,134.21
             237.83,134.21 239.00,143.00 239.00,143.00
             239.00,143.00 239.00,199.00 239.00,199.00
             232.47,197.13 226.85,193.21 221.00,189.87
             221.00,189.87 194.00,174.58 194.00,174.58
             180.69,166.95 181.02,167.69 181.00,159.00
             181.00,159.00 181.00,120.00 181.00,120.00
             181.00,114.90 180.24,105.43 182.00,101.00 Z
           M 331.00,101.00
           C 331.00,101.00 331.00,159.00 331.00,159.00
             330.98,168.77 330.49,167.61 316.00,175.87
             316.00,175.87 274.00,200.00 274.00,200.00
             274.00,200.00 274.00,142.00 274.00,142.00
             274.00,139.84 273.85,136.16 274.74,134.24
             276.20,131.06 286.59,125.90 290.00,124.01
             290.00,124.01 331.00,101.00 331.00,101.00 Z
           M 145.00,134.00
           C 145.00,134.00 145.00,172.00 145.00,172.00
             145.03,190.09 155.08,192.79 169.00,200.72
             169.00,200.72 227.00,233.85 227.00,233.85
             234.27,238.01 249.09,248.18 257.00,247.87
             262.56,247.65 269.28,243.23 274.00,240.40
             274.00,240.40 300.00,225.46 300.00,225.46
             300.00,225.46 346.00,199.20 346.00,199.20
             359.03,191.44 366.97,190.00 367.00,173.00
             367.01,164.42 366.06,140.81 368.00,134.00
             368.00,134.00 418.00,162.00 418.00,162.00
             432.24,170.19 432.98,168.89 433.00,179.00
             433.00,179.00 433.00,248.00 433.00,248.00
             424.80,244.93 410.24,235.89 402.00,231.15
             396.98,228.27 390.89,223.95 385.00,223.73
             376.98,223.44 362.33,233.55 355.00,237.72
             355.00,237.72 297.00,271.00 297.00,271.00
             282.70,279.17 273.03,281.45 273.00,300.00
             273.00,300.00 273.00,396.00 273.00,396.00
             273.01,399.78 272.92,403.41 274.34,407.00
             280.11,421.61 310.67,429.41 320.00,440.00
             320.00,440.00 276.00,465.14 276.00,465.14
             276.00,465.14 256.00,475.45 256.00,475.45
             256.00,475.45 236.00,465.05 236.00,465.05
             236.00,465.05 192.00,440.00 192.00,440.00
             196.77,435.13 215.94,425.20 223.00,421.15
             228.50,417.99 234.34,414.91 237.31,409.00
             239.18,405.29 238.99,402.00 239.00,398.00
             239.00,398.00 239.00,299.00 239.00,299.00
             238.97,281.60 228.74,278.26 215.00,270.77
             215.00,270.77 156.00,237.00 156.00,237.00
             149.15,233.24 134.32,223.05 127.00,223.64
             121.90,224.05 115.54,228.30 111.00,230.77
             111.00,230.77 79.00,249.00 79.00,249.00
             79.00,249.00 79.00,179.00 79.00,179.00
             79.02,169.63 79.19,170.73 93.00,162.85
             93.00,162.85 124.00,145.05 124.00,145.05
             129.32,141.86 139.42,135.37 145.00,134.00 Z
           M 185.00,296.00
           C 185.00,296.00 145.00,318.00 145.00,318.00
             145.00,318.00 128.00,326.46 128.00,326.46
             128.00,326.46 111.00,318.00 111.00,318.00
             111.00,318.00 71.00,296.00 71.00,296.00
             74.13,290.79 88.21,284.37 94.00,280.99
             94.00,280.99 116.00,268.44 116.00,268.44
             118.52,267.02 124.43,263.28 127.00,262.91
             130.73,262.36 138.60,267.47 142.00,269.42
             142.00,269.42 171.00,286.15 171.00,286.15
             175.65,288.82 182.21,291.34 185.00,296.00 Z
           M 441.00,296.00
           C 441.00,296.00 400.00,318.77 400.00,318.77
             396.63,320.60 388.16,326.18 385.00,326.48
             381.38,326.82 372.59,320.96 369.00,319.00
             369.00,319.00 327.00,295.00 327.00,295.00
             327.00,295.00 368.00,270.73 368.00,270.73
             371.53,268.64 381.27,262.41 385.00,262.86
             387.56,263.16 394.52,267.26 397.00,268.73
             397.00,268.73 418.00,280.72 418.00,280.72
             423.88,284.06 437.79,290.65 441.00,296.00 Z
           M 110.00,424.00
           C 110.00,424.00 66.00,399.60 66.00,399.60
             52.61,391.66 52.02,392.52 52.00,383.00
             52.00,383.00 52.00,347.00 52.00,347.00
             52.00,340.62 51.30,331.97 53.00,326.00
             53.00,326.00 96.00,349.92 96.00,349.92
             107.27,356.10 109.98,355.91 110.00,366.00
             110.00,366.00 110.00,424.00 110.00,424.00 Z
           M 204.00,326.00
           C 204.00,326.00 204.00,383.00 204.00,383.00
             203.98,393.97 200.18,393.64 190.00,399.60
             190.00,399.60 146.00,424.00 146.00,424.00
             146.00,424.00 146.00,366.00 146.00,366.00
             146.02,355.91 148.73,356.10 160.00,349.92
             169.35,344.80 196.08,328.26 204.00,326.00 Z
           M 366.00,424.00
           C 366.00,424.00 324.00,400.42 324.00,400.42
             309.09,391.77 309.02,393.57 309.00,384.00
             309.00,384.00 309.00,326.00 309.00,326.00
             314.64,327.78 320.77,331.87 326.00,334.85
             326.00,334.85 353.00,350.28 353.00,350.28
             364.44,356.87 365.98,356.15 366.00,366.00
             366.00,366.00 366.00,424.00 366.00,424.00 Z
           M 460.00,326.00
           C 460.00,326.00 460.00,384.00 460.00,384.00
             459.98,393.12 460.16,391.63 446.00,399.65
             446.00,399.65 402.00,424.00 402.00,424.00
             402.00,424.00 402.00,366.00 402.00,366.00
             402.02,356.44 403.65,356.85 416.00,350.08
             416.00,350.08 444.00,334.15 444.00,334.15
             449.17,331.20 454.25,327.68 460.00,326.00 Z" />
</svg>
