<svg xmlns="http://www.w3.org/2000/svg" viewBox="0 0 74.99 76.6"><defs><style>.cls-1{fill:#cf8a00;}.cls-2{fill:#fff;}</style></defs><title>coalesce_logoicon</title><g id="Layer_2" data-name="Layer 2"><g id="Layer_1-2" data-name="Layer 1"><circle class="cls-1" cx="36.86" cy="36.45" r="10.24"/><path class="cls-2" d="M31.34,36.26l3.84-1.37a.2.2,0,0,0,.12-.12l1.37-3.85a.2.2,0,0,1,.38,0l1.37,3.85a.2.2,0,0,0,.12.12l3.84,1.37a.2.2,0,0,1,0,.38L38.54,38a.18.18,0,0,0-.12.12L37.05,42a.2.2,0,0,1-.38,0L35.3,38.13a.18.18,0,0,0-.12-.12l-3.84-1.37A.2.2,0,0,1,31.34,36.26Z"/><circle class="cls-1" cx="4.82" cy="48.4" r="1.46"/><circle class="cls-1" cx="6.41" cy="53.55" r="1.31"/><circle class="cls-1" cx="8.79" cy="58.38" r="1.16"/><circle class="cls-1" cx="11.87" cy="62.8" r="1"/><path class="cls-1" d="M15.58,67.55a.85.85,0,1,1,.84-.84A.85.85,0,0,1,15.58,67.55Z"/><path class="cls-1" d="M19.82,70.72a.7.7,0,1,1,.69-.69A.69.69,0,0,1,19.82,70.72Z"/><circle class="cls-1" cx="24.49" cy="72.7" r="0.54"/><circle class="cls-1" cx="29.49" cy="74.7" r="0.39"/><path class="cls-1" d="M34.73,76.2a.23.23,0,1,1,0-.46.23.23,0,0,1,0,.46Z"/><path class="cls-1" d="M40.09,76.6a.07.07,0,0,1-.08-.07.07.07,0,0,1,.08-.08.07.07,0,0,1,.07.08A.07.07,0,0,1,40.09,76.6Z"/><circle class="cls-1" cx="42.06" cy="2.71" r="1.46"/><circle class="cls-1" cx="36.81" cy="1.52" r="1.31"/><path class="cls-1" d="M31.44,2.31a1.16,1.16,0,1,1,1.15-1.15A1.16,1.16,0,0,1,31.44,2.31Z"/><circle class="cls-1" cx="26.07" cy="1.62" r="1"/><path class="cls-1" d="M20.84,3.72a.85.85,0,1,1,.84-.85A.85.85,0,0,1,20.84,3.72Z"/><path class="cls-1" d="M15.84,5.58a.7.7,0,1,1,.69-.7A.69.69,0,0,1,15.84,5.58Z"/><path class="cls-1" d="M11.19,8.13a.54.54,0,0,1-.54-.54.54.54,0,1,1,1.07,0A.54.54,0,0,1,11.19,8.13Z"/><path class="cls-1" d="M7,11.32a.4.4,0,0,1-.39-.39A.39.39,0,0,1,7,10.55a.38.38,0,0,1,.38.38A.39.39,0,0,1,7,11.32Z"/><circle class="cls-1" cx="3.24" cy="14.82" r="0.23"/><path class="cls-1" d="M.08,19.27a.08.08,0,0,1,0-.16.08.08,0,0,1,0,.16Z"/><path class="cls-1" d="M63.55,58.77A1.47,1.47,0,1,1,65,57.31,1.47,1.47,0,0,1,63.55,58.77Z"/><path class="cls-1" d="M67.12,54.59a1.31,1.31,0,1,1,1.31-1.31A1.31,1.31,0,0,1,67.12,54.59Z"/><circle class="cls-1" cx="70.03" cy="48.74" r="1.16"/><circle class="cls-1" cx="72.21" cy="43.82" r="1.01"/><path class="cls-1" d="M73.64,39.48a.85.85,0,1,1,0-1.7.85.85,0,1,1,0,1.7Z"/><circle class="cls-1" cx="74.29" cy="33.28" r="0.7"/><circle class="cls-1" cx="74.16" cy="27.9" r="0.55"/><path class="cls-1" d="M73.28,23a.4.4,0,1,1,.4-.4A.4.4,0,0,1,73.28,23Z"/><path class="cls-1" d="M71.68,17.68a.24.24,0,1,1,.24-.24A.24.24,0,0,1,71.68,17.68Z"/><path class="cls-1" d="M69.39,12.65a.09.09,0,0,1-.09-.08.09.09,0,0,1,.09-.09.08.08,0,0,1,.08.09A.08.08,0,0,1,69.39,12.65Z"/><path class="cls-1" d="M61.65,61.3a3.23,3.23,0,0,1-3.23,3.24,3.16,3.16,0,0,1-1.56-.41c-.59.31-1.19.61-1.8.89s-1.23.54-1.86.78-1.27.47-1.91.67-1.31.39-2,.56-1.32.31-2,.43-1.34.23-2,.31-1.35.14-2,.18-1.22.06-1.82.06h-.21c-.68,0-1.37,0-2-.08s-1.36-.12-2-.22-1.34-.2-2-.34-1.33-.29-2-.47-1.3-.39-1.93-.61-1.27-.46-1.89-.73-1.23-.54-1.82-.85-1.18-.62-1.75-1S24.7,63,24.16,62.66s-1.08-.77-1.59-1.18-1-.85-1.49-1.29-.95-.91-1.39-1.38-.87-1-1.28-1.47-.8-1-1.16-1.54-.73-1.06-1.05-1.61-.64-1.1-.92-1.66-.55-1.14-.79-1.71-.47-1.17-.67-1.75-.37-1.19-.52-1.78-.29-1.2-.4-1.79-.19-1.2-.26-1.8-.1-1.2-.12-1.79,0-1.19,0-1.78.07-1.17.14-1.75.15-1.15.26-1.71.24-1.13.38-1.67.32-1.09.5-1.62.39-1.05.61-1.55.46-1,.71-1.49.53-.95.82-1.4a15.32,15.32,0,0,1,.9-1.32c.31-.43.64-.84,1-1.24s.69-.77,1.05-1.13.74-.71,1.12-1,.78-.64,1.17-.93.81-.57,1.22-.83.84-.5,1.26-.72.85-.43,1.28-.61.87-.36,1.3-.51.88-.28,1.32-.4.87-.21,1.3-.29.88-.14,1.31-.19.86-.07,1.29-.08.85,0,1.26,0a12.24,12.24,0,0,1,1.23.1c.41,0,.81.11,1.2.19a14.91,14.91,0,0,1,2.25.62,15.08,15.08,0,0,1,2,.92l.22.12A15.09,15.09,0,0,0,30,23l-.54.09c-.35.07-.72.15-1.07.24s-.72.2-1.08.33-.72.26-1.08.42-.71.32-1.06.5-.7.39-1,.6-.69.45-1,.7a12,12,0,0,0-1,.78,12.74,12.74,0,0,0-.94.87c-.31.3-.61.63-.89.95s-.57.69-.83,1.05-.52.73-.77,1.12-.47.79-.69,1.19-.42.84-.6,1.27-.37.87-.53,1.33-.3.92-.42,1.38-.24,1-.33,1.44-.17,1-.23,1.48-.09,1-.11,1.51,0,1,0,1.54.05,1,.11,1.56.13,1,.22,1.56.22,1,.35,1.56.29,1,.46,1.55.37,1,.58,1.54.44,1,.69,1.5.53,1,.81,1.46.6.95.92,1.42.67.91,1,1.35.74.88,1.13,1.3.8.82,1.23,1.22.87.77,1.32,1.14.93.72,1.41,1,1,.66,1.48,1,1,.59,1.56.86,1.07.53,1.62.76,1.11.45,1.68.65,1.14.38,1.73.54,1.17.3,1.76.42,1.19.23,1.79.31,1.21.14,1.82.19,1.22.07,1.83.07,1.22,0,1.83,0,1.22-.09,1.83-.16,1.21-.16,1.81-.28,1.2-.24,1.79-.39,1.19-.32,1.77-.5S51.47,63,52,62.78s1.13-.45,1.68-.71,1-.46,1.47-.71V61.3a3.23,3.23,0,0,1,6.46,0Z"/><path class="cls-1" d="M55.74,32.58q0,.72-.12,1.41c-.06.46-.14.92-.23,1.37s-.2.89-.33,1.32-.26.86-.41,1.27-.32.82-.5,1.21-.38.78-.58,1.15-.42.73-.65,1.08-.46.67-.71,1-.5.63-.77.92a14.86,14.86,0,0,1-1.67,1.61c-.31.26-.62.5-.94.72A15,15,0,0,0,52,36.45c0-.21,0-.41,0-.61a.07.07,0,0,0,0-.05c.1-.35.2-.71.27-1.08s.14-.75.19-1.13.08-.78.11-1.17,0-.8,0-1.2,0-.81-.07-1.21-.1-.83-.17-1.24-.16-.83-.26-1.25-.23-.83-.37-1.24-.3-.83-.47-1.24-.36-.82-.56-1.22-.44-.81-.67-1.2-.5-.78-.77-1.16-.57-.76-.87-1.12-.63-.73-1-1.08-.69-.68-1.05-1-.76-.64-1.15-.94-.81-.6-1.23-.87-.86-.55-1.31-.79-.91-.49-1.38-.71-1-.42-1.45-.6-1-.36-1.51-.51-1-.28-1.55-.4-1.07-.21-1.6-.29S34,13,33.48,13a23.13,23.13,0,0,0-3.33,0c-.56,0-1.13.1-1.69.18s-1.12.18-1.68.3-1.11.26-1.67.42-1.1.34-1.64.54-1.09.42-1.62.66-1.06.49-1.58.77-1,.57-1.53.88-1,.65-1.48,1-1,.72-1.41,1.1-.91.78-1.34,1.19-.86.84-1.27,1.28-.81.9-1.18,1.37-.75.95-1.1,1.45-.68,1-1,1.51-.62,1-.9,1.58-.55,1.09-.8,1.64-.49,1.12-.7,1.69S7.15,31.65,7,32.23,6.63,33.4,6.48,34s-.26,1.18-.37,1.78-.2,1.2-.26,1.79-.11,1-.15,1.54a3.23,3.23,0,1,1-3.24,0c0-.63.1-1.27.17-1.9s.18-1.33.3-2,.26-1.32.41-2,.34-1.31.54-1.95.42-1.29.65-1.92.5-1.26.78-1.87.58-1.22.89-1.82.65-1.19,1-1.76.72-1.14,1.11-1.69.8-1.09,1.22-1.61.87-1,1.32-1.53.94-1,1.42-1.44,1-.91,1.5-1.33,1.05-.84,1.59-1.23S16.47,14.32,17,14s1.14-.69,1.72-1,1.18-.6,1.78-.87,1.21-.51,1.82-.74,1.24-.43,1.87-.61,1.25-.34,1.88-.47S27.37,10,28,9.94s1.27-.16,1.91-.21a26.63,26.63,0,0,1,3.79,0c.63,0,1.25.11,1.87.2s1.23.2,1.83.33,1.2.29,1.78.46,1.17.37,1.73.58,1.12.45,1.66.7,1.08.52,1.6.81,1,.59,1.51.91,1,.66,1.43,1,.9.72,1.33,1.1.84.77,1.23,1.17.77.83,1.12,1.25.7.87,1,1.31.62.91.9,1.37.55.93.79,1.41.46.95.67,1.44.38,1,.55,1.46.31,1,.43,1.48.23,1,.32,1.48.15,1,.2,1.48.07,1,.09,1.46S55.77,32.11,55.74,32.58Z"/><path class="cls-1" d="M65.78,32.49c0,.66-.07,1.32-.13,2s-.16,1.32-.27,2-.25,1.28-.41,1.91-.33,1.26-.53,1.88S64,41.43,63.78,42s-.49,1.19-.77,1.76-.58,1.14-.9,1.68-.65,1.09-1,1.61-.72,1-1.11,1.51-.78,1-1.2,1.42-.84.9-1.29,1.32-.9.82-1.36,1.2-.95.75-1.44,1.1-1,.67-1.5,1-1,.59-1.54.86-1.06.51-1.59.73-1.07.42-1.61.6-1.09.34-1.64.48-1.1.25-1.64.35-1.1.16-1.65.22-1.09.09-1.63.1H41.4c-.37,0-.74,0-1.1,0-.53,0-1.07-.08-1.59-.14s-1-.16-1.54-.26-1-.22-1.5-.36-1-.3-1.44-.47-.93-.36-1.38-.56-.89-.43-1.31-.66-.84-.48-1.23-.74-.79-.53-1.16-.81-.73-.58-1.07-.89-.68-.62-1-.94-.6-.65-.89-1-.55-.69-.8-1-.48-.71-.7-1.07-.42-.73-.61-1.1-.36-.75-.51-1.12-.3-.76-.42-1.13a15.49,15.49,0,0,1-.55-2.26,13.88,13.88,0,0,1-.21-2.21,2.54,2.54,0,0,1,0-.39,15.12,15.12,0,0,0,6.5,8.5c.17.19.34.38.52.56a10,10,0,0,0,.81.78c.28.25.58.5.88.73s.63.46,1,.67.67.42,1,.62.71.37,1.09.54.76.33,1.15.47.8.28,1.21.4.84.22,1.26.3.87.16,1.31.22.89.09,1.34.12.92,0,1.37,0,.93,0,1.4-.09.93-.11,1.4-.19.94-.18,1.41-.3.94-.26,1.41-.41.93-.33,1.39-.52.92-.4,1.37-.63.9-.48,1.34-.74.87-.55,1.3-.85.84-.61,1.25-.95.8-.68,1.19-1.05.76-.75,1.12-1.15.72-.81,1.05-1.24.66-.87,1-1.33.6-.92.88-1.4.54-1,.79-1.48.47-1,.68-1.55.41-1.07.58-1.61.34-1.1.47-1.65.26-1.13.36-1.7.18-1.15.24-1.73.1-1.17.12-1.75,0-1.18,0-1.77-.06-1.19-.12-1.78-.14-1.18-.24-1.77-.22-1.17-.36-1.76-.3-1.16-.48-1.73-.37-1.15-.59-1.71-.45-1.12-.71-1.67-.52-1.1-.81-1.63-.59-1.06-.92-1.57-.66-1-1-1.51-.73-1-1.11-1.45-.79-.93-1.2-1.37-.84-.88-1.28-1.3-.9-.83-1.36-1.22S51.42,9.38,50.94,9s-1-.7-1.46-1a3.23,3.23,0,1,1,1.6-2.82l.15.1c.56.37,1.11.76,1.64,1.15s1.07.82,1.58,1.25,1,.89,1.5,1.35,1,.94,1.42,1.44.9,1,1.33,1.52.84,1.06,1.23,1.61.78,1.11,1.13,1.68.71,1.16,1,1.75.63,1.2.91,1.81.55,1.24.79,1.87.46,1.27.66,1.91.38,1.29.54,1.94.29,1.32.4,2,.2,1.33.27,2,.11,1.33.13,2S65.81,31.83,65.78,32.49Z"/></g></g></svg>