<svg xmlns="http://www.w3.org/2000/svg" viewBox="0 0 285.1 145.64"><defs><style>.cls-1{fill:#aeb3c1;}.cls-2{fill:#fff;}.cls-3{fill:#cf8a00;}</style></defs><title>coalesce_logodarkBG</title><g id="Layer_2" data-name="Layer 2"><g id="Layer_1-2" data-name="Layer 1"><path class="cls-1" d="M276.18,112.21h-1.51v-.76h3.62v.76h-1.36v3.93h-.75Z"/><path class="cls-1" d="M284.34,112.71,283,116.14h-.53l-1.32-3.43v3.43h-.76V111.6h1.28l1.17,3.06L284,111.6h1.07v4.54h-.76Z"/><path class="cls-2" d="M0,102.86c0-8.44,6.39-14.14,14.59-14.14,6.8,0,10.33,3.73,12.13,7.34l-6.06,2.87a6.64,6.64,0,0,0-6.07-4c-4.26,0-7.42,3.44-7.42,7.91s3.16,7.91,7.42,7.91a6.64,6.64,0,0,0,6.07-4l6.06,2.87A12.79,12.79,0,0,1,14.59,117C6.39,117,0,111.26,0,102.86Z"/><path class="cls-2" d="M51.18,88.72c8.36,0,14.59,5.82,14.59,14.14S59.54,117,51.18,117s-14.63-5.82-14.63-14.14S42.82,88.72,51.18,88.72Zm0,6.23c-4.55,0-7.46,3.44-7.46,7.91s2.91,7.91,7.46,7.91,7.42-3.48,7.42-7.91S55.69,95,51.18,95Z"/><path class="cls-2" d="M93.84,112.36H82.23l-1.43,4.23H73.28l10.3-27.36h8.86l10.34,27.36H95.26Zm-9.64-5.9h7.67L88,95.36Z"/><path class="cls-2" d="M113,89.23h7v21.16h11v6.2H113Z"/><path class="cls-2" d="M142.82,89.23h20.11v5.89h-13v4.54h12.7v5.9h-12.7v5h13v6H142.82Z"/><path class="cls-2" d="M176.92,107.37a12.35,12.35,0,0,0,8.73,3.61c2.42,0,3.9-1,3.9-2.34,0-1.56-1.77-2.17-4.68-2.79-4.5-.9-10.81-2-10.81-8.52,0-4.59,3.89-8.57,10.9-8.57a16.62,16.62,0,0,1,11.1,3.82l-3.85,5a12.72,12.72,0,0,0-7.7-2.82c-2.34,0-3.24.94-3.24,2.13,0,1.43,1.68,1.92,4.71,2.5,4.51.94,10.74,2.25,10.74,8.44,0,5.49-4.06,9.14-11.39,9.14-5.54,0-9.39-1.72-12.13-4.34Z"/><path class="cls-2" d="M206.79,102.86c0-8.44,6.4-14.14,14.59-14.14,6.8,0,10.33,3.73,12.13,7.34l-6.06,2.87a6.63,6.63,0,0,0-6.07-4c-4.26,0-7.42,3.44-7.42,7.91s3.16,7.91,7.42,7.91a6.63,6.63,0,0,0,6.07-4l6.06,2.87A12.79,12.79,0,0,1,221.38,117C213.19,117,206.79,111.26,206.79,102.86Z"/><path class="cls-2" d="M244.73,89.23h20.11v5.89h-13v4.54h12.71v5.9H251.83v5h13v6H244.73Z"/><path class="cls-1" d="M32,136.31h6.21v1.18h-4.8v2.69h4.68v1.17H33.41v2.93h4.8v1.17H32Z"/><path class="cls-1" d="M44.07,138.35v7.1H42.66V136.2h1.43l5,6.94V136.2h1.4v9.25H49.17Z"/><path class="cls-1" d="M57.54,137.49H54.73v-1.18h7.15v1.18H59v8H57.54Z"/><path class="cls-1" d="M66,136.31h6.21v1.18h-4.8v2.69h4.68v1.17H67.39v2.93h4.8v1.17H66Z"/><path class="cls-1" d="M79.87,141.94H78.16v3.51h-1.4V136.2h3.95a2.77,2.77,0,0,1,3,2.84,2.59,2.59,0,0,1-2.33,2.71l2.4,3.7H82.05Zm.65-4.45H78.16v3.28h2.36a1.64,1.64,0,1,0,0-3.28Z"/><path class="cls-1" d="M88,136.31H91.9a2.82,2.82,0,1,1,0,5.63H89.41v3.51H88Zm3.76,1.18H89.41v3.28h2.36a1.64,1.64,0,1,0,0-3.28Z"/><path class="cls-1" d="M102.14,141.94h-1.71v3.51H99V136.2h4a2.77,2.77,0,0,1,3,2.84,2.59,2.59,0,0,1-2.33,2.71l2.4,3.7h-1.74Zm.64-4.45h-2.35v3.28h2.35a1.64,1.64,0,1,0,0-3.28Z"/><path class="cls-1" d="M110.39,136.2h1.4v9.25h-1.4Z"/><path class="cls-1" d="M116.84,143.11a3.89,3.89,0,0,0,2.9,1.3c1.5,0,2-.76,2-1.42,0-1-1.05-1.25-2.22-1.55-1.48-.39-3.2-.82-3.2-2.7,0-1.53,1.34-2.63,3.27-2.63a4.53,4.53,0,0,1,3.36,1.28l-.8,1a3.61,3.61,0,0,0-2.67-1.08c-1,0-1.73.53-1.73,1.3s1,1.09,2.14,1.38c1.51.41,3.27.88,3.27,2.84,0,1.44-1,2.78-3.49,2.78a4.72,4.72,0,0,1-3.64-1.46Z"/><path class="cls-1" d="M127.49,136.31h6.21v1.18h-4.8v2.69h4.69v1.17H128.9v2.93h4.8v1.17h-6.21Z"/><path class="cls-1" d="M144.81,143.11a3.87,3.87,0,0,0,2.9,1.3c1.5,0,2-.76,2-1.42,0-1-1-1.25-2.23-1.55-1.48-.39-3.19-.82-3.19-2.7,0-1.53,1.34-2.63,3.26-2.63a4.54,4.54,0,0,1,3.37,1.28l-.81,1a3.57,3.57,0,0,0-2.67-1.08c-1,0-1.73.53-1.73,1.3s1,1.09,2.15,1.38c1.51.41,3.26.88,3.26,2.84,0,1.44-1,2.78-3.48,2.78a4.72,4.72,0,0,1-3.64-1.46Z"/><path class="cls-1" d="M159.78,136.09a4.78,4.78,0,1,1-4.65,4.78A4.55,4.55,0,0,1,159.78,136.09Zm0,1.24a3.56,3.56,0,1,0,3.22,3.54A3.23,3.23,0,0,0,159.78,137.33Z"/><path class="cls-1" d="M168.85,136.31h6.21v1.18h-4.8v2.69H175v1.17h-4.69v4.1h-1.41Z"/><path class="cls-1" d="M181.63,137.49H178.7v-1.18h7.14v1.18H183v8h-1.4Z"/><path class="cls-1" d="M195.17,138.31l-1.91,7.14h-1.49l-2.65-9.25h1.56l1.91,7.42,2-7.42h1.12l2,7.42,1.91-7.42h1.56l-2.64,9.25H197.1Z"/><path class="cls-1" d="M210.31,143.58h-4.44l-.73,1.87h-1.59l3.67-9.25H209l3.68,9.25h-1.59Zm-4.08-1.29H210l-1.86-4.88Z"/><path class="cls-1" d="M219.66,141.94H218v3.51h-1.41V136.2h4a2.77,2.77,0,0,1,3,2.84,2.59,2.59,0,0,1-2.33,2.71l2.4,3.7h-1.74Zm.53-4.45h-2.36v3.28h2.36a1.64,1.64,0,1,0,0-3.28Z"/><path class="cls-1" d="M227.79,136.31H234v1.18h-4.8v2.69h4.68v1.17H229.2v2.93H234v1.17h-6.21Z"/><circle class="cls-3" cx="131.44" cy="36.45" r="10.24"/><path class="cls-2" d="M125.91,36.26l3.85-1.37a.23.23,0,0,0,.12-.12l1.37-3.85a.2.2,0,0,1,.38,0L133,34.77a.2.2,0,0,0,.12.12L137,36.26a.2.2,0,0,1,0,.38L133.12,38a.18.18,0,0,0-.12.12L131.63,42a.2.2,0,0,1-.38,0l-1.37-3.84a.2.2,0,0,0-.12-.12l-3.85-1.37A.21.21,0,0,1,125.91,36.26Z"/><circle class="cls-3" cx="99.4" cy="48.4" r="1.46"/><circle class="cls-3" cx="100.99" cy="53.55" r="1.31"/><circle class="cls-3" cx="103.36" cy="58.38" r="1.16"/><circle class="cls-3" cx="106.45" cy="62.8" r="1"/><path class="cls-3" d="M110.15,67.55a.85.85,0,1,1,.85-.84A.85.85,0,0,1,110.15,67.55Z"/><path class="cls-3" d="M114.39,70.72a.7.7,0,1,1,.7-.69A.69.69,0,0,1,114.39,70.72Z"/><circle class="cls-3" cx="119.07" cy="72.7" r="0.54"/><circle class="cls-3" cx="124.07" cy="74.7" r="0.39"/><path class="cls-3" d="M129.3,76.2a.23.23,0,1,1,.24-.23A.23.23,0,0,1,129.3,76.2Z"/><path class="cls-3" d="M134.66,76.6a.07.07,0,0,1-.07-.07.07.07,0,0,1,.07-.08.07.07,0,0,1,.08.08A.07.07,0,0,1,134.66,76.6Z"/><circle class="cls-3" cx="136.64" cy="2.71" r="1.46"/><circle class="cls-3" cx="131.39" cy="1.52" r="1.31"/><path class="cls-3" d="M126,2.31a1.16,1.16,0,1,1,1.15-1.15A1.16,1.16,0,0,1,126,2.31Z"/><circle class="cls-3" cx="120.65" cy="1.62" r="1"/><path class="cls-3" d="M115.41,3.72a.85.85,0,1,1,.85-.85A.85.85,0,0,1,115.41,3.72Z"/><path class="cls-3" d="M110.42,5.58a.7.7,0,1,1,.69-.7A.69.69,0,0,1,110.42,5.58Z"/><path class="cls-3" d="M105.76,8.13a.54.54,0,0,1-.54-.54.55.55,0,0,1,.54-.54.54.54,0,0,1,.54.54A.54.54,0,0,1,105.76,8.13Z"/><path class="cls-3" d="M101.54,11.32a.39.39,0,0,1-.39-.39.39.39,0,0,1,.77,0A.39.39,0,0,1,101.54,11.32Z"/><circle class="cls-3" cx="97.81" cy="14.82" r="0.23"/><path class="cls-3" d="M94.66,19.27a.08.08,0,1,1,0-.16.08.08,0,0,1,0,.16Z"/><path class="cls-3" d="M158.12,58.77a1.47,1.47,0,1,1,1.47-1.46A1.47,1.47,0,0,1,158.12,58.77Z"/><path class="cls-3" d="M161.7,54.59A1.31,1.31,0,1,1,163,53.28,1.31,1.31,0,0,1,161.7,54.59Z"/><circle class="cls-3" cx="164.61" cy="48.74" r="1.16"/><circle class="cls-3" cx="166.79" cy="43.82" r="1.01"/><path class="cls-3" d="M168.21,39.48a.85.85,0,1,1,0-1.7.85.85,0,1,1,0,1.7Z"/><circle class="cls-3" cx="168.86" cy="33.28" r="0.7"/><circle class="cls-3" cx="168.74" cy="27.9" r="0.55"/><path class="cls-3" d="M167.86,23a.4.4,0,1,1,.4-.4A.4.4,0,0,1,167.86,23Z"/><path class="cls-3" d="M166.26,17.68a.24.24,0,0,1,0-.48.24.24,0,0,1,0,.48Z"/><path class="cls-3" d="M164,12.65a.09.09,0,0,1-.09-.08.09.09,0,0,1,.09-.09.09.09,0,0,1,.08.09A.09.09,0,0,1,164,12.65Z"/><path class="cls-3" d="M156.23,61.3A3.23,3.23,0,0,1,153,64.54a3.16,3.16,0,0,1-1.56-.41c-.59.31-1.19.61-1.8.89s-1.24.54-1.86.78-1.27.47-1.92.67-1.3.39-2,.56-1.33.31-2,.43-1.34.23-2,.31-1.35.14-2,.18S136.65,68,136,68h-.21c-.68,0-1.36,0-2-.08s-1.36-.12-2-.22-1.34-.2-2-.34-1.33-.29-2-.47-1.3-.39-1.93-.61-1.26-.46-1.88-.73-1.23-.54-1.82-.85-1.18-.62-1.75-1-1.13-.71-1.67-1.09-1.08-.77-1.59-1.18-1-.85-1.49-1.29-1-.91-1.39-1.38-.88-1-1.28-1.47-.8-1-1.17-1.54-.72-1.06-1-1.61-.64-1.1-.92-1.66-.55-1.14-.8-1.71-.46-1.17-.66-1.75-.37-1.19-.53-1.78-.28-1.2-.39-1.79-.19-1.2-.26-1.8-.1-1.2-.12-1.79,0-1.19,0-1.78.07-1.17.14-1.75.15-1.15.26-1.71.23-1.13.38-1.67.32-1.09.5-1.62.39-1.05.61-1.55.46-1,.71-1.49.53-.95.81-1.4.59-.9.91-1.32.64-.84,1-1.24.69-.77,1-1.13.74-.71,1.12-1,.77-.64,1.17-.93.81-.57,1.22-.83.83-.5,1.26-.72.85-.43,1.28-.61.87-.36,1.3-.51.88-.28,1.31-.4.88-.21,1.31-.29.88-.14,1.31-.19.86-.07,1.29-.08.85,0,1.26,0,.83.05,1.23.1.81.11,1.2.19a15.24,15.24,0,0,1,2.25.62,15.08,15.08,0,0,1,2,.92l.22.12a15.09,15.09,0,0,0-9.67,1.4l-.54.09q-.54.11-1.08.24c-.35.1-.71.2-1.07.33s-.72.26-1.08.42-.71.32-1.06.5-.7.39-1,.6-.68.45-1,.7-.67.5-1,.78-.63.56-.94.87-.6.63-.88.95-.57.69-.83,1.05a13,13,0,0,0-.77,1.12c-.24.38-.47.79-.69,1.19s-.42.84-.61,1.27-.36.87-.52,1.33-.3.92-.43,1.38-.23,1-.32,1.44-.17,1-.23,1.48-.1,1-.12,1.51,0,1,0,1.54,0,1,.11,1.56.13,1,.22,1.56.21,1,.35,1.56.29,1,.46,1.55.36,1,.58,1.54.44,1,.69,1.5.52,1,.81,1.46.6.95.92,1.42.67.91,1,1.35.74.88,1.13,1.3.8.82,1.23,1.22.86.77,1.32,1.14.92.72,1.4,1,1,.66,1.49,1,1,.59,1.56.86,1.07.53,1.62.76,1.11.45,1.68.65,1.14.38,1.72.54,1.18.3,1.77.42,1.19.23,1.79.31,1.21.14,1.82.19,1.22.07,1.83.07,1.22,0,1.83,0,1.22-.09,1.82-.16,1.22-.16,1.82-.28,1.2-.24,1.79-.39,1.18-.32,1.77-.5,1.16-.39,1.72-.61,1.14-.45,1.69-.71,1-.46,1.47-.71a.13.13,0,0,1,0-.06,3.24,3.24,0,0,1,6.47,0Z"/><path class="cls-3" d="M150.32,32.58q0,.72-.12,1.41c-.06.46-.14.92-.23,1.37s-.21.89-.33,1.32-.26.86-.41,1.27a12.89,12.89,0,0,1-.51,1.21c-.17.39-.37.78-.57,1.15s-.42.73-.65,1.08-.46.67-.71,1-.51.63-.77.92a15,15,0,0,1-1.68,1.61,10.52,10.52,0,0,1-.93.72,15,15,0,0,0,3.12-9.19c0-.21,0-.41,0-.61a.43.43,0,0,0,0-.05q.15-.52.27-1.08c.07-.37.14-.75.19-1.13s.08-.78.1-1.17,0-.8,0-1.2,0-.81-.07-1.21-.1-.83-.17-1.24-.16-.83-.27-1.25-.23-.83-.36-1.24-.3-.83-.47-1.24-.36-.82-.57-1.22-.43-.81-.66-1.2-.5-.78-.77-1.16-.57-.76-.87-1.12-.63-.73-1-1.08-.69-.68-1.06-1-.75-.64-1.14-.94-.81-.6-1.23-.87-.86-.55-1.31-.79-.91-.49-1.38-.71-1-.42-1.45-.6-1-.36-1.51-.51-1-.28-1.56-.4-1.06-.21-1.6-.29-1.08-.13-1.63-.17a23.27,23.27,0,0,0-3.34,0c-.55,0-1.12.1-1.68.18s-1.12.18-1.68.3-1.12.26-1.67.42-1.1.34-1.65.54-1.08.42-1.61.66-1.07.49-1.58.77-1,.57-1.53.88-1,.65-1.48,1-1,.72-1.41,1.1-.91.78-1.35,1.19-.86.84-1.26,1.28-.81.9-1.19,1.37-.74.95-1.09,1.45-.69,1-1,1.51-.62,1-.9,1.58-.56,1.09-.8,1.64-.49,1.12-.7,1.69-.41,1.14-.59,1.72-.34,1.17-.49,1.76-.26,1.18-.37,1.78-.2,1.2-.27,1.79-.1,1-.14,1.54a3.23,3.23,0,1,1-3.24,0c0-.63.1-1.27.17-1.9s.18-1.33.3-2,.25-1.32.41-2,.34-1.31.54-1.95.42-1.29.65-1.92.5-1.26.78-1.87.57-1.22.89-1.82.65-1.19,1-1.76.73-1.14,1.12-1.69.8-1.09,1.22-1.61.87-1,1.32-1.53.93-1,1.42-1.44,1-.91,1.5-1.33,1-.84,1.59-1.23,1.09-.76,1.66-1.11,1.14-.69,1.72-1,1.18-.6,1.78-.87,1.21-.51,1.82-.74,1.24-.43,1.86-.61,1.26-.34,1.89-.47,1.27-.25,1.91-.34,1.27-.16,1.91-.21a26.63,26.63,0,0,1,3.79,0c.62,0,1.25.11,1.86.2s1.23.2,1.83.33,1.2.29,1.79.46,1.16.37,1.73.58,1.12.45,1.66.7,1.08.52,1.6.81,1,.59,1.51.91,1,.66,1.42,1,.91.72,1.33,1.1.84.77,1.23,1.17.77.83,1.13,1.25.7.87,1,1.31.62.91.91,1.37.54.93.78,1.41a15.65,15.65,0,0,1,.67,1.44c.21.48.39,1,.56,1.46s.3,1,.43,1.48.23,1,.32,1.48.15,1,.2,1.48.07,1,.08,1.46A13.8,13.8,0,0,1,150.32,32.58Z"/><path class="cls-3" d="M160.36,32.49c0,.66-.07,1.32-.13,2s-.16,1.32-.28,2-.24,1.28-.4,1.91-.33,1.26-.53,1.88-.42,1.22-.66,1.81-.5,1.19-.77,1.76-.58,1.14-.9,1.68-.65,1.09-1,1.61-.72,1-1.11,1.51-.78,1-1.2,1.42-.85.9-1.29,1.32-.9.82-1.37,1.2-.94.75-1.43,1.1-1,.67-1.5,1-1,.59-1.54.86-1.06.51-1.59.73-1.08.42-1.62.6-1.08.34-1.63.48-1.1.25-1.65.35-1.1.16-1.64.22-1.09.09-1.63.1H136c-.37,0-.74,0-1.11,0-.52,0-1.06-.08-1.58-.14s-1-.16-1.54-.26-1-.22-1.5-.36-1-.3-1.44-.47-.93-.36-1.38-.56-.89-.43-1.31-.66-.84-.48-1.24-.74-.78-.53-1.15-.81-.73-.58-1.07-.89-.68-.62-1-.94-.61-.65-.89-1-.55-.69-.8-1-.48-.71-.7-1.07-.42-.73-.61-1.1-.36-.75-.51-1.12-.3-.76-.42-1.13a16.94,16.94,0,0,1-.56-2.26,15.13,15.13,0,0,1-.2-2.21,2.54,2.54,0,0,1,0-.39,15.12,15.12,0,0,0,6.5,8.5c.17.19.34.38.52.56s.52.53.8.78.59.5.89.73.63.46,1,.67.67.42,1,.62.72.37,1.1.54.76.33,1.15.47.8.28,1.21.4.84.22,1.26.3.87.16,1.31.22.89.09,1.34.12.91,0,1.37,0,.93,0,1.39-.09.94-.11,1.41-.19.94-.18,1.41-.3.94-.26,1.41-.41.93-.33,1.39-.52.92-.4,1.37-.63.9-.48,1.34-.74.87-.55,1.29-.85.85-.61,1.25-.95.81-.68,1.19-1.05.77-.75,1.13-1.15.72-.81,1-1.24.66-.87,1-1.33.6-.92.88-1.4.54-1,.79-1.48.47-1,.68-1.55.41-1.07.58-1.61.33-1.1.47-1.65.26-1.13.36-1.7.18-1.15.24-1.73.1-1.17.12-1.75,0-1.18,0-1.77-.06-1.19-.12-1.78-.14-1.18-.24-1.77-.22-1.17-.36-1.76-.3-1.16-.48-1.73-.38-1.15-.59-1.71-.45-1.12-.71-1.67-.52-1.1-.81-1.63-.6-1.06-.92-1.57-.66-1-1-1.51-.72-1-1.11-1.45-.78-.93-1.2-1.37-.84-.88-1.28-1.3-.89-.83-1.35-1.22S146,9.38,145.52,9s-1-.7-1.46-1a3.23,3.23,0,1,1,1.59-2.82l.16.1c.55.37,1.11.76,1.64,1.15s1.06.82,1.57,1.25,1,.89,1.51,1.35,1,.94,1.42,1.44.9,1,1.32,1.52.85,1.06,1.24,1.61.78,1.11,1.13,1.68.7,1.16,1,1.75.63,1.2.91,1.81.55,1.24.79,1.87.46,1.27.66,1.91.38,1.29.53,1.94.3,1.32.41,2,.2,1.33.27,2,.11,1.33.13,2S160.38,31.83,160.36,32.49Z"/></g></g></svg>